<svg xmlns="http://www.w3.org/2000/svg" width="306" height="44"><g fill="none" fill-rule="evenodd"><path fill="#71BE8F" d="M215.792 17.894C215.792 8.01 207.627 0 197.548 0c-10.066 0-18.24 8.01-18.24 17.894 0 9.878 8.174 17.9 18.24 17.9 10.08 0 18.244-8.022 18.244-17.9Zm-3.34 0c0 8.077-6.666 14.62-14.904 14.62-8.227 0-14.898-6.543-14.898-14.62 0-8.07 6.671-14.615 14.898-14.615 8.238 0 14.904 6.546 14.904 14.615Z"/><path fill="#7D7C7A" d="M0 42.721h3.621l4.078-21.04h.081L17.952 44l10.22-22.319h.083l4.078 21.04h3.618L29.522 9.848l-11.57 26.111L6.435 9.848 0 42.721M56.801 42.721H73.24v-3.217H60.334V27.3H72.86v-3.22H60.334v-9.236H73.24v-3.22H56.801v31.097M119.655 27.216c0-4.619-1.638-8.789-5.249-11.843-3.743-3.131-7.618-3.75-12.365-3.75h-5.97v31.098h5.884c4.963 0 8.75-.617 12.535-3.912 3.488-3.054 5.165-7.06 5.165-11.593Zm-3.522-.04c0 3.465-1.355 6.716-3.96 9.11-2.901 2.684-6.134 3.218-10.002 3.218h-2.567v-24.66h2.567c3.735 0 6.934.49 9.835 3.004 2.73 2.355 4.127 5.778 4.127 9.327Z"/><path fill="#1B1A19" d="M165.02 21.855c0-7.146-4.703-10.231-11.515-10.231h-12.612V42.72h8.237V32.417h4.666c7.187 0 11.224-3.22 11.224-10.562Zm-8.573.245c0 3.794-2.942 3.794-5.93 3.794h-1.387v-7.752h1.386c3.2 0 5.93.04 5.93 3.958ZM214.018 42.721l-11.949-31.097h-8.994l-12.191 31.097h8.744l2.185-5.397h.016l2.289-6.191h-.034l3.405-9.899h.088l3.184 9.376.01-.005 2.755 7.607-.024.005 1.719 4.504h8.797M256.056 12.37c-2.437-.996-4.87-1.573-7.527-1.573-4.453 0-8.953 1.896-12.056 5.032-3.036 3.047-4.666 7.133-4.666 11.387 0 4.611 1.591 8.659 5.074 11.754 3.283 2.93 7.489 4.578 11.905 4.578 2.56 0 4.541-.622 7.27-1.444v-9.687c-1.722 2.021-4.411 3.29-7.106 3.29-5.124 0-8.573-3.54-8.573-8.448 0-4.833 3.405-8.625 8.45-8.625 2.818 0 5.551 1.197 7.229 3.425v-9.69M296 18.471v-6.847h-18.043v31.097H296v-6.846h-9.795v-5.359h9.285v-6.85h-9.285v-5.195H296"/><path fill="#1B1A19" fill-rule="nonzero" d="M302.123 39.148c.33 0 .56-.06.694-.18.134-.12.2-.293.2-.518a.899.899 0 0 0-.042-.29.449.449 0 0 0-.138-.204.631.631 0 0 0-.253-.12 1.612 1.612 0 0 0-.39-.04h-.582v1.352h.511Zm.071-1.885c.514 0 .892.092 1.137.278.245.185.367.458.367.82a1.1 1.1 0 0 1-.236.711c-.157.196-.393.33-.707.4.05.033.094.071.131.116a.98.98 0 0 1 .105.156l1.014 1.484h-.663c-.098 0-.169-.037-.213-.11l-.899-1.343a.287.287 0 0 0-.096-.09.363.363 0 0 0-.171-.03h-.351v1.573h-.694v-3.965h1.276Zm.054 4.837a2.823 2.823 0 0 0 1.43-.385 2.795 2.795 0 0 0 1.29-1.7c.067-.243.1-.497.1-.76a2.902 2.902 0 0 0-.82-2.03 2.804 2.804 0 0 0-.897-.614 2.736 2.736 0 0 0-1.103-.224 2.741 2.741 0 0 0-1.422.389 2.818 2.818 0 0 0-1.28 1.714 2.97 2.97 0 0 0-.097.764 2.92 2.92 0 0 0 .376 1.443c.12.212.266.404.436.576.17.172.36.32.565.442.206.123.43.218.67.285.24.067.49.1.752.1Zm0-6.1a3.217 3.217 0 0 1 2.3.954c.199.197.368.416.51.658.14.241.25.5.326.778.077.277.116.565.116.864a3.243 3.243 0 0 1-.952 2.292 3.37 3.37 0 0 1-.659.51 3.195 3.195 0 0 1-1.641.444 3.193 3.193 0 0 1-1.637-.445 3.313 3.313 0 0 1-1.166-1.164 3.2 3.2 0 0 1-.445-1.637 3.21 3.21 0 0 1 .445-1.642 3.282 3.282 0 0 1 1.94-1.496c.276-.077.563-.116.863-.116Z"/></g></svg>