<svg width="114" height="86" viewBox="0 0 114 86" fill="none" xmlns="http://www.w3.org/2000/svg">
<g filter="url(#filter0_i_427_12548)">
<g clip-path="url(#clip0_427_12548)">
<rect x="0.944824" y="26.5195" width="100" height="61.3333" rx="12" transform="rotate(-15 0.944824 26.5195)" fill="#FFBF00"/>
<g clip-path="url(#clip1_427_12548)">
<path d="M93.8589 26.5388C93.9595 26.5937 94.0474 26.6684 94.1172 26.7583C94.1871 26.8483 94.2374 26.9515 94.265 27.0617C94.2958 27.1718 94.3038 27.287 94.2886 27.4005C94.2733 27.5141 94.2351 27.6236 94.1761 27.7226C94.0553 27.9356 93.8758 28.0675 93.6394 28.1308C93.4031 28.1941 93.1818 28.1665 92.9703 28.0483C92.8703 27.9928 92.783 27.9179 92.7135 27.8279C92.6441 27.7379 92.594 27.6348 92.5663 27.5248C92.5355 27.4148 92.5275 27.2995 92.5428 27.186C92.558 27.0724 92.5963 26.9629 92.6552 26.8639C92.7761 26.6509 92.9513 26.5202 93.1928 26.4555C93.3041 26.4237 93.4206 26.4148 93.5352 26.4291C93.6498 26.4435 93.7599 26.4807 93.8589 26.5388ZM94.0853 27.6696C94.1366 27.5829 94.1699 27.4871 94.1832 27.3877C94.1965 27.2884 94.1895 27.1877 94.1626 27.0914C94.1384 26.9949 94.0946 26.9044 94.0338 26.8253C93.9731 26.7462 93.8967 26.6802 93.8093 26.6311C93.7225 26.5798 93.6258 26.5468 93.5252 26.5342C93.4247 26.5215 93.3224 26.5296 93.2247 26.5578C93.1257 26.5819 93.0326 26.6261 92.9516 26.6876C92.8706 26.7492 92.8034 26.8267 92.7543 26.9151C92.7024 27.0015 92.6689 27.0974 92.6558 27.1967C92.6426 27.2961 92.6501 27.3969 92.6779 27.493C92.7322 27.696 92.8501 27.8495 93.0306 27.9547C93.117 28.0063 93.2135 28.0395 93.3139 28.0521C93.4144 28.0648 93.5165 28.0567 93.6139 28.0284C93.8252 27.9718 93.9782 27.8531 94.0853 27.6696ZM93.7835 27.0203C93.8236 27.1698 93.7824 27.2818 93.6598 27.3554L93.9909 27.6155L93.7935 27.6684L93.4922 27.4255L93.2906 27.4795L93.3715 27.7815L93.2121 27.8242L92.9699 26.9204L93.3146 26.828C93.4535 26.7908 93.5625 26.7871 93.6354 26.8176C93.7082 26.8481 93.7572 26.9124 93.7857 27.0188L93.7835 27.0203ZM93.6122 27.2022C93.638 27.1679 93.6414 27.1202 93.6257 27.0616C93.61 27.0031 93.5825 26.9655 93.5436 26.9508C93.5047 26.9361 93.4433 26.941 93.3609 26.9631L93.1656 27.0155L93.2528 27.3409L93.4429 27.2899C93.5335 27.2657 93.5877 27.2362 93.6122 27.2022ZM35.3917 38.2239L35.836 39.8823L35.6193 39.9404L35.1749 38.282L34.5592 38.447L34.5034 38.2389L35.9523 37.8507L36.0081 38.0587L35.3893 38.2245L35.3917 38.2239ZM38.8564 39.073L38.6364 38.2521L37.496 38.5577L37.716 39.3786L37.5023 39.4359L37.0025 37.5709L37.2193 37.5128L37.445 38.3551L38.5854 38.0495L38.3597 37.2072L38.5764 37.1492L39.0761 39.0141L38.8594 39.0722L38.8564 39.073ZM40.138 36.9521L40.3022 37.565L41.2573 37.3091L41.313 37.5171L40.3579 37.773L40.529 38.4114L41.6326 38.1157L41.6869 38.3184L40.3663 38.6723L39.8666 36.8076L41.1525 36.463L41.2083 36.6711L40.1397 36.9574L40.138 36.9521Z" fill="#6D6E71"/>
<path d="M36.776 53.3279L38.4467 41.4667L39.3152 41.234L46.6927 50.6707L45.5499 50.9769L43.2563 48.0232L38.3971 49.3252L37.9025 53.0261L36.776 53.3279ZM39.2188 42.578L38.4057 48.4386L42.7931 47.263L39.2182 42.5781L39.2188 42.578ZM47.8606 50.3578L45.0072 39.7088L49.4858 38.5088C51.344 38.0109 53.1396 39.3467 53.5815 40.996C54.0477 42.7358 53.2366 44.7048 51.3784 45.2027L47.8588 46.1458L48.9116 50.0749L47.8596 50.3568L47.8606 50.3578ZM47.6099 45.2158L51.0643 44.2902C52.3436 43.9474 52.8569 42.572 52.5114 41.2824C52.1536 39.947 50.8593 39.1372 49.6712 39.4555L46.3079 40.3567L47.6099 45.2158ZM54.9492 48.4584L56.62 36.5972L57.4884 36.3645L64.866 45.8012L63.7232 46.1074L61.4266 43.1544L56.5674 44.4565L56.0727 48.1574L54.9462 48.4592L54.9492 48.4584ZM57.3891 37.7093L56.576 43.5699L60.9634 42.3943L57.3891 37.7093ZM67.1121 33.7206C69.0309 33.2064 70.6897 33.7908 71.7255 34.9764L71.0089 35.7153C69.9459 34.4887 68.4764 34.3689 67.3031 34.6833C64.7132 35.3773 63.9085 38.0368 64.4831 40.1814C65.1141 42.5362 67.4376 44.1998 69.7371 43.5837C70.9557 43.2572 72.2272 42.2736 72.5425 40.7095L73.5465 40.9221C73.2721 42.6992 71.5894 44.0987 69.9293 44.5436C66.959 45.3395 64.1243 43.1094 63.401 40.4099C62.7152 37.8456 63.8498 34.5988 67.1098 33.7253L67.1121 33.7206ZM81.3501 29.9708L84.2035 40.6197L83.1368 40.9056L81.8025 35.9259L75.3896 37.6442L76.7239 42.6239L75.6735 42.9054L72.8201 32.2564L73.8706 31.9749L75.1406 36.7148L81.5534 34.9965L80.2834 30.2566L81.3501 29.9708ZM93.6629 37.0874L93.912 38.0171L86.6464 39.9639L83.7933 29.3161L90.9231 27.4057L91.1722 28.3354L85.0941 29.964L86.123 33.8039L91.4244 32.3834L91.6615 33.2682L86.3601 34.6887L87.4493 38.7536L93.6635 37.0885L93.6629 37.0874Z" fill="#D22128"/>
<path d="M38.3896 55.312C38.5276 55.3151 38.6539 55.3361 38.7654 55.3706L38.7184 55.6418C38.6037 55.6041 38.4869 55.5847 38.3668 55.5831C38.2467 55.5815 38.1375 55.5942 38.0373 55.6211C37.89 55.6606 37.7785 55.7178 37.705 55.7936C37.6315 55.8694 37.6065 55.955 37.6319 56.0498C37.6537 56.131 37.697 56.1926 37.7599 56.2328C37.8256 56.2739 37.9 56.2998 37.9775 56.3083C38.0591 56.3183 38.1691 56.3254 38.3086 56.3295L38.7216 56.3663C38.8289 56.3834 38.93 56.4262 39.0164 56.4909C39.106 56.556 39.1693 56.6582 39.2058 56.7946C39.2393 56.9195 39.2335 57.0366 39.1908 57.1491C39.1481 57.2615 39.0691 57.3591 38.9583 57.4439C38.8474 57.5287 38.7091 57.5935 38.5452 57.6374C38.3819 57.6813 38.2117 57.6931 38.0443 57.6722C37.8822 57.6517 37.7252 57.6032 37.5805 57.5289L37.6346 57.2672C37.7653 57.3397 37.9092 57.3863 38.0583 57.4044C38.2099 57.4233 38.3523 57.4148 38.4796 57.3807C38.6457 57.3362 38.7669 57.2693 38.8457 57.1807C38.9245 57.092 38.9489 56.9938 38.9204 56.8874C38.8981 56.8041 38.8544 56.7413 38.79 56.7003C38.7257 56.6592 38.6526 56.6342 38.5707 56.623C38.4608 56.6109 38.3503 56.6038 38.2396 56.6018C38.1023 56.6002 37.9654 56.5903 37.8295 56.5722C37.7225 56.5568 37.6214 56.515 37.5355 56.4506C37.447 56.3861 37.3847 56.2862 37.3483 56.1504C37.3168 56.0415 37.3223 55.9251 37.364 55.819C37.4058 55.7142 37.4804 55.6209 37.5871 55.5407C37.6937 55.4605 37.8257 55.399 37.9818 55.3572C38.1152 55.3215 38.2498 55.3071 38.3887 55.31L38.3896 55.312ZM41.8043 54.5028C42.0133 54.5545 42.1955 54.6528 42.348 54.7967C42.5002 54.9394 42.6086 55.1215 42.661 55.3225C42.7169 55.5238 42.7144 55.7369 42.6537 55.9377C42.5938 56.138 42.4824 56.32 42.3303 56.4658C42.175 56.6163 41.9827 56.7243 41.7727 56.779C41.5618 56.8381 41.3393 56.8412 41.1277 56.7881C40.9186 56.7358 40.7361 56.6366 40.5836 56.4924C40.4311 56.3481 40.3255 56.1713 40.2697 55.9633C40.2137 55.7623 40.2163 55.5494 40.2772 55.349C40.3363 55.149 40.4482 54.9677 40.6014 54.8238C40.7571 54.6757 40.9447 54.5716 41.1651 54.5126C41.3809 54.4547 41.5939 54.4502 41.8043 54.5028ZM40.7966 55.0005C40.6777 55.1146 40.5901 55.2566 40.5422 55.4131C40.4938 55.5703 40.4901 55.7303 40.5335 55.8926C40.577 56.0548 40.6596 56.1939 40.7816 56.3065C40.9019 56.4201 41.0503 56.5006 41.2123 56.54C41.3743 56.5795 41.5442 56.5765 41.7054 56.5314C41.8735 56.4863 42.0168 56.4055 42.1365 56.2884C42.2548 56.1742 42.3412 56.032 42.3873 55.8756C42.4346 55.7177 42.4367 55.5565 42.3931 55.3937C42.3523 55.2359 42.2673 55.093 42.1477 54.9813C42.0293 54.8698 41.8836 54.7906 41.7247 54.7512C41.5629 54.7096 41.3925 54.7111 41.2308 54.7555C41.0671 54.798 40.9174 54.8823 40.7968 54.9999L40.7966 55.0005ZM44.0693 54.0051L44.2809 54.7951L45.3477 54.5093L45.414 54.7569L44.3473 55.0427L44.6053 56.0056L44.3439 56.0757L43.7415 53.8276L45.1922 53.4389L45.2586 53.6865L44.0693 54.0051ZM47.38 53.118L47.9159 55.1182L47.6545 55.1883L47.1186 53.1881L46.3769 53.3868L46.3106 53.1392L48.0604 52.6704L48.1268 52.9179L47.38 53.118ZM52.0347 54.0146L50.9115 52.2858L50.7941 54.347L50.5285 54.4182L49.1618 52.3749L49.4425 52.2997L50.5929 54.0818L50.6901 51.9692L50.9507 51.8962L52.0987 53.6789L52.195 51.5628L52.466 51.4902L52.3029 53.9434L52.0312 54.0162L52.0347 54.0146ZM54.2197 52.8239L54.1163 53.4569L53.8386 53.5313L54.2625 51.0082L54.5335 50.9356L56.1562 52.9103L55.8733 52.9861L55.4673 52.4896L54.2227 52.8231L54.2197 52.8239ZM54.4678 51.2698L54.265 52.5461L55.2913 52.2711L54.4708 51.269L54.4678 51.2698ZM58.2289 51.5904L58.078 51.6378L57.4742 51.7996L57.6654 52.5129L57.4052 52.5826L56.8011 50.3283L57.6684 50.0959C57.9521 50.0199 58.1914 50.0268 58.3847 50.1155C58.578 50.2042 58.7063 50.3702 58.7708 50.6109C58.82 50.7946 58.8172 50.9616 58.7624 51.1085C58.7076 51.2554 58.6083 51.3785 58.4545 51.4771L59.1924 52.0974L58.8965 52.1766L58.2327 51.59L58.2289 51.5904ZM58.4561 51.1281C58.5437 51.0085 58.5647 50.8611 58.5183 50.6878C58.4729 50.5184 58.3821 50.4051 58.2472 50.3486C58.1124 50.292 57.9401 50.2913 57.7294 50.3478L57.1257 50.5096L57.4054 51.5536L58.0091 51.3919C58.2204 51.3353 58.3655 51.2489 58.4561 51.1281ZM60.3486 49.6463L60.5465 50.3848L61.6978 50.0764L61.7641 50.3239L60.6129 50.6324L60.8199 51.4052L62.1481 51.0493L62.2136 51.2939L60.621 51.7206L60.0171 49.4666L61.5662 49.0515L61.6325 49.2991L60.3445 49.6442L60.3486 49.6463ZM65.3239 48.31L65.5355 49.1L66.6023 48.8141L66.6686 49.0617L65.6019 49.3475L65.8599 50.3105L65.5985 50.3805L64.9961 48.1325L66.4468 47.7437L66.5131 47.9913L65.3239 48.31ZM69.3761 47.1149C69.585 47.1666 69.7673 47.265 69.9197 47.4089C70.0719 47.5515 70.1804 47.7337 70.2327 47.9347C70.2886 48.1359 70.2861 48.3491 70.2255 48.5498C70.1656 48.7502 70.0542 48.9322 69.9021 49.078C69.7468 49.2285 69.5545 49.3365 69.3444 49.3912C69.1336 49.4503 68.9111 49.4534 68.6995 49.4002C68.4904 49.348 68.3079 49.2487 68.1554 49.1045C68.0028 48.9603 67.8972 48.7835 67.8415 48.5754C67.7855 48.3745 67.7881 48.1616 67.849 47.9612C67.9081 47.7612 68.02 47.5799 68.1732 47.436C68.3289 47.2879 68.5165 47.1838 68.7368 47.1247C68.9535 47.0667 69.1665 47.0621 69.3758 47.115L69.3761 47.1149ZM68.3696 47.6124C68.2506 47.7265 68.1631 47.8685 68.1152 48.0249C68.0667 48.1822 68.063 48.3421 68.1065 48.5044C68.15 48.6667 68.2325 48.8058 68.3546 48.9183C68.4748 49.0319 68.6233 49.1124 68.7853 49.1519C68.9472 49.1913 69.1172 49.1883 69.2783 49.1432C69.4464 49.0982 69.5898 49.0174 69.7095 48.9002C69.8277 48.7861 69.9141 48.6438 69.9603 48.4874C70.0076 48.3295 70.0097 48.1684 69.966 48.0055C69.9253 47.8477 69.8402 47.7048 69.7206 47.5931C69.6023 47.4817 69.4566 47.4025 69.2976 47.3631C69.1358 47.3215 68.9655 47.323 68.8038 47.3674C68.64 47.4095 68.4902 47.4939 68.3697 47.6117L68.3696 47.6124ZM73.4691 48.0187C73.3432 48.2298 73.1313 48.3758 72.8334 48.4557C72.533 48.5361 72.2756 48.5159 72.061 48.396C71.8464 48.2761 71.6991 48.0693 71.6203 47.7751L71.2656 46.4513L71.527 46.3812L71.8809 47.702C71.939 47.919 72.0469 48.0707 72.2039 48.1589C72.3608 48.2472 72.5486 48.2622 72.7659 48.2039C72.9833 48.1457 73.1378 48.039 73.2289 47.8887C73.32 47.7385 73.3322 47.5498 73.2736 47.3311L72.9189 46.0073L73.1803 45.9373L73.535 47.2611C73.6154 47.5565 73.5921 47.8086 73.4665 48.0197L73.4691 48.0187ZM76.9448 47.3403L75.0919 45.9019L75.5756 47.7072L75.3142 47.7772L74.7118 45.5291L74.9829 45.4565L76.8363 46.8967L76.3521 45.0896L76.6102 45.0205L77.2125 47.2686L76.9448 47.3403ZM79.7316 44.3434C79.9393 44.3941 80.113 44.4919 80.2616 44.6346C80.4116 44.7797 80.5182 44.9629 80.5698 45.1642C80.6259 45.3735 80.6254 45.5794 80.5679 45.7779C80.5114 45.9756 80.4015 46.1548 80.25 46.2964C80.0952 46.443 79.908 46.546 79.6879 46.605L78.7739 46.8499L78.1716 44.6021L79.0953 44.3546C79.3157 44.2955 79.5268 44.2915 79.7313 44.3435L79.7316 44.3434ZM78.97 46.5358L79.6355 46.3575C79.8037 46.3124 79.9464 46.2341 80.0641 46.1216C80.1818 46.0091 80.2633 45.8749 80.3072 45.7188C80.3511 45.5627 80.3521 45.4035 80.3078 45.2383C80.2677 45.0803 80.1837 44.9368 80.0654 44.8238C79.9481 44.7119 79.8097 44.6375 79.6487 44.5968C79.4869 44.5569 79.317 44.5595 79.1558 44.6044L78.4998 44.7801L78.9703 46.536L78.97 46.5358ZM82.2033 45.319L82.0999 45.952L81.8222 46.0264L82.2461 43.5033L82.5172 43.4307L84.1398 45.4054L83.8579 45.4809L83.4518 44.9845L82.206 45.3183L82.2033 45.319ZM82.4514 43.7649L82.2486 45.0412L83.2749 44.7662L82.4545 43.7641L82.4514 43.7649ZM85.3146 42.95L85.8506 44.9502L85.5904 45.0199L85.0544 43.0197L84.3128 43.2184L84.2464 42.9708L85.9963 42.502L86.0626 42.7496L85.3146 42.95ZM87.8549 44.4131L87.2535 42.1686L87.5149 42.0986L88.1172 44.3467L87.8558 44.4167L87.8549 44.4131ZM90.7381 41.391C90.9471 41.4427 91.1293 41.541 91.2818 41.6849C91.434 41.8276 91.5424 42.0097 91.5948 42.2107C91.6507 42.412 91.6482 42.6251 91.5875 42.8259C91.5276 43.0262 91.4162 43.2082 91.2641 43.3541C91.1088 43.5046 90.9165 43.6125 90.7065 43.6672C90.4956 43.7263 90.2731 43.7295 90.0615 43.6763C89.8524 43.624 89.6699 43.5248 89.5174 43.3806C89.3649 43.2364 89.2593 43.0595 89.2035 42.8515C89.1475 42.6505 89.1501 42.4377 89.211 42.2372C89.2701 42.0372 89.382 41.8559 89.5352 41.712C89.6909 41.5639 89.8785 41.4598 90.0989 41.4008C90.3156 41.3427 90.5289 41.3381 90.7381 41.391ZM89.7316 41.8884C89.6127 42.0025 89.5251 42.1446 89.4772 42.301C89.4288 42.4582 89.4251 42.6182 89.4685 42.7805C89.512 42.9427 89.5946 43.0818 89.7166 43.1944C89.8369 43.308 89.9853 43.3885 90.1473 43.4279C90.3093 43.4674 90.4792 43.4644 90.6404 43.4193C90.8085 43.3742 90.9518 43.2934 91.0716 43.1763C91.1898 43.0621 91.2762 42.9199 91.3223 42.7635C91.3696 42.6056 91.3717 42.4444 91.3281 42.2816C91.2873 42.1238 91.2023 41.9809 91.0827 41.8692C90.9643 41.7577 90.8187 41.6785 90.6597 41.6391C90.4979 41.5975 90.3275 41.599 90.1658 41.6434C90.0021 41.6857 89.8523 41.77 89.7318 41.8878L89.7316 41.8884ZM94.9096 42.527L93.0567 41.0886L93.5404 42.8938L93.279 42.9639L92.6765 40.7155L92.9476 40.6429L94.801 42.083L94.3168 40.276L94.5749 40.2069L95.1773 42.4549L94.9096 42.527Z" fill="#6D6E71"/>
<path d="M27.7826 34.7008C27.3682 35.1186 26.7681 36.1449 26.1079 37.5785L27.4494 39.0029C27.8411 37.9496 28.2667 36.9819 28.728 36.1294C28.5773 36.4119 28.1428 37.3068 27.5757 39.0057C28.482 38.715 29.8442 38.1506 30.9434 37.649C30.7797 35.6679 29.8694 34.9848 29.8694 34.9848C29.8694 34.9848 28.6368 33.8415 27.7826 34.7008Z" fill="url(#paint0_linear_427_12548)"/>
<path d="M28.5195 49.4834L28.1836 49.6387L28.3573 49.5625L28.5226 49.4816L28.5195 49.4834Z" fill="#BE202E"/>
<path opacity="0.35" d="M28.5195 49.4834L28.1836 49.6387L28.3573 49.5625L28.5226 49.4816L28.5195 49.4834Z" fill="#BE202E"/>
<path d="M28.4275 47.9488L28.4795 47.9253L28.6932 47.8257L28.4271 47.9473L28.4275 47.9488Z" fill="#BE202E"/>
<path opacity="0.35" d="M28.4275 47.9488L28.4795 47.9253L28.6932 47.8257L28.4271 47.9473L28.4275 47.9488Z" fill="#BE202E"/>
<path d="M25.9608 44.0102L26.394 42.3221L26.8859 40.6492L26.9158 40.5529L27.4487 39.0041L26.1069 37.5788L25.9695 37.881L25.4415 39.115L24.8378 40.6689L24.286 42.232L23.8178 43.6938L25.5902 45.6478L25.9601 44.0101L25.9608 44.0102Z" fill="url(#paint1_linear_427_12548)"/>
<path d="M24.0747 58.2023L23.9332 59.826L23.8382 61.0893C24.2237 61.1516 24.6072 61.484 24.991 61.8743C24.8351 61.3949 24.4937 60.9968 24.0405 60.7662C25.7529 60.387 27.0983 59.5761 27.5254 58.1553C27.5643 58.0262 27.5951 57.895 27.6178 57.7623C27.3898 58.2821 27.0134 58.5773 26.1998 58.7488C26.1977 58.7493 26.1967 58.7496 26.1951 58.7532C26.1972 58.7526 26.1981 58.7524 26.1998 58.7488C27.2379 57.9144 27.6954 57.2576 27.9959 56.2925C28.071 56.0469 28.1354 55.7982 28.1889 55.5473C27.4391 56.8638 26.3248 57.4803 25.0079 57.592L24.0932 57.9454C24.0881 58.0302 24.0797 58.1159 24.0724 58.2058L24.0747 58.2023Z" fill="url(#paint2_linear_427_12548)"/>
<path d="M23.9544 56.0072L24.1621 54.2674L24.3864 52.569L24.6374 50.8517L24.9216 49.0993L25.2338 47.3761L25.3547 46.7602L25.5726 45.7041L25.5854 45.6481L23.813 43.6941L23.7765 43.7994L23.3329 45.3566L22.9247 46.9726L22.6158 48.3614L22.5596 48.6419L22.2672 50.313L22.0589 52.029L21.983 53.0496L21.9554 53.8788L21.9901 55.7952L23.7702 57.7598L23.9153 56.3939L23.9582 56.0071L23.9544 56.0072Z" fill="url(#paint3_linear_427_12548)"/>
<path d="M21.9944 55.8816C22.0422 56.6492 22.1326 57.4029 22.2737 58.1385L22.2886 58.2158C21.7718 57.7362 20.6386 57.4359 20.6428 57.4418C21.6111 58.2543 22.4096 59.1046 22.7486 60.0582C22.3937 60.2346 21.8505 60.2623 21.199 60.2068C21.9679 60.6016 22.4748 60.6314 22.6695 60.6238C22.1069 60.8122 21.6204 61.3509 21.1438 61.9571C21.9254 61.3724 22.5903 61.0455 23.1256 61.0221C22.9181 63.4655 22.7762 66.1475 22.6741 68.9781C22.901 68.8408 23.0038 68.639 23.0282 68.3958C23.0443 67.8834 23.161 64.5205 23.5543 60.038L23.5974 59.5447L23.7349 58.1018L23.7691 57.7655C23.7695 57.7622 23.7691 57.7611 23.7694 57.7584L21.9897 55.7952L21.9943 55.881L21.9944 55.8816Z" fill="url(#paint4_linear_427_12548)"/>
<path d="M25.8218 45.7898L25.7756 46.0207L25.6371 46.7306L25.488 47.5313L25.4135 47.9472L25.194 49.2483L24.9303 50.9531L24.6886 52.6918L24.4698 54.4471L24.285 56.0995L24.1006 57.9471L25.0153 57.5937L24.9567 57.5995C26.046 57.1589 27.3222 55.9292 28.0163 54.6461C28.3353 54.0548 28.5919 53.3897 28.7918 52.6385C28.9406 52.0794 29.0612 51.4705 29.148 50.8102C29.2265 50.2317 29.285 49.6133 29.3231 48.9488C29.1002 49.1529 28.83 49.3304 28.5212 49.4864L28.3547 49.5629C28.2977 49.5893 28.2402 49.6146 28.1822 49.6387C29.1283 48.9583 29.5849 48.0135 29.8133 46.94C29.5866 47.1998 29.2026 47.5623 28.6953 47.8241C28.6254 47.86 28.5541 47.8932 28.4816 47.9237L28.4275 47.9477L28.4297 47.9472C28.7536 47.6989 29.0167 47.449 29.227 47.1799C29.2759 47.1209 29.316 47.0605 29.3578 47.004C29.4206 46.9132 29.4789 46.8193 29.5322 46.7228C29.5667 46.6611 29.599 46.5982 29.6293 46.5344C29.7005 46.3837 29.7638 46.225 29.8162 46.0574C29.8327 46.0055 29.8482 45.9532 29.8626 45.9007L29.9111 45.6784C29.9721 45.3893 30.022 45.0981 30.0605 44.8054C30.0767 44.68 30.0925 44.5624 30.0981 44.4554L30.108 44.3317C30.1157 44.2131 30.1201 44.1077 30.1211 44.016C30.1231 43.8785 30.12 43.7704 30.1093 43.6943C30.0805 43.7316 30.0472 43.7705 30.0088 43.8095C29.7413 44.0812 29.2426 44.397 28.8257 44.5931C28.8191 44.5949 28.8135 44.5996 28.8069 44.6014L28.6804 44.6582C28.6871 44.6532 28.6935 44.6467 28.7002 44.6414L25.826 45.7537C25.825 45.7667 25.8224 45.7785 25.8189 45.7874L25.8218 45.7898Z" fill="url(#paint5_linear_427_12548)"/>
<path d="M27.5751 39.0059L27.079 40.5978L27.0518 40.692L26.5948 42.3817L26.1864 44.0813L25.8281 45.7542L28.7023 44.6419C29.4593 44.0202 29.7508 43.5636 29.9877 42.9519L30.1678 42.4313L30.6361 40.7051L30.9123 39.1037L30.9669 38.2618L30.941 37.6498C29.8436 38.1509 28.4807 38.7151 27.5742 39.0061L27.5751 39.0059Z" fill="url(#paint6_linear_427_12548)"/>
</g>
</g>
</g>
<defs>
<filter id="filter0_i_427_12548" x="0.944824" y="0.637558" width="112.467" height="85.1254" filterUnits="userSpaceOnUse" color-interpolation-filters="sRGB">
<feFlood flood-opacity="0" result="BackgroundImageFix"/>
<feBlend mode="normal" in="SourceGraphic" in2="BackgroundImageFix" result="shape"/>
<feColorMatrix in="SourceAlpha" type="matrix" values="0 0 0 0 0 0 0 0 0 0 0 0 0 0 0 0 0 0 127 0" result="hardAlpha"/>
<feMorphology radius="2" operator="erode" in="SourceAlpha" result="effect1_innerShadow_427_12548"/>
<feOffset/>
<feGaussianBlur stdDeviation="7.5"/>
<feComposite in2="hardAlpha" operator="arithmetic" k2="-1" k3="1"/>
<feColorMatrix type="matrix" values="0 0 0 0 0 0 0 0 0 0 0 0 0 0 0 0 0 0 0.25 0"/>
<feBlend mode="normal" in2="shape" result="effect1_innerShadow_427_12548"/>
</filter>
<linearGradient id="paint0_linear_427_12548" x1="26.9215" y1="37.5796" x2="32.9716" y2="33.9774" gradientUnits="userSpaceOnUse">
<stop stop-color="#F69923"/>
<stop offset="0.312" stop-color="#F79A23"/>
<stop offset="0.838" stop-color="#E97826"/>
</linearGradient>
<linearGradient id="paint1_linear_427_12548" x1="20.3302" y1="70.4172" x2="25.7458" y2="38.6023" gradientUnits="userSpaceOnUse">
<stop offset="0.323" stop-color="#9E2064"/>
<stop offset="0.63" stop-color="#C92037"/>
<stop offset="0.751" stop-color="#CD2335"/>
<stop offset="1" stop-color="#E97826"/>
</linearGradient>
<linearGradient id="paint2_linear_427_12548" x1="24.2528" y1="67.1331" x2="27.4803" y2="48.1747" gradientUnits="userSpaceOnUse">
<stop stop-color="#282662"/>
<stop offset="0.095" stop-color="#662E8D"/>
<stop offset="0.788" stop-color="#9F2064"/>
<stop offset="0.949" stop-color="#CD2032"/>
</linearGradient>
<linearGradient id="paint3_linear_427_12548" x1="20.356" y1="68.5831" x2="25.7719" y2="36.7681" gradientUnits="userSpaceOnUse">
<stop offset="0.323" stop-color="#9E2064"/>
<stop offset="0.63" stop-color="#C92037"/>
<stop offset="0.751" stop-color="#CD2335"/>
<stop offset="1" stop-color="#E97826"/>
</linearGradient>
<linearGradient id="paint4_linear_427_12548" x1="21.2134" y1="66.3414" x2="24.0597" y2="49.6217" gradientUnits="userSpaceOnUse">
<stop stop-color="#282662"/>
<stop offset="0.095" stop-color="#662E8D"/>
<stop offset="0.788" stop-color="#9F2064"/>
<stop offset="0.949" stop-color="#CD2032"/>
</linearGradient>
<linearGradient id="paint5_linear_427_12548" x1="23.6819" y1="69.1492" x2="29.0976" y2="37.3343" gradientUnits="userSpaceOnUse">
<stop offset="0.323" stop-color="#9E2064"/>
<stop offset="0.63" stop-color="#C92037"/>
<stop offset="0.751" stop-color="#CD2335"/>
<stop offset="1" stop-color="#E97826"/>
</linearGradient>
<linearGradient id="paint6_linear_427_12548" x1="23.1578" y1="71.0905" x2="28.5735" y2="39.2759" gradientUnits="userSpaceOnUse">
<stop offset="0.323" stop-color="#9E2064"/>
<stop offset="0.63" stop-color="#C92037"/>
<stop offset="0.751" stop-color="#CD2335"/>
<stop offset="1" stop-color="#E97826"/>
</linearGradient>
<clipPath id="clip0_427_12548">
<rect x="0.944824" y="26.5195" width="100" height="61.3333" rx="12" transform="rotate(-15 0.944824 26.5195)" fill="white"/>
</clipPath>
<clipPath id="clip1_427_12548">
<rect width="80" height="32" fill="white" transform="translate(14.3999 38.0982) rotate(-15)"/>
</clipPath>
</defs>
</svg>
