<svg width="114" height="86" viewBox="0 0 114 86" fill="none" xmlns="http://www.w3.org/2000/svg">
<g filter="url(#filter0_i_427_13231)">
<g clip-path="url(#clip0_427_13231)">
<rect x="0.944824" y="26.5194" width="100" height="61.3333" rx="12" transform="rotate(-15 0.944824 26.5194)" fill="#FFBF00"/>
<g clip-path="url(#clip1_427_13231)">
<path d="M27.7035 39.0626L31.5891 38.0215L36.4083 56.007C34.5167 56.9197 33.0936 57.4632 31.5037 57.8892C26.7597 59.1604 23.7123 57.6786 22.6103 53.5657C21.5488 49.6041 23.4834 46.3277 27.5454 45.2393C28.1765 45.0702 28.669 44.9921 29.2898 44.9879L27.7035 39.0626ZM30.1295 48.1166C29.6349 48.0869 29.2428 48.1381 28.7637 48.2665C26.7958 48.7938 25.9843 50.3088 26.5523 52.4287C27.1067 54.4977 28.496 55.3422 30.489 54.8082C30.9364 54.6874 31.3745 54.534 31.7996 54.3494L30.1295 48.1166ZM39.3791 42.3666L41.7927 51.3742C42.6244 54.4781 42.7956 56.0265 42.4665 57.4951C42.1667 58.9005 41.5438 59.906 40.0581 61.2234L35.9902 60.4741C37.49 59.2067 38.1328 58.278 38.3719 57.0503C38.6295 55.7914 38.4619 54.4574 37.5558 51.076L35.5025 43.413L39.3791 42.3666ZM33.8914 37.4287L37.777 36.3876L38.8468 40.3801L34.9612 41.4212L33.8914 37.4287ZM41.9623 42.6207C43.462 41.3534 44.9999 40.5631 46.7991 40.081C48.7921 39.547 50.2465 39.7253 51.1039 40.6047C51.5812 41.098 51.8912 41.8272 52.3239 43.4423L54.4413 51.3442C52.7677 52.0632 50.6197 52.8278 49.0053 53.2604C45.7508 54.1325 43.9827 53.3887 43.3067 50.8657C42.5765 48.1405 44.1797 46.3527 48.8422 44.6768L48.6123 43.8191C48.423 43.1127 47.9993 42.948 47.016 43.2115C45.5781 43.5968 44.0719 44.4332 42.767 45.6214L41.9624 42.6186L41.9623 42.6207ZM49.6995 47.1733C47.1933 48.1154 46.4626 48.7446 46.7328 49.7531C46.9355 50.5097 47.51 50.7347 48.5757 50.4491C49.1553 50.2938 49.6724 50.1014 50.3959 49.7723L49.6995 47.1733ZM53.2493 39.2996C55.3828 38.0792 57.2011 37.2952 59.1188 36.7813C61.1118 36.2473 62.6727 36.3156 63.7672 36.9693C64.7978 37.5856 65.2929 38.4261 65.8135 40.3689L67.8552 47.9887L63.9696 49.0299L61.9681 41.56C61.5691 40.0712 60.9156 39.6514 59.5272 40.0234C58.9972 40.1654 58.5316 40.344 57.8099 40.7804L60.2842 50.0146L56.3922 51.0575L53.2493 39.2996ZM69.9271 49.7043C71.479 50.0456 72.9295 50.0082 74.3674 49.6229C76.9155 48.9402 77.7234 47.6152 77.0609 45.1425L77.0405 45.0665C76.3852 45.6472 75.6692 46.0019 74.6595 46.2725C71.2466 47.187 68.4812 45.5213 67.5279 41.9635C66.3446 37.5472 68.8804 34.1912 74.5568 32.6703C76.2221 32.2241 77.8091 31.9879 79.7773 31.8664L79.198 35.026C78.1092 35.1017 79.1071 35.0213 78.3056 35.1547L78.4138 35.5584L78.9033 37.1845L79.4971 39.2974C79.6648 39.8205 79.8069 40.3505 79.9744 40.8729L80.2585 41.9328C81.1509 45.2634 81.2929 46.9011 80.8047 48.4122C80.1014 50.6298 78.2585 52.1313 75.2809 52.9292C73.7676 53.3346 72.3943 53.459 70.8897 53.2941L69.9297 49.7112L69.9271 49.7043ZM74.5446 36.0271L74.1408 36.1353C73.3773 36.3123 72.5486 36.7511 72.0441 37.2921C71.2524 38.0722 71.0302 39.1595 71.3953 40.5221C71.9159 42.4649 73.1791 43.3156 74.8882 42.8576C75.4181 42.7156 75.827 42.4977 76.2836 42.2132L75.9252 40.8757C75.8035 40.4217 75.6406 39.9167 75.5005 39.3938L74.9947 37.6092L74.6242 36.3295L74.5431 36.0268L74.5446 36.0271ZM85.6403 29.6197C89.5259 28.5786 92.5532 30.3901 93.6149 34.3523C94.7019 38.4092 92.9135 41.6257 88.977 42.6805C85.0914 43.7216 82.0383 41.917 80.9836 37.9805C79.8882 33.8927 81.6782 30.682 85.6398 29.6205L85.6403 29.6197ZM88.2146 39.5311C89.7034 39.1322 90.2556 37.6591 89.6811 35.5147C89.1117 33.3897 87.9175 32.3638 86.4286 32.7628C84.8832 33.1769 84.3374 34.6483 84.912 36.7926C85.4865 38.937 86.7013 39.9366 88.2146 39.5311Z" fill="#092E20"/>
</g>
</g>
</g>
<defs>
<filter id="filter0_i_427_13231" x="0.944824" y="0.637543" width="112.467" height="85.1253" filterUnits="userSpaceOnUse" color-interpolation-filters="sRGB">
<feFlood flood-opacity="0" result="BackgroundImageFix"/>
<feBlend mode="normal" in="SourceGraphic" in2="BackgroundImageFix" result="shape"/>
<feColorMatrix in="SourceAlpha" type="matrix" values="0 0 0 0 0 0 0 0 0 0 0 0 0 0 0 0 0 0 127 0" result="hardAlpha"/>
<feMorphology radius="2" operator="erode" in="SourceAlpha" result="effect1_innerShadow_427_13231"/>
<feOffset/>
<feGaussianBlur stdDeviation="7.5"/>
<feComposite in2="hardAlpha" operator="arithmetic" k2="-1" k3="1"/>
<feColorMatrix type="matrix" values="0 0 0 0 0 0 0 0 0 0 0 0 0 0 0 0 0 0 0.25 0"/>
<feBlend mode="normal" in2="shape" result="effect1_innerShadow_427_13231"/>
</filter>
<clipPath id="clip0_427_13231">
<rect x="0.944824" y="26.5194" width="100" height="61.3333" rx="12" transform="rotate(-15 0.944824 26.5194)" fill="white"/>
</clipPath>
<clipPath id="clip1_427_13231">
<rect width="80" height="40" fill="white" transform="translate(13.3647 34.2345) rotate(-15)"/>
</clipPath>
</defs>
</svg>
