<svg width="114" height="87" viewBox="0 0 114 87" fill="none" xmlns="http://www.w3.org/2000/svg">
<g filter="url(#filter0_i_427_13328)">
<g clip-path="url(#clip0_427_13328)">
<rect x="0.889648" y="26.8236" width="100" height="61.3333" rx="12" transform="rotate(-15 0.889648 26.8236)" fill="#FCFFFC"/>
<g clip-path="url(#clip1_427_13328)">
<path d="M47.0377 56.787L43.0614 41.9472L43.8663 41.7315L44.4918 44.0658C44.5591 43.9369 44.6174 43.8034 44.6664 43.6664C44.9649 42.0915 46.147 40.8312 47.6997 40.4338C49.5203 39.8873 51.1938 40.1671 52.5077 41.5653C53.3373 42.4304 53.9478 43.4814 54.2884 44.6305C54.629 45.7797 54.6897 46.9936 54.4655 48.171C54.1393 50.2199 52.3663 51.6702 50.1176 51.9146C49.4303 52.0375 48.7232 51.9863 48.0608 51.7657C47.3984 51.5451 46.8018 51.1621 46.3255 50.6517L47.9069 56.5535L47.0377 56.787ZM45.2729 46.981L45.9201 48.6752C46.7697 50.5734 48.2563 51.4311 50.1564 51.1581C51.0591 51.0685 51.9028 50.6688 52.5437 50.0268C53.1846 49.3849 53.583 48.5406 53.6711 47.6378C53.9299 45.7394 53.3594 43.8217 52.108 42.3709C51.5823 41.7236 50.8603 41.265 50.051 41.0643C49.2417 40.8637 48.389 40.9319 47.6219 41.2587C46.888 41.5137 46.2517 41.991 45.8015 42.6242C45.3512 43.2574 45.1094 44.0151 45.1095 44.7921C45.1219 45.524 45.1764 46.2547 45.2727 46.9804L45.2729 46.981ZM71.2481 42.1826C71.406 43.2602 71.1671 44.3584 70.576 45.2731C69.9848 46.1878 69.0816 46.8566 68.0342 47.1552C64.7042 48.2297 62.5195 46.4126 61.5746 43.8933C61.0231 42.5355 60.8691 41.0488 61.1307 39.6068C61.3161 38.6159 61.8122 37.7099 62.5471 37.0198C63.2819 36.3298 64.2174 35.8916 65.2179 35.7688C66.1555 35.6011 67.122 35.7325 67.9807 36.1444C68.8395 36.5563 69.5469 37.2278 70.003 38.0639C70.3927 38.8324 70.7395 39.622 71.0418 40.4289L62.1766 42.8044C62.6408 45.1936 64.4062 46.7415 66.3143 46.7174C68.6858 46.6687 70.3291 45.1951 70.4526 42.8948C70.4604 42.3109 70.7194 42.1594 71.2539 42.1811L71.2481 42.1826ZM61.9689 42.0553L69.8985 39.9305C69.1795 37.4453 67.1371 36.0462 65.0214 36.591C62.6284 37.1908 61.3678 39.3969 61.9689 42.0553ZM72.9016 41.7982L73.6789 41.59C73.8608 42.1549 74.1951 42.6588 74.645 43.046C75.0948 43.4333 75.6427 43.6889 76.2285 43.7849C76.9637 43.9043 77.7164 43.8565 78.4305 43.6448C79.1447 43.4331 79.8019 43.0631 80.3533 42.5623C80.6599 42.3119 80.8822 41.9734 80.9903 41.5925C81.0983 41.2117 81.0868 40.8068 80.9573 40.4327C80.8789 40.0595 80.6808 39.7221 80.3932 39.4716C80.1056 39.221 79.7442 39.0711 79.3638 39.0446C78.4234 38.9556 77.4672 39.0241 76.521 38.978C75.5452 38.9629 74.5719 38.8763 73.6087 38.719C72.0213 38.41 71.2194 35.7647 72.5823 34.494C73.273 33.8168 74.1223 33.3233 75.0527 33.0585C75.9831 32.7938 76.965 32.7663 77.9088 32.9784C79.0871 33.2701 79.9611 34.2623 80.1034 35.4686L79.4369 35.6472C79.4283 35.615 79.3602 35.6029 79.3514 35.57C78.6996 33.4671 76.7352 33.2812 74.8675 33.9817C74.3052 34.2014 73.8029 34.5238 73.3571 34.9207C73.0853 35.1451 72.89 35.4484 72.7982 35.7887C72.7063 36.129 72.7225 36.4894 72.8445 36.8201C72.9361 37.1591 73.1304 37.4616 73.4009 37.6857C73.6713 37.9099 74.0045 38.0448 74.3547 38.0719C75.2741 38.1547 76.2156 38.1136 77.1462 38.1224L79.3857 38.109C79.9032 38.1377 80.3998 38.3228 80.8099 38.6398C81.2199 38.9568 81.5241 39.3908 81.6821 39.8845C82.1507 40.9633 81.8735 42.2212 80.9971 43.0048C79.4444 44.5306 76.3567 45.0646 74.6633 44.1152C73.7911 43.6084 73.1565 42.7728 72.9034 41.7971L72.9016 41.7982ZM90.3347 32.7278L89.6057 32.9231C89.5793 32.8246 89.5153 32.7403 89.4842 32.6679C89.3262 32.1246 88.9861 31.6522 88.5211 31.3298C88.0561 31.0074 87.4945 30.8547 86.9302 30.8973C85.8393 30.8781 84.7726 31.2198 83.8957 31.8691C83.5378 32.0839 83.259 32.4089 83.101 32.7953C82.943 33.1817 82.9144 33.6089 83.0194 34.013C83.1116 34.4126 83.339 34.7682 83.6631 35.0195C83.9873 35.2708 84.3883 35.4025 84.7983 35.3922L88.3593 35.3546C88.7427 35.3445 89.1265 35.3574 89.5084 35.3932C90.6744 35.4948 91.66 36.2881 91.9943 37.4071C92.1581 37.9547 92.1525 38.5391 91.9781 39.0835C91.8037 39.6278 91.4687 40.1067 91.0171 40.4572C90.338 41.0157 89.5496 41.4262 88.7026 41.6623C87.8556 41.8984 86.9686 41.9549 86.0984 41.8284C85.3826 41.7236 84.7161 41.4021 84.1886 40.9071C83.6611 40.4121 83.2979 39.7673 83.1479 39.0596L83.8601 38.8688C84.474 40.0882 85.6489 40.926 87.0016 41.1087C88.3543 41.2915 89.7099 40.7944 90.6243 39.7819C90.91 39.5204 91.1147 39.1824 91.2143 38.8081C91.3139 38.4338 91.3041 38.0388 91.1861 37.6699C91.104 37.2973 90.9026 36.9618 90.6126 36.714C90.3225 36.4663 89.9595 36.3199 89.5787 36.2971C88.6383 36.2081 87.6837 36.2824 86.736 36.2306C85.7562 36.2207 84.7784 36.1393 83.8105 35.9868C82.2596 35.6797 81.4409 33.0624 82.7769 31.7996C83.4726 31.1004 84.3374 30.5932 85.2872 30.3273C86.237 30.0615 87.2394 30.046 88.1969 30.2825C88.7505 30.4394 89.2464 30.7539 89.6243 31.1876C90.0023 31.6213 90.246 32.1556 90.3258 32.7254L90.3347 32.7278ZM44.6399 53.1366C44.382 53.322 44.0652 53.4066 43.7492 53.3744C43.4333 53.3422 43.14 53.1954 42.9249 52.9619L39.0415 49.8026L38.484 49.3653L36.3942 54.718C36.3299 55.0139 36.16 55.2763 35.9163 55.4562C35.6726 55.636 35.3718 55.721 35.07 55.6953L37.7832 48.8774L32.4663 44.7986C32.9945 44.4307 33.7076 44.4853 34.1746 44.9275L38.1739 48.1074L40.0689 43.3647C40.1355 43.0729 40.3069 42.8158 40.5507 42.6421C40.7944 42.4685 41.0935 42.3906 41.391 42.4231L40.4053 44.862L39.0561 48.1133C39.0124 48.18 38.9833 48.2553 38.9706 48.3341C38.958 48.4129 38.9621 48.4934 38.9828 48.5705C39.0034 48.6476 39.0401 48.7195 39.0905 48.7814C39.1408 48.8433 39.2037 48.8939 39.2749 48.9298L44.6315 53.1388L44.6399 53.1366ZM59.7108 37.4398L59.9178 38.2125C59.3538 38.3247 58.8196 38.5539 58.3496 38.8852C57.8797 39.2166 57.4844 39.6429 57.1894 40.1365C56.8944 40.6301 56.7061 41.1801 56.6368 41.7509C56.5674 42.3218 56.6186 42.9008 56.7869 43.4507C57.2705 45.2555 57.754 47.0602 58.2376 48.865L58.4021 49.4787L57.6184 49.6887L54.7092 38.8317L55.482 38.6246L56.0781 40.8495C56.5912 38.9727 57.8929 37.9786 59.7171 37.4429L59.7108 37.4398ZM23.3855 52.6594L23.2739 50.8624C23.3187 47.2379 26.8066 44.8001 30.0242 46.1756C31.9081 46.9807 32.7604 48.6083 33.2072 50.5798L24.4385 52.9294C25.2307 56.4524 28.3092 57.883 31.2379 55.947C32.1943 55.2767 32.7562 54.1819 32.7256 53.0168C32.7489 52.4239 33.0045 52.2547 33.5608 52.2754C33.6539 52.9656 33.5892 53.6679 33.3718 54.3295C33.1543 54.9911 32.7897 55.5948 32.3053 56.0952C31.4917 56.872 30.4532 57.3716 29.3385 57.5227C28.2238 57.6737 27.0898 57.4684 26.0988 56.9362C25.0799 56.2657 24.3091 55.2796 23.9021 54.1291C23.8503 53.9359 23.7376 53.7728 23.646 53.6111C23.5546 53.2872 23.4673 52.9701 23.3842 52.6597L23.3855 52.6594ZM24.2483 52.1756L32.1779 50.0508C31.4514 47.5379 29.3768 46.173 27.246 46.726C24.8702 47.3281 23.6463 49.5347 24.2396 52.1662L24.2483 52.1756Z" fill="black"/>
</g>
</g>
</g>
<defs>
<filter id="filter0_i_427_13328" x="0.889648" y="0.941711" width="112.467" height="85.1254" filterUnits="userSpaceOnUse" color-interpolation-filters="sRGB">
<feFlood flood-opacity="0" result="BackgroundImageFix"/>
<feBlend mode="normal" in="SourceGraphic" in2="BackgroundImageFix" result="shape"/>
<feColorMatrix in="SourceAlpha" type="matrix" values="0 0 0 0 0 0 0 0 0 0 0 0 0 0 0 0 0 0 127 0" result="hardAlpha"/>
<feMorphology radius="2" operator="erode" in="SourceAlpha" result="effect1_innerShadow_427_13328"/>
<feOffset/>
<feGaussianBlur stdDeviation="7.5"/>
<feComposite in2="hardAlpha" operator="arithmetic" k2="-1" k3="1"/>
<feColorMatrix type="matrix" values="0 0 0 0 0 0 0 0 0 0 0 0 0 0 0 0 0 0 0.25 0"/>
<feBlend mode="normal" in2="shape" result="effect1_innerShadow_427_13328"/>
</filter>
<clipPath id="clip0_427_13328">
<rect x="0.889648" y="26.8236" width="100" height="61.3333" rx="12" transform="rotate(-15 0.889648 26.8236)" fill="white"/>
</clipPath>
<clipPath id="clip1_427_13328">
<rect width="80" height="40" fill="white" transform="translate(13.3096 34.5386) rotate(-15)"/>
</clipPath>
</defs>
</svg>
