<svg width="113" height="86" viewBox="0 0 113 86" fill="none" xmlns="http://www.w3.org/2000/svg">
<g filter="url(#filter0_i_427_14159)">
<g clip-path="url(#clip0_427_14159)">
<rect y="25.8819" width="100" height="61.3333" rx="12" transform="rotate(-15 0 25.8819)" fill="#FCFFFC"/>
<g clip-path="url(#clip1_427_14159)">
<path d="M33.2863 65.1607C36.1089 64.4044 37.7864 61.499 37.03 58.6764L35.6597 53.5623L30.5457 54.9326C27.723 55.6889 26.0456 58.5943 26.8019 61.417C27.5583 64.2396 30.4636 65.917 33.2863 65.1607Z" fill="#0ACF83"/>
<path d="M24.0544 51.1849C23.2981 48.3623 24.9755 45.4569 27.7981 44.7006L32.9122 43.3303L35.6542 53.5637L30.5402 54.934C27.7175 55.6904 24.8121 54.0129 24.0558 51.1903L24.0544 51.1849Z" fill="#A259FF"/>
<path d="M21.3127 40.9515C20.5564 38.1289 22.2338 35.2235 25.0564 34.4672L30.1705 33.0969L32.9125 43.3303L27.7985 44.7006C24.9758 45.4569 22.0705 43.7795 21.3141 40.9569L21.3127 40.9515Z" fill="#F24E1E"/>
<path d="M30.1274 33.1084L35.2415 31.7381C38.0641 30.9817 40.9695 32.6592 41.7258 35.4818C42.4822 38.3045 40.8047 41.2098 37.9821 41.9661L32.868 43.3364L30.1274 33.1084Z" fill="#FF7262"/>
<path d="M44.5217 45.7009C45.278 48.5235 43.6006 51.4289 40.7779 52.1852C37.9553 52.9415 34.9963 51.2785 34.2399 48.4558C33.4836 45.6332 35.161 42.7278 37.9837 41.9715C40.8063 41.2152 43.7117 42.8926 44.468 45.7152L44.5217 45.7009Z" fill="#1ABCFE"/>
<path d="M48.2725 37.3338L51.1454 48.0555L52.5245 47.686L51.1527 42.5666L54.4691 41.678L54.1125 40.3472L50.7961 41.2358L50.0111 38.3058L54.3202 37.1512L53.9607 35.8096L48.2725 37.3338ZM57.0398 37.3197C57.5388 37.186 57.8335 36.6757 57.6997 36.1766C57.566 35.6775 57.0647 35.438 56.571 35.5703C56.0773 35.7026 55.7773 36.2143 55.9111 36.7134C55.9758 36.9549 56.1328 37.1544 56.3519 37.2855C56.5711 37.4165 56.8209 37.4474 57.0678 37.3812L57.0398 37.3197ZM56.7045 38.8589L58.6313 46.0497L59.9567 45.6945L58.03 38.5038L56.6616 38.8704L56.7045 38.8589ZM63.1509 36.9016C61.3156 37.3933 60.4698 39.3454 60.9472 41.127C61.4246 42.9086 63.141 44.1626 64.9655 43.6738C65.3469 43.5787 65.7044 43.4053 66.0152 43.1646C66.326 42.9239 66.5833 42.6211 66.7707 42.2756L67.0266 43.2308C67.1766 43.8057 67.1015 44.4162 66.8168 44.9377C66.6715 45.1954 66.4761 45.4215 66.2422 45.6027C66.0082 45.7839 65.7405 45.9165 65.4546 45.9929C65.0121 46.0966 64.5488 46.0688 64.1218 45.9129L63.7449 47.2965C64.3729 47.4975 65.0436 47.5254 65.6861 47.3772C66.3287 47.2291 66.9194 46.9104 67.3961 46.4547C67.8728 45.9991 68.2177 45.4233 68.3947 44.7881C68.5716 44.1528 68.5739 43.4816 68.4014 42.8451L66.6185 36.191L65.2393 36.5605L65.4119 37.2045C65.0768 36.9989 64.7026 36.8654 64.3131 36.8123C63.9236 36.7593 63.5288 36.7932 63.1509 36.9016ZM62.3317 40.756C62.2068 40.4156 62.1796 40.047 62.2532 39.6919C62.3267 39.3367 62.4981 39.0093 62.748 38.7465C63.2591 38.2069 64.0265 38.0013 64.7335 38.2145C65.4406 38.4276 65.968 39.0225 66.0988 39.7466C66.2237 40.0871 66.2509 40.4557 66.1774 40.8108C66.1038 41.1659 65.9324 41.4934 65.6825 41.7562C65.1714 42.2957 64.404 42.5014 63.697 42.2882C62.99 42.075 62.4625 41.4802 62.3317 40.756Z" fill="black"/>
<path d="M71.9153 36.0601C71.5191 36.1678 71.1815 36.4278 70.9761 36.7834C70.7708 37.1391 70.7145 37.5615 70.8193 37.9585L72.0386 42.5091L70.6595 42.8786L68.7328 35.6878L70.1119 35.3183L70.2744 35.9247C70.5434 35.2544 71.1225 34.7541 71.823 34.578C72.6973 34.3207 73.6449 34.5729 74.2852 35.2238C74.6205 34.3288 75.271 33.6656 76.1053 33.4305C77.6776 33.0092 78.9936 34.014 79.4188 35.5795L80.6453 40.1569L79.2662 40.5264L78.044 35.9651C78.0083 35.6701 77.8889 35.3916 77.6998 35.1624C77.5108 34.9331 77.26 34.7628 76.9773 34.6716C76.6945 34.5804 76.3915 34.5721 76.1042 34.6477C75.8168 34.7232 75.5571 34.8795 75.3558 35.098C75.1568 35.3198 75.0257 35.5941 74.978 35.8883C74.9304 36.1825 74.9683 36.4841 75.0872 36.7574L76.3065 41.308L74.9811 41.6631L73.7632 37.1179C73.6555 36.7216 73.3955 36.384 73.0399 36.1787C72.6842 35.9734 72.2618 35.917 71.8648 36.0219L71.9153 36.0601ZM86.3036 31.8022C85.9019 31.5587 85.4547 31.4 84.9894 31.3358C84.5241 31.2715 84.0506 31.3031 83.598 31.4286C81.5427 31.9793 80.5758 34.1019 81.1165 36.1196C81.6571 38.1373 83.5719 39.4878 85.6111 38.9414C86.0658 38.8237 86.4916 38.6143 86.8624 38.3261C87.2333 38.0378 87.5412 37.6767 87.7673 37.265L87.9859 38.0807L89.365 37.7112L87.4383 30.5204L86.0591 30.8899L86.3036 31.8022ZM82.49 35.8148C82.1901 34.9749 82.3873 34.0364 83.0017 33.3886C83.616 32.7409 84.4907 32.5065 85.395 32.7473C85.8135 32.8739 86.1893 33.1129 86.4813 33.4383C86.7734 33.7637 86.9705 34.1629 87.0513 34.5926C87.3511 35.4326 87.154 36.3711 86.5396 37.0189C85.9252 37.6666 85.0505 37.901 84.1462 37.6602C83.7277 37.5336 83.352 37.2946 83.0599 36.9692C82.7679 36.6438 82.5707 36.2446 82.49 35.8148Z" fill="black"/>
</g>
</g>
</g>
<defs>
<filter id="filter0_i_427_14159" x="0" y="0" width="112.467" height="85.1253" filterUnits="userSpaceOnUse" color-interpolation-filters="sRGB">
<feFlood flood-opacity="0" result="BackgroundImageFix"/>
<feBlend mode="normal" in="SourceGraphic" in2="BackgroundImageFix" result="shape"/>
<feColorMatrix in="SourceAlpha" type="matrix" values="0 0 0 0 0 0 0 0 0 0 0 0 0 0 0 0 0 0 127 0" result="hardAlpha"/>
<feMorphology radius="2" operator="erode" in="SourceAlpha" result="effect1_innerShadow_427_14159"/>
<feOffset/>
<feGaussianBlur stdDeviation="7.5"/>
<feComposite in2="hardAlpha" operator="arithmetic" k2="-1" k3="1"/>
<feColorMatrix type="matrix" values="0 0 0 0 0 0 0 0 0 0 0 0 0 0 0 0 0 0 0.25 0"/>
<feBlend mode="normal" in2="shape" result="effect1_innerShadow_427_14159"/>
</filter>
<clipPath id="clip0_427_14159">
<rect y="25.8819" width="100" height="61.3333" rx="12" transform="rotate(-15 0 25.8819)" fill="white"/>
</clipPath>
<clipPath id="clip1_427_14159">
<rect width="80" height="40" fill="white" transform="translate(12.4199 33.5969) rotate(-15)"/>
</clipPath>
</defs>
</svg>
