<svg width="114" height="87" viewBox="0 0 114 87" fill="none" xmlns="http://www.w3.org/2000/svg">
<g filter="url(#filter0_i_427_14127)">
<g clip-path="url(#clip0_427_14127)">
<rect x="0.834473" y="26.7945" width="100" height="61.3333" rx="12" transform="rotate(-15 0.834473 26.7945)" fill="#12100E"/>
<g clip-path="url(#clip1_427_14127)">
<mask id="mask0_427_14127" style="mask-type:luminance" maskUnits="userSpaceOnUse" x="20" y="33" width="26" height="30">
<path d="M41.6334 45.935L36.5175 54.7996L45.3803 59.9186L37.3936 62.0586L28.5283 56.9403L33.6467 48.075L41.6334 45.935ZM30.4363 36.0937L20.9334 52.5532L25.9983 55.4775L38.423 33.9537L30.4363 36.0937Z" fill="white"/>
</mask>
<g mask="url(#mask0_427_14127)">
<path d="M33.5931 59.8645L41.6332 45.935L33.6465 48.075L28.5307 56.9396L33.5931 59.8645Z" fill="#39CEFD"/>
</g>
<mask id="mask1_427_14127" style="mask-type:luminance" maskUnits="userSpaceOnUse" x="20" y="33" width="26" height="30">
<path d="M41.6334 45.935L36.5175 54.7996L45.3803 59.9186L37.3936 62.0586L28.5283 56.9403L33.6467 48.075L41.6334 45.935ZM30.4363 36.0937L20.9334 52.5532L25.9983 55.4775L38.423 33.9537L30.4363 36.0937Z" fill="white"/>
</mask>
<g mask="url(#mask1_427_14127)">
<path d="M20.9334 52.5532L30.4363 36.0937L38.423 33.9537L25.9983 55.4775L20.9334 52.5532Z" fill="#39CEFD"/>
</g>
<mask id="mask2_427_14127" style="mask-type:luminance" maskUnits="userSpaceOnUse" x="20" y="33" width="26" height="30">
<path d="M41.6334 45.935L36.5175 54.7996L45.3803 59.9186L37.3936 62.0586L28.5283 56.9403L33.6467 48.075L41.6334 45.935ZM30.4363 36.0937L20.9334 52.5532L25.9983 55.4775L38.423 33.9537L30.4363 36.0937Z" fill="white"/>
</mask>
<g mask="url(#mask2_427_14127)">
<path d="M37.3929 62.0561L45.3796 59.9161L36.5176 54.7996L33.5933 59.8645L37.3929 62.0561Z" fill="#03569B"/>
</g>
<mask id="mask3_427_14127" style="mask-type:luminance" maskUnits="userSpaceOnUse" x="20" y="33" width="26" height="30">
<path d="M41.6334 45.935L36.5175 54.7996L45.3803 59.9186L37.3936 62.0586L28.5283 56.9403L33.6467 48.075L41.6334 45.935ZM30.4363 36.0937L20.9334 52.5532L25.9983 55.4775L38.423 33.9537L30.4363 36.0937Z" fill="white"/>
</mask>
<g mask="url(#mask3_427_14127)">
<path d="M36.5176 54.7996L33.5933 59.8645L38.9678 56.2248L36.5176 54.7996Z" fill="url(#paint0_linear_427_14127)"/>
</g>
<mask id="mask4_427_14127" style="mask-type:luminance" maskUnits="userSpaceOnUse" x="20" y="33" width="26" height="30">
<path d="M41.6334 45.935L36.5175 54.7996L45.3803 59.9186L37.3936 62.0586L28.5283 56.9403L33.6467 48.075L41.6334 45.935ZM30.4363 36.0937L20.9334 52.5532L25.9983 55.4775L38.423 33.9537L30.4363 36.0937Z" fill="white"/>
</mask>
<g mask="url(#mask4_427_14127)">
<path d="M28.5299 56.9383L31.4542 51.8732L36.5195 54.7975L33.5949 59.8627L28.5299 56.9383Z" fill="#16B9FD"/>
</g>
<path d="M41.6334 45.935L36.5175 54.7996L45.3803 59.9186L37.3936 62.0586L28.5283 56.9403L33.6467 48.075L41.6334 45.935ZM30.4363 36.0937L20.9334 52.5532L25.9983 55.4775L38.423 33.9537L30.4363 36.0937Z" fill="url(#paint1_radial_427_14127)"/>
<path d="M42.8237 40.2342L49.8042 38.3638L50.17 39.729L44.6062 41.2198L45.7129 45.3501L50.7357 44.0042L51.0971 45.3526L46.0742 46.6985L47.4745 51.9242L46.0578 52.3038L42.8237 40.2342ZM51.4932 37.9112L52.926 37.5273L56.1602 49.5975L54.7274 49.9814L51.4932 37.9112ZM61.4743 48.4628C60.4405 48.7398 59.565 48.6491 58.8477 48.1907C58.1482 47.7233 57.653 46.9466 57.362 45.8605L55.9121 40.4493L57.3448 40.0654L58.7361 45.2576C58.9546 46.0733 59.3011 46.6246 59.7756 46.9116C60.25 47.1986 60.8019 47.2577 61.4313 47.0891C61.9147 46.9596 62.3094 46.7153 62.6153 46.3564C62.9324 45.9944 63.1341 45.5792 63.2202 45.1107C63.322 44.6371 63.3112 44.1702 63.1879 43.71L61.8869 38.8546L63.319 38.4709L65.6225 47.0676L64.2574 47.4334L63.9216 46.1803L63.854 46.1984C63.7323 46.6888 63.4522 47.1492 63.0135 47.5797C62.5748 48.0101 62.0632 48.3036 61.4784 48.4603L61.4743 48.4628Z" fill="#808080"/>
<path d="M71.172 45.72C70.8234 45.8134 70.4825 45.8445 70.1492 45.8132C69.8272 45.779 69.5392 45.6935 69.2854 45.5567C69.0033 45.4036 68.7685 45.2015 68.5811 44.9503C68.3934 44.6997 68.2453 44.372 68.1369 43.9672L66.7864 38.927L65.2859 39.329L64.9381 38.0308L66.4385 37.6287L65.788 35.2011L67.2208 34.8171L67.8713 37.2448L69.9616 36.6848L70.3094 37.983L68.2191 38.543L69.4749 43.2297C69.6015 43.7019 69.785 44.0262 70.0254 44.2024C70.3051 44.3925 70.6473 44.4333 71.0521 44.3248C71.3784 44.2374 71.6675 44.0576 71.9194 43.7853L72.2943 45.1846C72.1466 45.3084 71.9874 45.4113 71.8166 45.4934C71.6571 45.573 71.4428 45.6488 71.1736 45.721L71.172 45.72Z" fill="#808080"/>
<path d="M77.2486 44.0918C76.9 44.1852 76.5591 44.2163 76.2259 44.185C75.9038 44.1508 75.6159 44.0653 75.3621 43.9285C75.08 43.7755 74.8452 43.5733 74.6578 43.3222C74.4701 43.0715 74.322 42.7438 74.2135 42.339L72.863 37.2988L71.3626 37.7008L71.0148 36.4026L72.5152 36.0006L71.8647 33.5729L73.2975 33.189L73.948 35.6167L76.0382 35.0566L76.3861 36.3548L74.2958 36.9149L75.5516 41.6015C75.6781 42.0738 75.8616 42.398 76.1021 42.5742C76.3817 42.7643 76.7239 42.8051 77.1288 42.6966C77.455 42.6092 77.7441 42.4294 77.996 42.1571L78.371 43.5564C78.2233 43.6802 78.0641 43.7832 77.8933 43.8653C77.7338 43.9448 77.5194 44.0207 77.2503 44.0928L77.2486 44.0918Z" fill="#808080"/>
<path d="M83.5951 42.5355C82.7795 42.754 81.9905 42.7547 81.2283 42.5375C80.4713 42.3188 79.8154 41.9164 79.2608 41.3302C78.7144 40.7299 78.3251 39.9967 78.0931 39.1308C77.8703 38.2993 77.8341 37.49 77.9844 36.7029C78.1463 35.9128 78.4862 35.2254 79.004 34.6407C79.5218 34.0557 80.1965 33.6517 81.028 33.4289C81.8708 33.2031 82.653 33.2006 83.3747 33.4213C84.0923 33.6266 84.703 34.0169 85.2069 34.5923C85.7216 35.1653 86.0934 35.8787 86.3222 36.7326C86.3674 36.9013 86.3893 37.0519 86.388 37.1843L79.5943 39.0047C79.8033 39.6471 80.1082 40.1558 80.5091 40.5306C80.9103 40.9048 81.3547 41.1469 81.8425 41.2569C82.3406 41.3645 82.8258 41.355 83.2981 41.2285C84.3997 40.9333 85.1097 40.1891 85.4281 38.9958L86.8 39.2604C86.6158 40.0565 86.2577 40.7428 85.7256 41.3193C85.2046 41.8923 84.4947 42.2993 83.5957 42.5402L83.5951 42.5355ZM84.605 36.3928C84.4863 36.039 84.2891 35.7065 84.0134 35.3953C83.7367 35.0838 83.3688 34.8571 82.9097 34.7151C82.4571 34.5713 81.941 34.5771 81.3614 34.7324C80.6874 34.913 80.173 35.2855 79.8181 35.8499C79.4719 36.4005 79.3205 37.0494 79.3637 37.7965L84.6068 36.3916L84.605 36.3928ZM86.8743 32.153L88.2395 31.7872L88.61 33.1698L88.6776 33.1516C88.7198 32.6342 88.9417 32.1592 89.3435 31.7267C89.7426 31.2825 90.2061 30.9897 90.7342 30.8482C91.1274 30.7428 91.4795 30.7088 91.7904 30.746L92.2059 32.2967C91.7978 32.2127 91.369 32.231 90.9195 32.3514C90.5031 32.463 90.1527 32.6835 89.8682 33.0127C89.5829 33.3423 89.3897 33.7373 89.2885 34.1978C89.1921 34.6451 89.2063 35.1015 89.331 35.5668L90.6181 40.3707L89.1854 40.7546L86.8819 32.1579L86.8743 32.153Z" fill="#808080"/>
</g>
</g>
</g>
<defs>
<filter id="filter0_i_427_14127" x="0.834473" y="0.912598" width="112.467" height="85.1254" filterUnits="userSpaceOnUse" color-interpolation-filters="sRGB">
<feFlood flood-opacity="0" result="BackgroundImageFix"/>
<feBlend mode="normal" in="SourceGraphic" in2="BackgroundImageFix" result="shape"/>
<feColorMatrix in="SourceAlpha" type="matrix" values="0 0 0 0 0 0 0 0 0 0 0 0 0 0 0 0 0 0 127 0" result="hardAlpha"/>
<feMorphology radius="2" operator="erode" in="SourceAlpha" result="effect1_innerShadow_427_14127"/>
<feOffset/>
<feGaussianBlur stdDeviation="7.5"/>
<feComposite in2="hardAlpha" operator="arithmetic" k2="-1" k3="1"/>
<feColorMatrix type="matrix" values="0 0 0 0 1 0 0 0 0 1 0 0 0 0 1 0 0 0 0.25 0"/>
<feBlend mode="normal" in2="shape" result="effect1_innerShadow_427_14127"/>
</filter>
<linearGradient id="paint0_linear_427_14127" x1="34.9656" y1="60.3231" x2="37.1435" y2="56.5508" gradientUnits="userSpaceOnUse">
<stop stop-color="#1A237E" stop-opacity="0.4"/>
<stop offset="1" stop-color="#1A237E" stop-opacity="0"/>
</linearGradient>
<radialGradient id="paint1_radial_427_14127" cx="0" cy="0" r="1" gradientUnits="userSpaceOnUse" gradientTransform="translate(18.5183 41.1839) rotate(-15) scale(32.8854)">
<stop stop-color="white" stop-opacity="0.1"/>
<stop offset="1" stop-color="white" stop-opacity="0"/>
</radialGradient>
<clipPath id="clip0_427_14127">
<rect x="0.834473" y="26.7945" width="100" height="61.3333" rx="12" transform="rotate(-15 0.834473 26.7945)" fill="white"/>
</clipPath>
<clipPath id="clip1_427_14127">
<rect width="80" height="40" fill="white" transform="translate(13.2544 34.5095) rotate(-15)"/>
</clipPath>
</defs>
</svg>
