<svg width="113" height="86" viewBox="0 0 113 86" fill="none" xmlns="http://www.w3.org/2000/svg">
<g filter="url(#filter0_i_427_13338)">
<rect y="25.8819" width="100" height="61.3333" rx="12" transform="rotate(-15 0 25.8819)" fill="#FCFFFC"/>
<g clip-path="url(#clip0_427_13338)">
<path d="M61.4233 36.3342C61.9567 36.9775 62.5243 37.592 63.0554 38.2374C64.0776 39.4794 64.9661 40.8418 65.5817 42.3277C66.1974 43.8136 66.5353 45.4279 66.4499 47.0336C66.3526 48.8465 65.7172 50.6064 64.7771 52.1593C63.665 53.9965 62.0401 55.6184 59.9892 56.2556C58.6528 56.6706 57.2047 56.6448 55.84 56.3357C54.6931 56.076 53.5866 55.6169 52.6218 54.9447C51.657 54.2725 50.8363 53.3841 50.2878 52.3439C49.6123 51.063 49.3646 49.5774 49.4807 48.134C49.5637 47.1017 49.8259 46.0911 49.9293 45.0607C50.0424 43.9348 49.9659 42.7853 50.2199 41.6826C50.45 40.6829 50.9466 39.7485 51.0705 38.7301C51.1445 38.1219 51.0824 37.5065 51.0712 36.8939C51.0601 36.2812 51.105 35.649 51.3742 35.0986C51.6988 34.4353 52.3256 33.955 53.0121 33.6833C53.6986 33.4117 54.4453 33.33 55.1831 33.3023C55.7705 33.2802 56.3593 33.2905 56.9452 33.3374C57.4453 33.3775 57.9484 33.4454 58.4185 33.6206C59.0591 33.8593 59.6133 34.2885 60.0935 34.7751C60.5738 35.2616 60.9879 35.8079 61.4243 36.3341L61.4233 36.3342Z" fill="#020204"/>
<path d="M60.363 56.1693C60.9409 56.05 61.5237 55.953 62.1104 55.8871C62.6264 55.8295 63.1447 55.7947 63.6638 55.7827C64.4766 55.7632 65.3004 55.7953 66.0915 55.6073C66.2997 55.5578 66.5044 55.4931 66.6952 55.3938C66.8859 55.2946 67.0587 55.1606 67.1859 54.9884C67.3755 54.7317 67.45 54.4011 67.4264 54.0826C67.4028 53.7642 67.2822 53.4586 67.1143 53.1871C66.7787 52.6443 66.2625 52.2426 65.8063 51.797C65.5444 51.542 65.2991 51.2698 65.0248 51.0283C64.7505 50.7869 64.4429 50.5743 64.0947 50.4625C63.6132 50.3078 63.0811 50.3579 62.6081 50.5366C62.1351 50.7152 61.7162 51.0156 61.3427 51.3565C60.8191 51.8341 60.3626 52.4197 60.1917 53.1076C60.1322 53.347 60.1085 53.5934 60.0687 53.8369C60.0289 54.0805 59.9715 54.325 59.8513 54.5404C59.7172 54.7806 59.5114 54.9734 59.3692 55.2088C59.2984 55.3276 59.243 55.4561 59.228 55.5924C59.213 55.7287 59.2376 55.8733 59.3158 55.9864C59.3696 56.064 59.4459 56.1243 59.5311 56.1649C59.6163 56.2055 59.7098 56.2268 59.8038 56.2338C59.9918 56.2482 60.1794 56.2075 60.364 56.1693L60.363 56.1693Z" fill="#020204"/>
<path d="M58.6617 56.5858C58.1903 56.7239 57.7437 56.9345 57.306 57.1547C56.8865 57.3655 56.4719 57.5861 56.064 57.8188C55.3759 58.2115 54.6972 58.6427 53.9364 58.864C53.7362 58.9221 53.5305 58.9656 53.322 58.9727C53.1136 58.9799 52.902 58.95 52.7108 58.8666C52.4189 58.7392 52.1884 58.4909 52.0508 58.2037C51.9132 57.9166 51.8635 57.5926 51.8722 57.2742C51.8897 56.6374 52.131 56.0316 52.2966 55.4166C52.3907 55.067 52.461 54.711 52.5716 54.3663C52.6823 54.0216 52.8366 53.6846 53.0773 53.4142C53.4052 53.0457 53.878 52.824 54.3647 52.7436C54.8514 52.6632 55.3526 52.7162 55.832 52.8326C56.5088 52.9969 57.1669 53.2962 57.6633 53.7835C58.0117 54.126 58.2745 54.554 58.6563 54.859C58.8619 55.0233 59.0999 55.1489 59.2833 55.3367C59.3756 55.4304 59.4542 55.5399 59.4988 55.6638C59.5434 55.7877 59.5525 55.9264 59.5093 56.0508C59.4809 56.133 59.4306 56.2068 59.3687 56.2679C59.3068 56.3289 59.2335 56.3778 59.1558 56.417C58.9995 56.4957 58.8294 56.5355 58.6623 56.5847L58.6617 56.5858ZM50.7196 37.5462C50.4381 36.7622 50.237 35.9519 49.9925 35.1555C49.7566 34.3901 49.4783 33.6364 49.2971 32.8561C49.1129 32.0627 49.0313 31.2307 49.192 30.4302C49.3528 29.6297 49.7613 28.8796 50.3548 28.3198C50.9124 27.7933 51.6238 27.4416 52.3676 27.2509C53.3763 26.9924 54.4658 27.026 55.4381 27.3978C56.0478 27.6306 56.6048 27.992 57.086 28.4327C57.4965 28.809 57.8538 29.2443 58.134 29.7265C58.7086 30.7148 58.9407 31.8556 59.2922 32.9422C59.6253 33.972 60.0715 34.9689 60.2943 36.0282C60.3429 36.2591 60.3804 36.4968 60.3338 36.7273C60.2884 36.9518 60.1639 37.1559 60.0012 37.3173C59.8385 37.4787 59.639 37.5991 59.4294 37.6914C59.0102 37.876 58.551 37.9514 58.1214 38.1103C57.4978 38.3409 56.9515 38.7415 56.3432 39.0097C55.6193 39.329 54.8255 39.453 54.0526 39.6272C53.7431 39.6971 53.4348 39.7756 53.1206 39.8189C52.8064 39.8621 52.4833 39.8699 52.1742 39.7981C51.9849 39.7537 51.7994 39.6795 51.637 39.5706C51.4745 39.4616 51.3344 39.319 51.2379 39.1478C51.0933 38.8923 51.0533 38.5933 50.9783 38.3094C50.9099 38.0499 50.8105 37.7996 50.7187 37.5473L50.7196 37.5462Z" fill="#020204"/>
<path d="M51.8404 36.9148C51.7685 37.0793 51.7417 37.2614 51.7441 37.4412C51.7466 37.6209 51.7777 37.799 51.8174 37.9742C51.8972 38.3247 52.013 38.6726 52.011 39.0319C52.0087 39.4162 51.8718 39.7852 51.7374 40.1452C51.5046 40.7687 51.2714 41.4067 51.2526 42.0718C51.2411 42.4746 51.3098 42.8796 51.4537 43.256C51.2005 43.981 51.0133 44.7291 50.8959 45.488C50.7177 46.6383 50.6997 47.8169 50.8899 48.965C51.123 50.371 51.6758 51.7332 52.556 52.8541C53.1924 53.6646 54.0002 54.3461 54.9269 54.7968C55.3981 55.026 55.8986 55.1951 56.4136 55.2963C58.1949 55.6482 60.1404 55.1283 61.4673 53.889C62.1607 53.2412 62.6747 52.4279 63.162 51.6138C63.4556 51.1235 63.7446 50.6247 63.9233 50.0818C64.2673 49.0368 64.1805 47.9019 64.0238 46.813C63.7498 44.9089 63.2346 42.958 61.9775 41.5019C61.5436 40.9997 61.0323 40.5699 60.463 40.2287C60.1289 39.4555 59.6838 38.7301 59.1457 38.082C58.7576 37.6143 58.3217 37.187 57.9489 36.7071C57.7959 36.51 57.6526 36.3047 57.4916 36.1147C57.3306 35.9248 57.1455 35.75 56.9266 35.6301C56.7026 35.5072 56.4481 35.4459 56.1929 35.4313C55.9377 35.4167 55.6816 35.4477 55.4321 35.5013C54.9324 35.6086 54.4556 35.8054 53.9573 35.918C53.5605 36.0077 53.1506 36.0436 52.7645 36.1719C52.5714 36.2361 52.3848 36.3236 52.2226 36.4463C52.0603 36.5691 51.923 36.7281 51.8416 36.9144L51.8404 36.9148Z" fill="#FDFDFB"/>
<g filter="url(#filter1_f_427_13338)">
<path d="M52.0915 38.8198C52.4046 39.2835 52.876 39.6245 53.3869 39.8526C53.5569 39.9285 53.733 39.9932 53.9167 40.023C54.1003 40.0529 54.2925 40.0465 54.4674 39.9833C54.6388 39.9214 54.7871 39.8078 54.9173 39.6802C55.0476 39.5526 55.1616 39.4099 55.2851 39.2759C55.4967 39.0462 55.7346 38.8427 55.9603 38.627C56.2324 38.367 56.4885 38.0863 56.6916 37.7701C56.7844 37.6249 56.8663 37.4718 56.9762 37.339C57.0861 37.2062 57.2299 37.0929 57.399 37.0597C57.5259 37.0348 57.6569 37.0565 57.7859 37.0501C57.8515 37.0466 57.9153 37.0365 57.9745 37.0104C58.0338 36.9843 58.0871 36.9421 58.1183 36.8854C58.1565 36.8161 58.1584 36.7305 58.1341 36.6549C58.1099 36.5794 58.0645 36.5125 58.0105 36.4544C57.9029 36.3382 57.7635 36.2506 57.6765 36.1183C57.599 36.0004 57.5703 35.8584 57.5376 35.7215C57.5049 35.5845 57.4638 35.443 57.3686 35.3391C57.2961 35.2598 57.1965 35.2083 57.0918 35.1843C56.9871 35.1604 56.8779 35.164 56.772 35.1809C56.5604 35.2168 56.3643 35.3123 56.1605 35.3794C55.8898 35.4686 55.6048 35.5082 55.3345 35.5983C54.9976 35.7108 54.6883 35.9001 54.3452 35.9927C53.9537 36.0984 53.5281 36.075 53.1575 36.24C52.9985 36.3107 52.8564 36.4136 52.7112 36.5095C52.566 36.6054 52.4139 36.6964 52.2452 36.739C52.0537 36.7874 51.8512 36.7709 51.6572 36.8082C51.5601 36.8269 51.4645 36.8598 51.3841 36.9172C51.3036 36.9746 51.2395 37.0584 51.2184 37.1549C51.2063 37.2102 51.2085 37.2681 51.2208 37.3234C51.233 37.3786 51.2552 37.4313 51.2827 37.4809C51.3375 37.58 51.4126 37.666 51.4788 37.7574C51.7214 38.0864 51.8603 38.481 52.0892 38.8198L52.0915 38.8198Z" fill="black" fill-opacity="0.26"/>
</g>
<g opacity="0.3" filter="url(#filter2_f_427_13338)">
<path d="M51.2101 37.4953C51.609 37.6152 51.9858 37.7925 52.3231 38.0195C52.6361 38.2303 52.9231 38.4874 53.2901 38.6072C53.5493 38.6918 53.8361 38.7018 54.1115 38.6543C54.4351 38.5986 54.742 38.4663 55.0243 38.3023C55.286 38.1502 55.5299 37.9697 55.7422 37.7606C56.1455 37.3628 56.4368 36.8602 56.9128 36.5422C57.0169 36.4728 57.1288 36.4131 57.2263 36.3356C57.3239 36.2582 57.4085 36.1588 57.4341 36.0432C57.4597 35.932 57.4265 35.8203 57.4144 35.7089C57.4013 35.5898 57.4114 35.4684 57.4026 35.3488C57.3938 35.2292 57.3638 35.1067 57.2825 35.0163C57.215 34.9415 57.1162 34.8946 57.012 34.8758C56.9077 34.8571 56.7984 34.8652 56.6933 34.8883C56.4832 34.9344 56.2912 35.0384 56.089 35.1113C55.821 35.2078 55.5362 35.2492 55.2631 35.3305C54.9234 35.4318 54.6053 35.5936 54.2672 35.7001C53.8815 35.8216 53.477 35.8691 53.0832 35.9611C52.9129 36.0009 52.7436 36.0491 52.5843 36.1207C52.4251 36.1922 52.2755 36.2874 52.1576 36.4113C52.0435 36.5315 51.9624 36.6747 51.8634 36.8058C51.8138 36.8713 51.7594 36.9342 51.6955 36.9881C51.6317 37.042 51.5579 37.0868 51.4771 37.1123C51.4355 37.1255 51.3921 37.1336 51.3521 37.1506C51.3186 37.1654 51.2884 37.186 51.2631 37.2114C51.2378 37.2368 51.2179 37.2664 51.2046 37.2985C51.1914 37.3306 51.185 37.3645 51.1858 37.3984C51.1866 37.4323 51.1946 37.4654 51.2093 37.4958L51.2101 37.4953Z" fill="black"/>
</g>
<path d="M50.849 32.5836C50.6675 32.643 50.5139 32.7754 50.4128 32.9375C50.3118 33.0995 50.2611 33.29 50.2494 33.4807C50.2263 33.8622 50.3544 34.2346 50.4792 34.5946C50.5926 34.9215 50.7081 35.2546 50.9161 35.5313C51.02 35.6695 51.1465 35.7911 51.2957 35.8802C51.4449 35.9693 51.6164 36.0207 51.7892 36.0179C51.9515 36.0152 52.1117 35.9639 52.2486 35.8768C52.3855 35.7898 52.4991 35.6678 52.5817 35.5283C52.7023 35.3247 52.7563 35.0861 52.7605 34.8494C52.7647 34.6128 52.721 34.3774 52.6565 34.1498C52.5757 33.865 52.4615 33.5877 52.2991 33.3403C52.1368 33.0928 51.9253 32.8746 51.6709 32.7228C51.5478 32.6493 51.4142 32.5914 51.2734 32.5635C51.1326 32.5356 50.9846 32.5383 50.8483 32.5828L50.849 32.5836Z" fill="url(#paint0_radial_427_13338)"/>
<path d="M54.1101 31.7098C53.8751 31.9835 53.7082 32.3249 53.6783 32.685C53.6407 33.1388 53.8217 33.5869 54.0766 33.9644C54.3376 34.351 54.692 34.6911 55.1316 34.8474C55.3513 34.9256 55.5895 34.9557 55.8203 34.9224C56.0511 34.889 56.274 34.7903 56.4458 34.6328C56.6553 34.4407 56.7814 34.1688 56.83 33.8889C56.8785 33.609 56.8539 33.3202 56.7958 33.042C56.7229 32.6872 56.5926 32.3417 56.3892 32.042C56.1683 31.7164 55.8525 31.4461 55.4792 31.3247C55.2922 31.2641 55.0919 31.2417 54.8969 31.2662C54.7018 31.2906 54.5118 31.3624 54.3532 31.4786C54.2629 31.5449 54.1831 31.6247 54.1103 31.71L54.1101 31.7098Z" fill="url(#paint1_radial_427_13338)"/>
<g opacity="0.3" filter="url(#filter3_f_427_13338)">
<path d="M51.586 35.579L51.1845 36.2061C51.1162 36.3253 51.0494 36.4512 51.0412 36.5882C51.0339 36.71 51.0735 36.8294 51.0863 36.951C51.0908 36.9926 51.0921 37.0348 51.1027 37.0752C51.1078 37.0955 51.1159 37.115 51.1268 37.1328C51.1379 37.1506 51.1524 37.1662 51.1703 37.1773C51.1999 37.1957 51.2362 37.2003 51.2708 37.1981C51.3055 37.1959 51.3396 37.1876 51.374 37.1823C51.529 37.1582 51.6874 37.194 51.8352 37.2467L52.2742 37.4157C52.6047 37.5194 52.9637 37.5087 53.3016 37.4318C53.6395 37.3549 53.9595 37.2145 54.2701 37.0609C54.5169 36.9389 54.7604 36.8075 54.9816 36.6435C55.3206 36.3926 55.6005 36.0711 55.8616 35.74C55.9802 35.5896 56.0958 35.4363 56.1945 35.2721C56.228 35.2163 56.2596 35.1593 56.2974 35.1063C56.3351 35.0534 56.3796 35.0043 56.4342 34.969C56.5174 34.9153 56.6186 34.8972 56.7171 34.8876C56.7914 34.8805 56.867 34.8774 56.9382 34.855C56.9738 34.8439 57.0082 34.828 57.038 34.8056C57.0679 34.7832 57.0933 34.7542 57.1086 34.7202C57.1285 34.6748 57.1322 34.6241 57.1191 34.5763C57.1066 34.5289 57.0794 34.4861 57.0446 34.4516C56.9746 34.3827 56.8768 34.3498 56.7799 34.3345C56.6471 34.3135 56.5119 34.3221 56.3775 34.3253C55.965 34.3355 55.5513 34.2982 55.1467 34.2166C54.9456 34.176 54.7468 34.1246 54.5471 34.0778C54.3417 34.0297 54.1339 33.9863 53.923 33.9795C53.4517 33.9641 52.9867 34.1352 52.5966 34.3998C52.1631 34.6939 51.8102 35.1055 51.5856 35.5787L51.586 35.579Z" fill="black"/>
</g>
<path d="M52.3663 34.7831C52.494 34.5285 52.5519 34.2443 52.6708 33.9854C52.7304 33.856 52.8058 33.7325 52.9068 33.632C53.0079 33.5315 53.1358 33.4553 53.2761 33.4304C53.4321 33.4027 53.5954 33.4404 53.7351 33.5153C53.8748 33.5902 53.9934 33.7011 54.0963 33.8205C54.1951 33.9357 54.2831 34.0632 54.4051 34.1536C54.5352 34.25 54.6942 34.297 54.8431 34.3604C54.9177 34.392 54.9908 34.4284 55.0558 34.4764C55.1209 34.5243 55.1781 34.5851 55.2142 34.6576C55.2505 34.732 55.2656 34.8149 55.2579 34.8973C55.2508 34.979 55.2228 35.0588 55.1803 35.1292C55.0954 35.2701 54.9553 35.3714 54.804 35.4357C54.5014 35.5645 54.1581 35.556 53.843 35.65C53.5239 35.7449 53.2403 35.9428 52.9158 36.0171C52.7536 36.0542 52.5801 36.0587 52.4235 36.0023C52.3447 35.9745 52.2726 35.9305 52.2119 35.8731C52.1519 35.8155 52.1053 35.7431 52.0811 35.6636C52.058 35.5877 52.0554 35.5063 52.0672 35.4278C52.0789 35.3492 52.1048 35.2733 52.1375 35.2009C52.2029 35.0561 52.295 34.9251 52.3662 34.7832L52.3663 34.7831Z" fill="url(#paint2_radial_427_13338)"/>
<g filter="url(#filter4_f_427_13338)">
<path d="M54.4254 28.1308C54.2103 28.3891 54.3887 28.5917 54.5657 28.7957C54.7426 28.9998 54.5589 29.7737 54.5628 29.8038C54.5666 29.834 55.1892 29.2687 55.3213 28.9743C55.4773 28.6267 56.2445 29.1406 56.1853 29.0469C56.1366 28.864 54.6406 27.8726 54.4255 28.1308L54.4254 28.1308Z" fill="#7C7C7C"/>
</g>
<path d="M55.0063 32.4007C54.9003 32.4374 54.8048 32.5026 54.7288 32.5859C54.6529 32.6693 54.5953 32.7675 54.5578 32.8735C54.4829 33.0852 54.4876 33.3189 54.537 33.5378C54.5741 33.7022 54.6361 33.8622 54.7313 34.0014C54.8265 34.1406 54.9554 34.2585 55.1087 34.3286C55.2655 34.4005 55.4457 34.4206 55.6143 34.3839C55.7828 34.3472 55.9388 34.254 56.0498 34.1223C56.1384 34.0172 56.1983 33.8893 56.2296 33.7555C56.2608 33.6217 56.2639 33.4821 56.2457 33.3459C56.2138 33.1052 56.1144 32.8717 55.9511 32.6921C55.7877 32.5126 55.5595 32.3897 55.3178 32.3677C55.2131 32.358 55.1058 32.3673 55.0066 32.4016L55.0063 32.4007Z" fill="#020204"/>
<g filter="url(#filter5_f_427_13338)">
<path d="M55.4543 33.0408C55.3742 33.1002 55.2264 33.116 55.2108 33.2144C55.2015 33.2728 55.2573 33.3497 55.3158 33.357C55.4343 33.3719 55.5787 33.2489 55.5933 33.1302C55.5994 33.0787 55.5515 33.0128 55.5 33.0055C55.481 33.0028 55.4697 33.0291 55.4544 33.0406L55.4543 33.0408Z" fill="#141413"/>
</g>
<g filter="url(#filter6_f_427_13338)">
<path d="M55.9276 33.1636C56.0154 33.0114 55.7246 32.7478 55.5294 32.6604C55.388 32.597 55.0233 32.5886 55.0654 32.6877C55.1075 32.7867 55.2937 32.8777 55.4236 32.9506C55.5821 33.0407 55.886 33.2359 55.9276 33.1636Z" fill="url(#paint3_linear_427_13338)"/>
</g>
<mask id="mask0_427_13338" style="mask-type:luminance" maskUnits="userSpaceOnUse" x="53" y="31" width="4" height="4">
<path d="M54.11 31.7099C53.9055 32.0006 53.6987 32.3302 53.6782 32.685C53.6525 33.131 53.7565 33.6529 54.0765 33.9644C54.6645 34.5368 55.7418 35.0541 56.4457 34.6326C56.9115 34.3536 56.8419 33.5839 56.7956 33.0418C56.765 32.6833 56.6579 32.281 56.3891 32.0418C55.8631 31.5736 55.036 31.3072 54.353 31.4784C54.2445 31.5056 54.1742 31.6184 54.11 31.7099Z" fill="white"/>
</mask>
<g mask="url(#mask0_427_13338)">
<path d="M53.3045 33.0486C53.497 32.7768 53.7411 32.5457 54.0228 32.3681C54.6004 32.0049 55.3363 31.8901 55.9874 32.094C56.2122 32.1644 56.424 32.27 56.6405 32.363C56.8571 32.456 57.082 32.5375 57.3171 32.5555C57.4439 32.5652 57.5742 32.5557 57.6931 32.5102C57.8004 32.469 57.8961 32.399 57.9707 32.3116C58.0453 32.2241 58.0996 32.1198 58.1315 32.0093C58.1956 31.7884 58.1709 31.548 58.0918 31.3321C57.9336 30.9002 57.5792 30.5764 57.265 30.2407C57.1667 30.1355 57.0708 30.0273 56.9611 29.934C56.6245 29.6476 56.1765 29.5192 55.7354 29.4919C55.2942 29.4646 54.8534 29.5302 54.4155 29.5903C54.2202 29.6171 54.0224 29.6435 53.8395 29.7169C53.6292 29.8013 53.4483 29.9437 53.2508 30.0549C53.1571 30.1077 53.0594 30.1533 52.9674 30.2089C52.8754 30.2645 52.7881 30.3312 52.7243 30.4177C52.6312 30.5442 52.5948 30.7064 52.6023 30.8633C52.6097 31.0202 52.6585 31.1725 52.7222 31.316C52.8499 31.6029 53.0403 31.8655 53.1109 32.1715C53.1595 32.3816 53.1489 32.6035 53.2126 32.8096C53.2316 32.871 53.2563 32.9284 53.287 32.9837" fill="url(#paint4_linear_427_13338)"/>
</g>
<g filter="url(#filter7_f_427_13338)">
<path d="M54.8808 30.5899C54.8481 30.6652 54.8216 30.7446 54.8061 30.8284C55.0409 30.8167 55.2779 30.8512 55.501 30.9264C55.9331 31.0717 56.307 31.3532 56.6085 31.697C56.6405 31.6343 56.6676 31.5689 56.6872 31.4991C56.3803 31.1391 55.9962 30.8421 55.5492 30.6918C55.3344 30.6196 55.1068 30.5826 54.881 30.5903L54.8808 30.5899Z" fill="url(#paint5_linear_427_13338)"/>
</g>
<g filter="url(#filter8_f_427_13338)">
<path d="M50.6539 31.9393C50.6287 31.9455 50.605 31.9543 50.5802 31.9621L50.5323 31.9781C50.6821 31.9521 50.838 31.9525 50.9859 31.9763C51.1875 32.0088 51.3771 32.0814 51.552 32.175C51.8761 32.3482 52.1489 32.5962 52.3644 32.8789C52.2682 32.6474 52.1337 32.4338 51.9664 32.2471C51.8995 32.2018 51.831 32.1581 51.7591 32.1197C51.5843 32.0261 51.3945 31.9536 51.1929 31.9209C51.0167 31.8924 50.8297 31.8954 50.6538 31.9392L50.6539 31.9393Z" fill="url(#paint6_linear_427_13338)"/>
</g>
<path d="M50.814 34.2287C50.8377 34.4714 50.9016 34.7156 51.0408 34.9157C51.1318 35.0481 51.2553 35.1573 51.3916 35.2431C51.4809 35.2992 51.5776 35.3461 51.6812 35.3654C51.7849 35.3848 51.8962 35.375 51.9883 35.3238C52.0733 35.2767 52.1373 35.1963 52.1765 35.1074C52.2157 35.0185 52.2315 34.9204 52.2354 34.8233C52.2469 34.5363 52.1561 34.2499 52.0031 34.0068C51.8917 33.8296 51.7429 33.6698 51.5534 33.5809C51.463 33.5386 51.3635 33.5131 51.2637 33.5158C51.1638 33.5185 51.0636 33.5512 50.9865 33.6145C50.9009 33.6849 50.848 33.7895 50.8239 33.8976C50.7999 34.0057 50.8029 34.1184 50.8137 34.2286L50.814 34.2287Z" fill="#020204"/>
<g filter="url(#filter9_f_427_13338)">
<path d="M51.2603 33.929C51.3029 33.9878 51.3933 33.9891 51.4536 34.0296C51.5122 34.069 51.5733 34.1095 51.615 34.1666C51.6947 34.2756 51.6494 34.4812 51.7707 34.5407C51.8088 34.5593 51.8707 34.5434 51.8936 34.5078C51.9832 34.3682 51.8986 34.1578 51.8107 34.0171C51.731 33.8894 51.5906 33.786 51.4432 33.7546C51.375 33.7402 51.2782 33.7389 51.2385 33.7962C51.2129 33.833 51.234 33.8927 51.2603 33.929Z" fill="url(#paint7_linear_427_13338)"/>
</g>
<path d="M51.1546 37.2335C51.169 37.2624 51.1886 37.2888 51.2117 37.3114C51.2516 37.3501 51.3018 37.3767 51.3535 37.3965C51.4053 37.4163 51.4594 37.4302 51.5124 37.4465C51.7946 37.5336 52.0485 37.6943 52.2837 37.8727C52.5992 38.1122 52.8966 38.3921 53.2688 38.5281C53.5316 38.624 53.8199 38.6415 54.096 38.5965C54.42 38.5437 54.7261 38.407 55.0065 38.2359C55.2663 38.0772 55.5078 37.8875 55.7168 37.6663C56.1141 37.2453 56.3962 36.7088 56.868 36.3756C56.9713 36.3029 57.0825 36.2408 57.1789 36.1593C57.2753 36.0778 57.3583 35.9722 57.3816 35.8479C57.405 35.7283 57.3691 35.6071 57.3546 35.4864C57.3389 35.3576 57.3464 35.2267 57.335 35.0973C57.3237 34.968 57.2908 34.8351 57.2071 34.7357C57.1376 34.6535 57.0373 34.6007 56.932 34.5782C56.8267 34.5558 56.717 34.5622 56.6118 34.5849C56.4014 34.6301 56.2106 34.7384 56.0088 34.8128C55.7413 34.9113 55.4559 34.95 55.1829 35.0318C54.8434 35.1339 54.5268 35.3013 54.1892 35.4095C53.804 35.5331 53.3985 35.5771 53.0039 35.6661C52.8331 35.7046 52.6632 35.7519 52.504 35.825C52.3449 35.8982 52.1963 35.9989 52.0829 36.1323C51.9725 36.2623 51.8985 36.419 51.8028 36.5604C51.755 36.6311 51.7012 36.6985 51.6368 36.7543C51.5723 36.81 51.4965 36.8544 51.4136 36.8747C51.3719 36.8848 51.3255 36.8898 51.2886 36.9134C51.2655 36.9282 51.2473 36.9497 51.2333 36.9733C51.2192 36.9969 51.2093 37.0226 51.2004 37.0486C51.1797 37.1089 51.1642 37.1709 51.1539 37.2338L51.1546 37.2335Z" fill="url(#paint8_radial_427_13338)"/>
<g filter="url(#filter10_f_427_13338)">
<path d="M52.7994 37.2437C52.8055 37.4211 52.877 37.5899 53.0002 37.7175C53.1234 37.8452 53.2896 37.9227 53.4666 37.9351C53.6896 37.9486 53.9112 37.8532 54.0757 37.7023C54.1709 37.6147 54.2505 37.5062 54.2858 37.3816C54.3039 37.3192 54.3092 37.2538 54.3014 37.1893C54.2931 37.1251 54.2702 37.0624 54.2328 37.0098C54.1918 36.952 54.1342 36.9067 54.07 36.8764C54.0057 36.8462 53.9352 36.8307 53.8644 36.8266C53.7227 36.8184 53.5826 36.8551 53.4474 36.8984C53.2425 36.964 53.043 37.0454 52.8507 37.1418" fill="#D9B30D"/>
</g>
<g filter="url(#filter11_f_427_13338)">
<path d="M51.7835 36.1389L51.4513 36.5122C51.3962 36.5786 51.3401 36.6495 51.3245 36.7342C51.3133 36.7943 51.3237 36.8564 51.3397 36.9153C51.3557 36.9743 51.3745 37.0329 51.3821 37.0925C51.3876 37.1338 51.3874 37.176 51.3963 37.2168C51.4007 37.2372 51.4076 37.257 51.4182 37.2752C51.4285 37.2935 51.4431 37.309 51.4607 37.3203C51.4837 37.3344 51.5112 37.3396 51.5383 37.3405C51.5653 37.3415 51.592 37.3383 51.6191 37.3377C51.7483 37.3337 51.8741 37.38 51.9893 37.4386L52.331 37.6216C52.6507 37.7648 53.0224 37.7601 53.3612 37.6752C53.7 37.5903 54.0167 37.4297 54.3269 37.2668L55.0384 36.8495C55.3837 36.6056 55.682 36.2964 55.9183 35.9459C56.0254 35.787 56.1208 35.6184 56.2513 35.478C56.3666 35.3537 56.5066 35.2545 56.6253 35.1334C56.636 35.1226 56.6464 35.1116 56.6552 35.0992C56.664 35.0867 56.671 35.073 56.6741 35.0581C56.6794 35.0322 56.6722 35.0053 56.6584 34.9829C56.6446 34.9604 56.6248 34.9426 56.6036 34.9273C56.5802 34.9102 56.5549 34.8957 56.5286 34.8833C56.3474 34.7965 56.1352 34.8044 55.9377 34.8409C55.7402 34.8774 55.5475 34.9407 55.3485 34.9597C55.1602 34.9769 54.9714 34.9565 54.7828 34.9475C54.5848 34.9374 54.3863 34.942 54.1889 34.9613C53.7252 35.008 53.2714 35.1445 52.8552 35.3542C52.4587 35.5541 52.0963 35.8204 51.7854 36.1377L51.7835 36.1389Z" fill="#604405"/>
</g>
<path d="M51.614 35.6825C51.4503 35.8705 51.3146 36.0824 51.2125 36.3096C51.1541 36.4394 51.1061 36.5765 51.0974 36.7188C51.0904 36.8307 51.1078 36.9424 51.1145 37.0543C51.1169 37.0963 51.1183 37.1387 51.1291 37.179C51.1346 37.1993 51.1427 37.219 51.1541 37.2367C51.1654 37.2543 51.1804 37.2697 51.1984 37.2806C51.2282 37.2985 51.2643 37.3028 51.299 37.3008C51.3337 37.2989 51.3677 37.2907 51.4021 37.2856C51.5572 37.2624 51.7153 37.2984 51.8631 37.3509L52.3023 37.5191C52.6331 37.6223 52.9918 37.6113 53.3297 37.5346C53.6675 37.458 53.9876 37.3178 54.2983 37.1642C54.5451 37.0423 54.7886 36.9108 55.0098 36.7469C55.3487 36.496 55.6287 36.1744 55.8898 35.8433C56.0084 35.6929 56.124 35.5396 56.2227 35.3754C56.2562 35.3196 56.2878 35.2626 56.3256 35.2097C56.3633 35.1568 56.4078 35.1076 56.4624 35.0723C56.5456 35.0186 56.6468 35.0005 56.7453 34.991C56.8196 34.9838 56.8952 34.9807 56.9664 34.9583C57.002 34.9472 57.0364 34.9314 57.0662 34.909C57.0961 34.8866 57.1215 34.8576 57.1368 34.8235C57.1567 34.7782 57.1604 34.7274 57.1473 34.6797C57.1348 34.6322 57.1076 34.5894 57.0728 34.5549C57.0028 34.486 56.905 34.4532 56.8081 34.4379C56.6753 34.4169 56.5401 34.4254 56.4057 34.4286C55.9932 34.4389 55.5795 34.4016 55.1749 34.3199C54.9738 34.2793 54.775 34.2279 54.5753 34.1812C54.3699 34.1331 54.1621 34.0896 53.9512 34.0828C53.4799 34.0675 53.0149 34.2385 52.6248 34.5032C52.1913 34.7972 51.8384 35.2088 51.6138 35.6821L51.614 35.6825Z" fill="url(#paint9_linear_427_13338)"/>
<g filter="url(#filter12_f_427_13338)">
<path d="M54.7023 34.9577C54.671 34.9343 54.6319 34.9224 54.5928 34.9216C54.5538 34.9207 54.515 34.9313 54.4793 34.9465C54.4082 34.9791 54.352 35.036 54.3015 35.0967C54.1572 35.2657 54.0412 35.4578 53.9494 35.6601C53.8276 35.9278 53.7466 36.2214 53.7716 36.5145C53.7759 36.5638 53.7831 36.6134 53.8017 36.6594C53.8204 36.7054 53.8512 36.7476 53.8941 36.7725C53.9317 36.7944 53.9769 36.8018 54.0201 36.7966C54.0633 36.7915 54.1046 36.7742 54.1408 36.7501C54.2132 36.7019 54.2645 36.6283 54.312 36.5556C54.5744 36.1543 54.7872 35.7 54.7925 35.2204C54.793 35.1722 54.7914 35.1235 54.7786 35.0772C54.7657 35.0308 54.7408 34.9864 54.7023 34.9577Z" fill="#F6DA4A"/>
</g>
<g opacity="0.8" filter="url(#filter13_f_427_13338)">
<path d="M53.704 34.5398C53.7484 34.6102 53.8689 34.5643 53.9504 34.5819C54.0218 34.5973 54.0912 34.6547 54.1624 34.6378C54.2302 34.6219 54.3284 34.5684 54.3194 34.4993C54.3073 34.4079 54.1634 34.3864 54.0718 34.3762C53.9541 34.3632 53.8116 34.3788 53.7264 34.4612C53.7069 34.4801 53.6898 34.5167 53.7044 34.5398L53.704 34.5398Z" fill="url(#paint10_radial_427_13338)"/>
</g>
<g opacity="0.8" filter="url(#filter14_f_427_13338)">
<path d="M52.5102 34.812C52.4102 34.8066 52.3017 35.0094 52.3735 35.0792C52.3933 35.0983 52.4427 35.1161 52.4666 35.0931C52.5028 35.0585 52.515 34.9659 52.5521 34.921C52.5769 34.8911 52.549 34.8141 52.5101 34.8121L52.5102 34.812Z" fill="url(#paint11_radial_427_13338)"/>
</g>
<g filter="url(#filter15_f_427_13338)">
<path d="M56.9843 35.3034C57.1476 35.2597 57.2544 35.0556 57.223 34.8476C57.1915 34.6396 57.0336 34.5064 56.8703 34.5501C56.7071 34.5939 56.6002 34.798 56.6317 35.006C56.6632 35.214 56.821 35.3472 56.9843 35.3034Z" fill="url(#paint12_linear_427_13338)"/>
</g>
<mask id="mask1_427_13338" style="mask-type:luminance" maskUnits="userSpaceOnUse" x="50" y="32" width="3" height="5">
<path d="M50.8492 32.5837C50.5897 33.1844 50.292 34.0293 50.4798 34.5955C50.6676 35.1618 51.2655 35.9303 51.7899 36.0188C52.3143 36.1073 52.3856 35.8606 52.5824 35.5292C52.7793 35.1978 52.7781 34.6619 52.6573 34.1507C52.5365 33.6395 52.0128 33.0015 51.6717 32.7237C51.3305 32.4458 51.1087 31.983 50.849 32.5837L50.8492 32.5837Z" fill="white"/>
</mask>
<g mask="url(#mask1_427_13338)">
<path d="M50.6504 33.4314C50.8839 33.1914 51.2119 33.0625 51.5421 33.0066C51.8722 32.9508 52.2093 32.9618 52.544 32.9633C52.7896 32.9643 53.0368 32.9599 53.2784 33.0036C53.52 33.0473 53.7592 33.1427 53.9325 33.3166L54.015 33.4012C54.0437 33.4281 54.0757 33.4526 54.1121 33.4672C54.1485 33.4818 54.1902 33.4866 54.2276 33.4744C54.2463 33.4683 54.2638 33.458 54.2775 33.4439C54.2913 33.4298 54.3015 33.412 54.3058 33.3929C54.3107 33.3708 54.3078 33.3475 54.3008 33.3259C54.2932 33.3046 54.2834 33.2841 54.2714 33.2648C54.117 33.0009 53.8681 32.8087 53.6583 32.5863L53.2931 32.1745C52.8585 31.7188 52.2674 31.4274 51.6507 31.3009C51.0339 31.1744 50.3914 31.2062 49.7745 31.3334C49.0599 31.4807 48.3767 31.7534 47.7152 32.0615C47.4283 32.1951 47.1398 32.3393 46.9134 32.5604C46.8003 32.6709 46.7041 32.8003 46.6408 32.9451C46.5774 33.0899 46.548 33.2511 46.5666 33.4082C46.5846 33.5598 46.6469 33.7039 46.7346 33.8285C46.8224 33.9531 46.9357 34.0583 47.0593 34.1476C47.3065 34.3262 47.5926 34.4409 47.8647 34.5783C48.1368 34.7156 48.3996 34.8776 48.6876 34.9747C48.8321 35.023 48.9833 35.0546 49.1356 35.0561C49.2879 35.0577 49.442 35.0284 49.5783 34.9601C49.7196 34.8895 49.8384 34.779 49.9347 34.6537C50.0309 34.5285 50.1059 34.3883 50.1745 34.2459C50.3117 33.9612 50.4298 33.6579 50.6501 33.4314L50.6504 33.4314Z" fill="url(#paint13_radial_427_13338)"/>
</g>
<path d="M63.109 40.7303C63.8743 41.0681 64.4787 41.7258 64.8162 42.4911C65.0795 43.0881 65.188 43.7438 65.2123 44.3957C65.2366 45.0475 65.1788 45.6994 65.1223 46.3493C65.0997 46.6085 65.0775 46.87 65.1101 47.1281C65.1426 47.3861 65.235 47.6439 65.4142 47.8326C65.6196 48.0488 65.9232 48.1542 66.2213 48.1622C66.5156 48.1702 66.8095 48.0896 67.0671 47.9469C67.3248 47.8042 67.5463 47.6008 67.7241 47.3661C68.1761 46.77 68.3356 45.988 68.2786 45.2423C68.2217 44.4966 67.9639 43.7797 67.6494 43.101C67.2204 42.1758 66.6818 41.3032 66.0743 40.4837C65.6275 39.881 65.1384 39.3018 64.548 38.839C63.9701 38.3861 63.3052 38.0527 62.7343 37.5911C62.3375 37.2705 61.9861 36.8878 61.545 36.6316C61.3244 36.5036 61.0816 36.4085 60.828 36.3808C60.5744 36.353 60.3094 36.396 60.0902 36.5263C59.8013 36.698 59.6107 37.013 59.5549 37.3442C59.4992 37.6754 59.565 38.0205 59.7038 38.3268C59.8828 38.7218 60.1745 39.0548 60.4843 39.3585C60.8342 39.7013 61.2181 40.0187 61.6629 40.2242C62.127 40.4386 62.6417 40.5241 63.1093 40.7304L63.109 40.7303Z" fill="#020204"/>
<mask id="mask2_427_13338" style="mask-type:luminance" maskUnits="userSpaceOnUse" x="59" y="36" width="10" height="13">
<path d="M63.109 40.7304C63.8792 41.0699 64.4803 41.7288 64.8162 42.4911C65.342 43.6843 65.2366 45.0482 65.1223 46.3494C65.0996 46.6089 65.0771 46.8717 65.1093 47.1286C65.1414 47.3856 65.2338 47.644 65.4142 47.8327C65.6187 48.0468 65.9217 48.1542 66.2214 48.1624C66.5159 48.1704 66.8106 48.0888 67.0682 47.9457C67.3257 47.8026 67.5466 47.5992 67.7243 47.3662C68.1823 46.7666 68.3422 45.9824 68.2829 45.2378C68.2236 44.4931 67.9642 43.7784 67.6484 43.1014C67.2177 42.1778 66.6804 41.3048 66.0733 40.4841C65.6277 39.882 65.1394 39.3027 64.5468 38.8394C63.9689 38.3877 63.3017 38.053 62.7331 37.5916C62.3388 37.271 61.9916 36.8887 61.5512 36.6321C61.331 36.5037 61.0875 36.4087 60.8325 36.3811C60.5775 36.3535 60.3101 36.3965 60.0889 36.527C59.9422 36.6135 59.8185 36.7366 59.7273 36.8789C59.6361 37.0212 59.5769 37.1827 59.5491 37.3484C59.4933 37.6797 59.5629 38.0224 59.7024 38.3273C59.8824 38.7207 60.1731 39.0542 60.4831 39.359C60.8316 39.7016 61.2151 40.0189 61.6615 40.2247C62.1252 40.4383 62.6409 40.5249 63.1079 40.7309" fill="white"/>
</mask>
<g mask="url(#mask2_427_13338)">
<g filter="url(#filter16_f_427_13338)">
<path d="M61.3657 40.1516L61.5618 40.2515C62.0328 40.4641 62.3336 40.7638 62.8082 40.9684C63.5848 41.3032 64.4695 42.003 64.8092 42.7677C65.0743 43.3642 65.0351 43.7373 65.0734 44.5142C65.1116 45.2911 64.941 46.4512 64.8881 47.2244C64.8668 47.5328 65.1284 47.3377 65.1698 47.6457C65.1898 47.797 65.2282 47.9453 65.2842 48.0873L65.2688 48.0003C65.2067 47.5819 65.2264 47.1583 65.2594 46.7392C65.3226 45.9325 65.4283 45.1304 65.4319 44.319C65.4356 43.5076 65.2669 42.97 64.9854 42.349C64.6311 41.5683 63.9537 40.9413 63.1472 40.6237C62.5767 40.3992 61.9551 40.3237 61.366 40.1515L61.3657 40.1516Z" fill="#838384"/>
</g>
</g>
<g opacity="0.25" filter="url(#filter17_f_427_13338)">
<path d="M51.4277 42.3236C51.5751 42.4531 51.5503 43.0424 53.9067 42.0381C53.9067 42.0381 53.4892 42.2006 53.0913 42.4123C52.4912 42.8096 51.9829 43.2102 51.6273 43.6556C51.2749 44.0963 51.0665 44.604 50.7606 45.0741C50.7606 45.0741 51.0936 43.7074 51.16 43.3051C51.2265 42.9029 51.0413 42.971 51.0283 42.4074C51.0152 41.8438 51.1943 41.2532 51.1943 41.2532C51.1943 41.2532 51.1372 42.068 51.4277 42.3235L51.4277 42.3236Z" fill="url(#paint14_radial_427_13338)"/>
</g>
<g opacity="0.42" filter="url(#filter18_f_427_13338)">
<path d="M59.267 40.0707C58.861 40.5521 58.5575 40.5894 57.9699 40.8197C57.3823 41.05 55.7366 41.4647 55.7366 41.4647C55.7366 41.4647 55.9727 41.3966 56.525 41.3537C57.0773 41.3107 58.1752 41.1169 58.8409 41.185C59.5067 41.2531 59.7445 41.2597 60.1739 41.3934C60.7849 41.5839 61.3073 41.9987 61.904 42.2269C61.904 42.2269 61.7994 41.74 61.5015 41.4352C61.2036 41.1305 60.5089 40.7104 60.2088 40.2247C59.9088 39.7389 59.5541 38.7221 59.5541 38.7221C59.5541 38.7221 59.6732 39.5889 59.2671 40.0705L59.267 40.0707Z" fill="url(#paint15_radial_427_13338)"/>
</g>
<g opacity="0.2" filter="url(#filter19_f_427_13338)">
<path d="M54.3727 40.5861L54.4211 41.0549C54.4263 41.1322 54.4299 41.21 54.4211 41.2869C54.4124 41.3639 54.3909 41.4405 54.3488 41.5055C54.312 41.5624 54.2607 41.6085 54.2084 41.6518C54.0044 41.8207 53.7744 41.958 53.529 42.0578L53.8401 42.0042C53.9056 41.9941 53.9715 41.9847 54.0378 41.984C54.1042 41.9833 54.1715 41.9926 54.233 42.0155C54.3008 42.0417 54.3605 42.0864 54.4104 42.1394C54.5096 42.245 54.5698 42.3809 54.6191 42.5159C54.6824 42.69 54.7318 42.8694 54.7663 43.0514C54.7463 42.9287 54.7397 42.8039 54.7466 42.6798C54.7591 42.4562 54.8162 42.2345 54.9201 42.0361C54.9613 41.9574 55.0097 41.8823 55.0668 41.814C55.2441 41.6035 55.4938 41.4669 55.7667 41.4312C55.5023 41.5137 55.2175 41.5026 54.9604 41.3996C54.8309 41.3473 54.7098 41.2713 54.613 41.1706C54.4621 41.0125 54.3763 40.8034 54.3728 40.585L54.3727 40.5861Z" fill="url(#paint16_radial_427_13338)"/>
</g>
<g opacity="0.1" filter="url(#filter20_f_427_13338)">
<path d="M54.678 44.2791C54.6806 44.7976 54.7255 45.3151 54.8125 45.8263C54.9354 46.5487 55.1414 47.2543 55.293 47.9714C55.4227 48.5796 55.5137 49.2048 55.7763 49.7685C55.9016 50.0374 56.0646 50.2884 56.259 50.5125C56.2525 50.4088 56.2405 50.3056 56.2229 50.2032C56.1386 49.7117 55.9288 49.2521 55.7727 48.7786C55.499 47.9484 55.3897 47.0736 55.2116 46.2189C55.0746 45.5618 54.8964 44.9139 54.678 44.2792L54.678 44.2791Z" fill="black"/>
</g>
<g filter="url(#filter21_f_427_13338)">
<path d="M58.5448 35.4563C58.3758 35.7201 58.7864 35.9381 59.0385 36.256C59.1953 36.4535 59.5478 36.6967 59.7934 36.5769C59.9783 36.4866 60.024 36.1735 59.9527 35.9809C59.8148 35.6086 59.4688 35.6056 59.1998 35.5372C58.9868 35.4829 58.6636 35.2712 58.545 35.4565L58.5448 35.4563Z" fill="#838384"/>
</g>
<g opacity="0.2" filter="url(#filter22_f_427_13338)">
<path d="M70.1931 50.2189C70.1872 50.3938 70.155 50.5672 70.0976 50.7336C69.9707 51.1016 69.7282 51.4181 69.4809 51.7161C69.0592 52.2246 68.6077 52.7084 68.2358 53.2585C67.9864 53.6264 67.7751 54.0207 67.5895 54.4258C67.4308 54.7722 67.2901 55.1293 67.0904 55.453C66.8887 55.7799 66.6261 56.0706 66.3138 56.2743C65.9341 56.5221 65.4924 56.6334 65.0639 56.6381C64.7636 56.6414 64.456 56.5895 64.2213 56.4095C63.9856 56.229 63.8471 55.9385 63.7465 55.6439C63.5684 55.1227 63.4866 54.5635 63.4 54.0095C63.3281 53.5491 63.2523 53.0894 63.1509 52.6378C62.9651 51.8169 62.6965 51.0256 62.3748 50.265C62.3209 50.1374 62.2651 50.0096 62.2397 49.8702C62.2144 49.7309 62.2221 49.5769 62.2896 49.446C62.3519 49.3251 62.4599 49.2345 62.5752 49.1732C62.6905 49.1119 62.8144 49.0758 62.9374 49.0406C63.2265 48.9549 63.5147 48.8593 63.8083 48.808C63.9936 48.7756 64.1798 48.7611 64.3651 48.7301C64.6744 48.6782 64.9829 48.5793 65.2616 48.4096C65.5616 48.2269 65.8241 47.9648 66.1418 47.827C66.272 47.7704 66.4089 47.7362 66.5457 47.7194C66.6853 47.7022 66.8293 47.7035 66.9548 47.7579C67.0501 47.7994 67.1307 47.8697 67.2003 47.9491C67.3037 48.0674 67.3854 48.2067 67.4501 48.3546C67.5076 48.4855 67.5527 48.6243 67.6233 48.7469C67.7395 48.9487 67.9202 49.0983 68.1185 49.2064C68.3168 49.3145 68.5333 49.3838 68.749 49.4516C68.964 49.5189 69.1797 49.5853 69.4017 49.6289C69.5059 49.6493 69.6115 49.6647 69.7134 49.6932C69.8153 49.7216 69.9145 49.7635 69.9955 49.8321C70.1054 49.9252 70.1774 50.0665 70.193 50.22" fill="url(#paint17_linear_427_13338)"/>
</g>
<mask id="mask3_427_13338" style="mask-type:luminance" maskUnits="userSpaceOnUse" x="62" y="46" width="11" height="11">
<path d="M72.3608 50.0532C72.4992 50.1932 72.2923 50.4472 72.2008 50.6215C71.9995 51.0051 71.6694 51.3075 71.3715 51.6221C70.8604 52.1622 70.2295 52.5827 69.7351 53.1382C69.4041 53.5099 69.1356 53.9333 68.8538 54.3437C68.6128 54.6948 68.4496 55.1036 68.1623 55.4181C67.8751 55.7326 67.5487 56.0432 67.1542 56.2039C66.6759 56.3986 66.1257 56.4511 65.6146 56.3765C65.2574 56.3242 64.8836 56.1975 64.618 55.9526C64.351 55.7065 64.2237 55.3333 64.1119 54.9878C63.9121 54.3693 63.9186 53.7022 63.8362 53.0575C63.7679 52.5211 63.7523 51.9774 63.6549 51.4454C63.478 50.4791 63.0638 49.5625 62.9252 48.59C62.8805 48.2763 62.722 47.9059 62.8938 47.6398C63.0535 47.3925 63.4245 47.3734 63.7106 47.3031C64.0587 47.2176 64.4231 47.2175 64.7815 47.2066C65.0076 47.1995 65.2342 47.2416 65.4599 47.2255C65.8342 47.1987 66.2102 47.1427 66.5693 47.0338C66.9574 46.916 67.2889 46.6418 67.6816 46.54C67.8425 46.4983 68.0126 46.4826 68.1783 46.4957C68.3463 46.5089 68.5209 46.5376 68.6685 46.6188C68.781 46.6807 68.8707 46.7816 68.9481 46.8843C69.0637 47.0377 69.137 47.2194 69.2144 47.3952C69.2831 47.5513 69.2892 47.7377 69.3892 47.8762C69.7116 48.3221 70.2081 48.6245 70.6858 48.8975C70.9198 49.0494 71.2008 49.1514 71.4577 49.226C71.7307 49.3053 71.9776 49.3584 72.1565 49.5729C72.2659 49.7082 72.2044 49.977 72.3609 50.0533L72.3608 50.0532Z" fill="white"/>
</mask>
<g mask="url(#mask3_427_13338)">
<path d="M72.3609 50.0532C72.3393 50.2497 72.2848 50.4425 72.2009 50.6215C72.0158 51.0165 71.6958 51.3301 71.3717 51.6221C70.8187 52.1201 70.232 52.5842 69.7353 53.1382C69.4024 53.5092 69.1129 53.9178 68.854 54.3437C68.6326 54.708 68.4316 55.0875 68.1625 55.4181C67.8908 55.7515 67.5485 56.0322 67.1543 56.2039C66.6747 56.4128 66.1324 56.4541 65.6148 56.3765C65.2522 56.322 64.8857 56.2033 64.6182 55.9526C64.3496 55.701 64.2078 55.3431 64.112 54.9878C63.9427 54.3592 63.8923 53.7049 63.8363 53.0575C63.7895 52.5187 63.7383 51.9798 63.655 51.4454C63.5036 50.4736 63.2472 49.5195 62.9254 48.59C62.8725 48.434 62.8153 48.2776 62.7969 48.1138C62.7785 47.9501 62.8012 47.7759 62.8939 47.6398C62.9796 47.5141 63.1176 47.4318 63.2624 47.3843C63.4071 47.3369 63.5596 47.321 63.7108 47.3032C64.067 47.2614 64.423 47.2083 64.7817 47.2067C65.0079 47.2056 65.2339 47.2252 65.4601 47.2256C65.8377 47.2264 66.2185 47.1732 66.5694 47.0339C66.9473 46.8839 67.2867 46.6358 67.6818 46.5401C67.8439 46.5009 68.0117 46.4885 68.1784 46.4958C68.3484 46.5032 68.5221 46.5325 68.6686 46.6189C68.78 46.6844 68.8711 46.7803 68.9483 46.8844C69.063 47.0393 69.1491 47.214 69.2146 47.3953C69.2726 47.5558 69.3148 47.7226 69.3894 47.8763C69.512 48.129 69.7169 48.3344 69.9466 48.496C70.1763 48.6576 70.4326 48.7783 70.6859 48.8976C70.9394 49.016 71.1938 49.1336 71.4578 49.2262C71.5817 49.2697 71.7077 49.3078 71.8282 49.3598C71.9487 49.4118 72.0647 49.4791 72.1564 49.5729C72.2809 49.7004 72.3554 49.8753 72.3609 50.0533L72.3609 50.0532Z" fill="url(#paint18_linear_427_13338)"/>
</g>
<mask id="mask4_427_13338" style="mask-type:luminance" maskUnits="userSpaceOnUse" x="62" y="46" width="11" height="11">
<path d="M72.3608 50.0532C72.4992 50.1932 72.2923 50.4472 72.2008 50.6215C71.9995 51.0051 71.6694 51.3075 71.3715 51.6221C70.8604 52.1622 70.2295 52.5827 69.7351 53.1382C69.4041 53.5099 69.1356 53.9333 68.8538 54.3437C68.6128 54.6948 68.4496 55.1036 68.1623 55.4181C67.8751 55.7326 67.5487 56.0432 67.1542 56.2039C66.6759 56.3986 66.1257 56.4511 65.6146 56.3765C65.2574 56.3242 64.8836 56.1975 64.618 55.9526C64.351 55.7065 64.2237 55.3333 64.1119 54.9878C63.9121 54.3693 63.9186 53.7022 63.8362 53.0575C63.7679 52.5211 63.7523 51.9774 63.6549 51.4454C63.478 50.4791 63.0638 49.5625 62.9252 48.59C62.8805 48.2763 62.722 47.9059 62.8938 47.6398C63.0535 47.3925 63.4245 47.3734 63.7106 47.3031C64.0587 47.2176 64.4231 47.2175 64.7815 47.2066C65.0076 47.1995 65.2342 47.2416 65.4599 47.2255C65.8342 47.1987 66.2102 47.1427 66.5693 47.0338C66.9574 46.916 67.2889 46.6418 67.6816 46.54C67.8425 46.4983 68.0126 46.4826 68.1783 46.4957C68.3463 46.5089 68.5209 46.5376 68.6685 46.6188C68.781 46.6807 68.8707 46.7816 68.9481 46.8843C69.0637 47.0377 69.137 47.2194 69.2144 47.3952C69.2831 47.5513 69.2892 47.7377 69.3892 47.8762C69.7116 48.3221 70.2081 48.6245 70.6858 48.8975C70.9198 49.0494 71.2008 49.1514 71.4577 49.226C71.7307 49.3053 71.9776 49.3584 72.1565 49.5729C72.2659 49.7082 72.2044 49.977 72.3609 50.0533L72.3608 50.0532Z" fill="white"/>
</mask>
<g mask="url(#mask4_427_13338)">
<g filter="url(#filter23_f_427_13338)">
<path d="M71.9511 49.8135C71.93 49.9911 71.8801 50.164 71.8032 50.3255C71.6327 50.6832 71.3394 50.9659 71.043 51.2289C70.5366 51.6784 70.0003 52.098 69.5449 52.599C69.2405 52.9338 68.9749 53.3024 68.7366 53.6872C68.5331 54.0159 68.3482 54.3586 68.1019 54.6565C67.8524 54.9585 67.539 55.2118 67.1793 55.3673C66.7411 55.5568 66.247 55.5957 65.7744 55.5279C65.4449 55.4807 65.1109 55.3764 64.8667 55.1502C64.6239 54.925 64.4951 54.6032 64.4083 54.2836C64.2555 53.7185 64.2123 53.1307 64.1638 52.5473C64.1233 52.0625 64.0786 51.5779 64.0041 51.0972C63.8686 50.2233 63.6344 49.3667 63.3486 48.5299C63.3007 48.3897 63.251 48.2484 63.235 48.1012C63.2191 47.954 63.2399 47.7975 63.3233 47.675C63.4015 47.5601 63.5278 47.4852 63.6601 47.4422C63.7924 47.3992 63.9317 47.3851 64.0697 47.369C64.3948 47.3313 64.7195 47.2814 65.0467 47.2783C65.2531 47.2765 65.4593 47.2933 65.6656 47.293C66.0104 47.2927 66.3578 47.2434 66.6784 47.1166C67.0233 46.9801 67.3343 46.7556 67.6949 46.6682C67.8428 46.6325 67.9961 46.6208 68.1484 46.6266C68.3032 46.6323 68.4616 46.6573 68.5952 46.7356C68.6959 46.7946 68.7778 46.8812 68.8492 46.9736C68.9555 47.1111 69.042 47.2654 69.0904 47.4324C69.1409 47.6067 69.1497 47.793 69.22 47.9602C69.2771 48.0961 69.3724 48.213 69.4809 48.3128C69.5893 48.4126 69.7112 48.4962 69.8323 48.5802C70.0662 48.7426 70.3018 48.9087 70.5677 49.0102C70.8706 49.1258 71.2004 49.1523 71.5084 49.2535C71.6002 49.2837 71.6913 49.3212 71.7665 49.3817C71.8297 49.4336 71.8795 49.4999 71.9116 49.575C71.9438 49.6501 71.9574 49.7319 71.9514 49.8134L71.9511 49.8135Z" fill="#CD8907"/>
</g>
</g>
<mask id="mask5_427_13338" style="mask-type:luminance" maskUnits="userSpaceOnUse" x="62" y="46" width="11" height="11">
<path d="M72.3607 50.0532C72.499 50.1932 72.2922 50.4473 72.2007 50.6215C71.9993 51.0052 71.6692 51.3075 71.3712 51.6223C70.8602 52.1623 70.2297 52.5841 69.7348 53.1383C69.4039 53.5101 69.1354 53.9335 68.8535 54.3438C68.6124 54.695 68.4493 55.104 68.1619 55.4182C67.8744 55.7325 67.5482 56.0432 67.1536 56.2041C66.6754 56.3989 66.1251 56.4513 65.6154 56.3763C65.2582 56.324 64.8831 56.1975 64.6188 55.9525C64.3519 55.7064 64.2244 55.3333 64.1128 54.9877C63.9128 54.3692 63.9194 53.7021 63.8371 53.0574C63.7687 52.5209 63.753 51.9771 63.6558 51.4454C63.4789 50.4791 63.0648 49.5624 62.9261 48.5898C62.8802 48.2765 62.7228 47.9058 62.8946 47.6398C63.0543 47.3924 63.4256 47.3745 63.7114 47.3031C64.0595 47.2177 64.424 47.2177 64.7822 47.2066C65.0084 47.1995 65.2349 47.2417 65.4607 47.2256C65.8338 47.1992 66.2109 47.1428 66.5701 47.0339C66.9583 46.9162 67.2896 46.6418 67.6824 46.5401C67.8433 46.4984 68.0135 46.4828 68.1792 46.4958C68.3471 46.5091 68.5218 46.538 68.6693 46.6189C68.7819 46.6809 68.8714 46.7818 68.9492 46.8856C69.0648 47.0391 69.1381 47.2206 69.2153 47.3964C69.284 47.5525 69.2902 47.7392 69.3902 47.8773C69.7125 48.3232 70.2092 48.6257 70.6867 48.8987C70.9207 49.0505 71.2017 49.1526 71.4587 49.2272C71.7315 49.3065 71.9783 49.3596 72.1574 49.574C72.2668 49.7094 72.2054 49.9782 72.362 50.0545L72.3607 50.0532Z" fill="white"/>
</mask>
<g mask="url(#mask5_427_13338)">
<g filter="url(#filter24_f_427_13338)">
<path d="M71.8663 49.6425C71.8383 49.8229 71.7864 49.9979 71.7124 50.1607C71.5407 50.5385 71.254 50.8438 70.9285 51.0775C70.3926 51.4626 69.7498 51.6672 69.2333 52.0805C68.9185 52.3324 68.6606 52.6539 68.3951 52.9638C68.1805 53.214 67.9585 53.4593 67.7037 53.6623C67.416 53.8918 67.0907 54.0643 66.7581 54.2136C66.5465 54.3086 66.3296 54.3946 66.1029 54.442C65.8762 54.4895 65.6381 54.4973 65.4106 54.4362C65.2379 54.3898 65.0703 54.3015 64.9471 54.1617C64.8104 54.0062 64.7387 53.7999 64.6863 53.5961C64.5467 53.0533 64.5191 52.4867 64.3705 51.9463C64.2412 51.4759 64.0232 51.0357 63.8703 50.5725C63.5763 49.6817 63.5239 48.7094 63.1152 47.8678C63.0499 47.7331 62.975 47.6011 62.9379 47.4555C62.9194 47.3826 62.9108 47.307 62.9182 47.233C62.9256 47.159 62.9505 47.087 62.9937 47.0299C63.0303 46.9818 63.0789 46.9456 63.1322 46.9208C63.1855 46.896 63.2432 46.8825 63.3018 46.8763C63.4185 46.8637 63.5372 46.8791 63.6551 46.8823C63.9925 46.8917 64.322 46.8012 64.6582 46.7864C64.8693 46.7771 65.0815 46.7973 65.2932 46.7986C65.6482 46.7991 66.0042 46.7465 66.3331 46.6156C66.6871 46.4749 67.0084 46.2467 67.3782 46.1579C67.5298 46.1214 67.6868 46.1094 67.8436 46.1138C68.0005 46.1182 68.162 46.1406 68.3015 46.2221C68.4022 46.2809 68.4864 46.3679 68.5611 46.4613C68.6699 46.5978 68.7619 46.7533 68.8065 46.9242C68.8297 47.0132 68.8398 47.1049 68.8555 47.1953C68.8712 47.2856 68.893 47.3771 68.9371 47.4572C68.9811 47.5374 69.0466 47.6038 69.1162 47.6607C69.1858 47.7176 69.2606 47.7668 69.3315 47.8219C69.5302 47.976 69.6956 48.1733 69.8682 48.36C70.0408 48.5468 70.2268 48.7276 70.4494 48.8356C70.7525 48.9829 71.0944 48.9826 71.4136 49.0774C71.5072 49.1052 71.6004 49.1421 71.678 49.2061C71.7403 49.2576 71.7901 49.3244 71.8229 49.4005C71.8557 49.4766 71.8705 49.5595 71.8658 49.6417L71.8663 49.6425Z" fill="#F5C021"/>
</g>
</g>
<g filter="url(#filter25_f_427_13338)">
<path d="M63.0758 47.9695C63.3902 47.7869 63.7477 47.9665 64.0455 48.0947C64.2406 48.1876 64.461 48.092 64.6576 48.0462C64.9773 47.948 65.3162 47.9277 65.6285 47.8011C66.2498 47.577 66.8311 47.2538 67.4624 47.0547C67.7625 46.9536 68.1002 46.8442 68.4116 46.9517C68.5383 46.9972 68.7788 47.2681 68.8528 47.1224C68.7212 46.8052 68.392 46.5521 68.0413 46.5522C67.7744 46.5805 67.532 46.7209 67.2683 46.7671C66.4954 46.9546 65.6946 47.0164 64.9357 47.2635C64.4014 47.4117 63.8598 47.5302 63.3195 47.6526C63.0979 47.6659 63.0738 47.8725 62.9788 47.9745" fill="url(#paint19_linear_427_13338)"/>
</g>
<g opacity="0.75" filter="url(#filter26_f_427_13338)">
<path d="M62.9198 41.3102C63.0376 41.2583 63.9687 41.6999 63.9295 41.9682C63.8903 42.2365 63.6565 42.1433 63.5176 42.1822C63.3787 42.2212 63.0439 42.4963 62.9508 42.4043C62.8577 42.3122 63.0218 41.9949 63.0864 41.7493C63.1383 41.5514 62.8023 41.3634 62.9202 41.3114L62.9198 41.3102Z" fill="#7C7C7C"/>
</g>
<g opacity="0.25" filter="url(#filter27_f_427_13338)">
<path d="M51.1319 40.1196C51.0799 39.9744 50.8618 40.009 50.787 40.1084C50.7239 40.1924 50.7063 40.4262 50.7976 40.4914C50.9459 40.5969 51.2033 40.3189 51.132 40.1199L51.1319 40.1196Z" fill="#7C7C7C"/>
</g>
<g opacity="0.35" filter="url(#filter28_f_427_13338)">
<path d="M67.7846 47.2611C67.6958 47.1627 67.567 47.1059 67.4355 47.0882C67.3041 47.0705 67.1701 47.0895 67.0424 47.1248C66.7869 47.1955 66.5502 47.3303 66.2892 47.3765C66.0687 47.4156 65.8424 47.3894 65.6177 47.3949C65.3869 47.4013 65.1511 47.4423 64.951 47.5576C64.7375 47.682 64.5756 47.8904 64.5024 48.1264C64.4379 48.3344 64.4409 48.5591 64.4805 48.7732C64.5202 48.9874 64.5946 49.1935 64.6719 49.3973C64.7278 49.5446 64.7856 49.6917 64.8619 49.8299C64.9382 49.968 65.0337 50.0969 65.1559 50.1963C65.3318 50.3395 65.5564 50.415 65.7824 50.436C66.1553 50.4691 66.5271 50.3625 66.8258 50.1368C67.3433 49.7257 67.7167 49.1369 67.8681 48.4935C67.9223 48.2632 67.9488 48.0261 67.9436 47.7896C67.9415 47.6956 67.9344 47.6011 67.9109 47.5101C67.8874 47.419 67.8466 47.331 67.7837 47.2614L67.7846 47.2611Z" fill="url(#paint20_radial_427_13338)"/>
</g>
<g opacity="0.35" filter="url(#filter29_f_427_13338)">
<path d="M67.7524 47.1415C67.6721 47.0747 67.5496 47.0414 67.4218 47.0375C67.294 47.0335 67.1612 47.0568 67.0334 47.0918C66.7777 47.1619 66.5361 47.2783 66.2768 47.3306C66.0577 47.3749 65.8374 47.3712 65.6165 47.3908C65.3895 47.4115 65.1553 47.4582 64.9509 47.5576C64.7327 47.6647 64.5594 47.8304 64.4712 48.0105C64.3935 48.1692 64.3809 48.3355 64.4049 48.4916C64.429 48.6476 64.4878 48.7953 64.5495 48.941C64.5942 49.0464 64.6408 49.1515 64.706 49.2486C64.7713 49.3458 64.8562 49.4347 64.9692 49.5C65.1319 49.594 65.3471 49.6344 65.5674 49.6343C65.9311 49.633 66.3035 49.5282 66.6122 49.3402C67.1486 48.9995 67.5558 48.5371 67.749 48.0495C67.8181 47.875 67.8606 47.6974 67.8719 47.5224C67.8763 47.4528 67.8759 47.3832 67.8591 47.3174C67.8423 47.2515 67.8084 47.189 67.7515 47.1418L67.7524 47.1415Z" fill="url(#paint21_radial_427_13338)"/>
</g>
<path d="M67.9854 46.0638C67.9129 45.9608 67.812 45.8794 67.6999 45.822C67.5879 45.7647 67.4648 45.7307 67.34 45.7131C67.0905 45.6779 66.8374 45.708 66.5861 45.727L65.8753 45.7759C65.6297 45.7989 65.3799 45.8385 65.1615 45.9533C64.9704 46.0536 64.8105 46.2092 64.6942 46.3912C64.578 46.5732 64.5048 46.7809 64.4695 46.9948C64.4068 47.3698 64.4596 47.7587 64.5868 48.117C64.6815 48.3836 64.8255 48.6458 65.0603 48.8041C65.2498 48.9318 65.4832 48.9807 65.7118 48.9866C66.1054 48.9967 66.5014 48.8845 66.8311 48.6694C67.3777 48.3053 67.7927 47.775 68.0149 47.1569C68.0871 46.9546 68.1379 46.7416 68.1293 46.5271C68.1225 46.3626 68.0799 46.1988 67.9857 46.0649L67.9854 46.0638Z" fill="#020204"/>
<mask id="mask6_427_13338" style="mask-type:luminance" maskUnits="userSpaceOnUse" x="64" y="45" width="5" height="4">
<path d="M67.9854 46.0638C67.9129 45.9608 67.812 45.8794 67.6999 45.822C67.5879 45.7647 67.4648 45.7307 67.34 45.7131C67.0905 45.6779 66.8374 45.708 66.5861 45.727L65.8753 45.7759C65.6297 45.7989 65.3799 45.8385 65.1615 45.9533C64.9704 46.0536 64.8105 46.2092 64.6942 46.3912C64.578 46.5732 64.5048 46.7809 64.4695 46.9948C64.4068 47.3698 64.4596 47.7587 64.5868 48.117C64.6815 48.3836 64.8255 48.6458 65.0603 48.8041C65.2498 48.9318 65.4832 48.9807 65.7118 48.9866C66.1054 48.9967 66.5014 48.8845 66.8311 48.6694C67.3777 48.3053 67.7927 47.775 68.0149 47.1569C68.0871 46.9546 68.1379 46.7416 68.1293 46.5271C68.1225 46.3626 68.0799 46.1988 67.9857 46.0649" fill="white"/>
</mask>
<g mask="url(#mask6_427_13338)">
<g filter="url(#filter30_f_427_13338)">
<path d="M65.2596 45.8103C65.204 45.8285 65.1496 45.8501 65.0967 45.8748C64.7548 46.0349 64.4869 46.3499 64.3858 46.7134C64.315 46.9722 64.3245 47.2464 64.4128 47.4997C64.3721 47.3174 64.3721 47.1284 64.4173 46.9474C64.4941 46.6405 64.7089 46.3669 64.9948 46.2313C65.1719 46.1474 65.367 46.1171 65.56 46.0902C65.7453 46.0645 65.9324 46.0396 66.1194 46.0305C66.4084 46.0165 66.7032 46.0349 66.9754 46.1338C67.0388 46.1568 67.1002 46.1858 67.1555 46.2242C67.2108 46.2626 67.259 46.3116 67.2888 46.3721C67.3322 46.4607 67.3319 46.5661 67.3076 46.6616C67.2833 46.7572 67.2392 46.8471 67.1894 46.9324C67.1491 47.0015 67.1047 47.0697 67.0605 47.1366C67.3116 47.0143 67.5603 46.8698 67.7392 46.6567C67.8148 46.5666 67.8782 46.4659 67.907 46.3518C67.9358 46.2378 67.9271 46.1114 67.8704 46.0082C67.8321 45.9387 67.7731 45.8811 67.7068 45.8373C67.6405 45.7935 67.567 45.7625 67.4924 45.7354C67.1631 45.6155 66.8054 45.5779 66.4586 45.6276C66.2328 45.6456 66.0066 45.6704 65.782 45.7013C65.6063 45.7255 65.4281 45.7548 65.26 45.8101L65.2596 45.8103Z" fill="url(#paint22_radial_427_13338)"/>
</g>
</g>
<mask id="mask7_427_13338" style="mask-type:luminance" maskUnits="userSpaceOnUse" x="64" y="45" width="5" height="4">
<path d="M67.9854 46.0638C67.9129 45.9608 67.812 45.8794 67.6999 45.822C67.5879 45.7647 67.4648 45.7307 67.34 45.7131C67.0905 45.6779 66.8374 45.708 66.5861 45.727L65.8753 45.7759C65.6297 45.7989 65.3799 45.8385 65.1615 45.9533C64.9704 46.0536 64.8105 46.2092 64.6942 46.3912C64.578 46.5732 64.5048 46.7809 64.4695 46.9948C64.4068 47.3698 64.4596 47.7587 64.5868 48.117C64.6815 48.3836 64.8255 48.6458 65.0603 48.8041C65.2498 48.9318 65.4832 48.9807 65.7118 48.9866C66.1054 48.9967 66.5014 48.8845 66.8311 48.6694C67.3777 48.3053 67.7927 47.775 68.0149 47.1569C68.0871 46.9546 68.1379 46.7416 68.1293 46.5271C68.1225 46.3626 68.0799 46.1988 67.9857 46.0649" fill="white"/>
</mask>
<g mask="url(#mask7_427_13338)">
<g filter="url(#filter31_f_427_13338)">
<path d="M65.2596 45.8103C65.204 45.8285 65.1496 45.8501 65.0967 45.8748C64.7548 46.0349 64.4869 46.3499 64.3858 46.7134C64.315 46.9722 64.3245 47.2464 64.4128 47.4997C64.3721 47.3174 64.3721 47.1284 64.4173 46.9474C64.4941 46.6405 64.7089 46.3669 64.9948 46.2313C65.1719 46.1474 65.367 46.1171 65.56 46.0902C65.7453 46.0645 65.9324 46.0396 66.1194 46.0305C66.4084 46.0165 66.7032 46.0349 66.9754 46.1338C67.0388 46.1568 67.1002 46.1858 67.1555 46.2242C67.2108 46.2626 67.259 46.3116 67.2888 46.3721C67.3322 46.4607 67.3319 46.5661 67.3076 46.6616C67.2833 46.7572 67.2392 46.8471 67.1894 46.9324C67.1491 47.0015 67.1047 47.0697 67.0605 47.1366C67.3116 47.0143 67.5603 46.8698 67.7392 46.6567C67.8148 46.5666 67.8782 46.4659 67.907 46.3518C67.9358 46.2378 67.9271 46.1114 67.8704 46.0082C67.8321 45.9387 67.7731 45.8811 67.7068 45.8373C67.6405 45.7935 67.567 45.7625 67.4924 45.7354C67.1631 45.6155 66.8054 45.5779 66.4586 45.6276C66.2328 45.6456 66.0066 45.6704 65.782 45.7013C65.6063 45.7255 65.4281 45.7548 65.26 45.8101L65.2596 45.8103Z" fill="url(#paint23_linear_427_13338)"/>
</g>
</g>
<path d="M50.9418 39.4411L49.7784 42.1023C49.5343 42.6534 49.2824 43.2103 49.1868 43.8055C49.1047 44.3169 49.141 44.8388 49.1295 45.3567C49.1165 45.9448 49.0418 46.5302 48.937 47.1089C48.8401 47.6434 48.7175 48.1728 48.5942 48.7018C48.5046 49.0867 48.414 49.4798 48.4525 49.8731C48.483 50.1839 48.5938 50.4833 48.748 50.7549C48.9022 51.0266 49.0973 51.2724 49.3077 51.5039C50.2011 52.4926 51.3455 53.2447 52.5901 53.721C53.1548 53.9372 53.7409 54.098 54.3372 54.1983C54.6603 54.2526 54.9951 54.2887 55.3129 54.2094C55.472 54.1696 55.6248 54.1009 55.7526 53.9984C55.8804 53.896 55.9823 53.759 56.0329 53.6032C56.095 53.4115 56.0766 53.1991 56.0035 53.0114C55.9305 52.8238 55.8055 52.6594 55.6598 52.5203C55.3027 52.1809 54.8345 51.9918 54.3808 51.8014C53.4013 51.3903 52.4389 50.9378 51.5007 50.4395C51.2356 50.2987 50.9692 50.1519 50.7543 49.9427C50.5451 49.7388 50.3931 49.4835 50.266 49.2204C49.9174 48.4988 49.7403 47.6887 49.8035 46.89C49.8282 46.5775 49.8889 46.2692 49.9446 45.9606C50.0408 45.4258 50.123 44.8853 50.3007 44.3718C50.5217 43.7326 50.8882 43.1431 51.0307 42.4819C51.1512 41.924 51.1053 41.345 51.0574 40.7762L50.9418 39.4411Z" fill="#020204"/>
<mask id="mask8_427_13338" style="mask-type:luminance" maskUnits="userSpaceOnUse" x="48" y="39" width="9" height="16">
<path d="M50.9015 39.4726C50.9015 39.4726 50.5492 40.2707 50.3686 40.7518C50.188 41.2329 49.9594 41.5988 49.7781 42.1021C49.5969 42.6053 49.2776 43.2821 49.1866 43.8053C49.0956 44.3285 49.1971 44.8045 49.1293 45.3565C49.0615 45.9085 49.0415 46.5602 48.9368 47.1087C48.832 47.6573 48.6497 48.2597 48.594 48.7016C48.5383 49.1436 48.3585 49.3995 48.4523 49.8729C48.5461 50.3464 48.6232 50.7494 49.3075 51.5037C49.9919 52.2579 51.7009 53.3028 52.5899 53.7208C53.4788 54.1389 53.7617 54.208 54.337 54.1982C54.9123 54.1883 55.8537 54.1242 56.0328 53.6029C56.2118 53.0817 56.1025 52.9228 55.6595 52.5202C55.2165 52.1176 55.0133 52.1054 54.3806 51.8013C53.7478 51.4972 52.04 50.7792 51.5004 50.4395C50.9608 50.0998 50.6705 50.2835 50.754 49.9426C50.8376 49.6017 50.4145 49.5889 50.2657 49.2203C50.0136 48.5954 49.845 47.2594 49.8032 46.8899C49.7614 46.5204 49.8488 46.5534 49.9443 45.9605C50.0398 45.3676 50.1319 44.9539 50.3004 44.3717C50.4688 43.7895 50.912 43.0847 51.0304 42.4819C51.1489 41.879 51.0958 41.2756 51.0571 40.7761C51.0184 40.2766 50.9015 39.4726 50.9015 39.4726Z" fill="white"/>
</mask>
<g mask="url(#mask8_427_13338)">
<g opacity="0.95" filter="url(#filter32_f_427_13338)">
<path d="M50.3734 44.0119C50.1923 44.2979 50.0532 44.6085 49.9604 44.9341C49.808 45.4695 49.7842 46.0312 49.7173 46.5839C49.6675 46.9953 49.5934 47.4147 49.6796 47.82C49.724 48.0281 49.8092 48.2251 49.8712 48.4287C49.9332 48.6323 49.9713 48.851 49.9178 49.0576C49.8739 49.2302 49.7655 49.3856 49.6187 49.4864C49.8589 49.5016 50.0888 49.5894 50.2778 49.7384C50.4348 49.8627 50.5572 50.0244 50.7016 50.1627C50.819 50.2751 50.9523 50.3727 51.1016 50.4375C51.2509 50.5023 51.4165 50.5328 51.5778 50.511C51.6886 50.4952 51.7946 50.4558 51.8888 50.3953C51.9829 50.3348 52.0629 50.2548 52.1232 50.1606C51.424 48.3478 51.0957 46.3931 51.1645 44.4514C51.1688 44.3288 51.1747 44.2049 51.1516 44.0845C51.1285 43.964 51.0731 43.8452 50.976 43.7702C50.9243 43.7303 50.8621 43.7043 50.7974 43.6953C50.7326 43.6862 50.6656 43.6945 50.6052 43.7188C50.5447 43.7431 50.4905 43.7835 50.4499 43.8347C50.4093 43.8859 50.3824 43.9478 50.3726 44.0123L50.3734 44.0119Z" fill="#7C7C7C"/>
</g>
</g>
<mask id="mask9_427_13338" style="mask-type:luminance" maskUnits="userSpaceOnUse" x="46" y="50" width="12" height="10">
<path d="M49.3858 50.5697C49.5329 50.4567 49.7156 50.3944 49.9004 50.3797C50.0852 50.365 50.272 50.3966 50.4472 50.4574C50.7975 50.5793 51.0957 50.8135 51.384 51.047C52.0457 51.5831 52.6932 52.138 53.3041 52.7315C53.7997 53.2128 54.2725 53.7203 54.8118 54.152C55.1639 54.4338 55.5422 54.6815 55.8953 54.9619C56.2483 55.2424 56.5801 55.5609 56.8077 55.9503C57.1034 56.4562 57.2068 57.0734 57.0816 57.6459C56.9936 58.0488 56.7946 58.4272 56.5087 58.7243C56.2228 59.0213 55.8504 59.2349 55.4485 59.3266C54.8096 59.4723 54.1469 59.3111 53.496 59.2343C52.1701 59.0782 50.8283 59.2771 49.4937 59.2364C49.0834 59.2239 48.6741 59.1888 48.2637 59.1861C48.0816 59.185 47.8977 59.1901 47.7179 59.1604C47.5381 59.1308 47.359 59.0625 47.2291 58.9347C47.1288 58.8358 47.0626 58.7054 47.028 58.5687C46.9933 58.4321 46.9892 58.2891 47.0013 58.1487C47.0254 57.8679 47.113 57.596 47.1463 57.3162C47.2008 56.8591 47.1085 56.3962 46.9673 55.958C46.8261 55.5199 46.6362 55.0992 46.4869 54.664C46.4204 54.4696 46.3615 54.2704 46.347 54.0654C46.3326 53.8605 46.3655 53.6474 46.4716 53.4715C46.5694 53.3092 46.7241 53.187 46.8932 53.1016C47.0623 53.0161 47.2464 52.9651 47.4305 52.9201C47.6146 52.8751 47.8005 52.8358 47.979 52.772C48.1576 52.7082 48.3296 52.6182 48.4643 52.4848C48.5922 52.358 48.6814 52.1965 48.7461 52.0284C48.8109 51.8604 48.8524 51.6844 48.8966 51.5097C48.9407 51.3351 48.9878 51.1601 49.0631 50.9965C49.1383 50.8328 49.2432 50.6795 49.386 50.5698" fill="white"/>
</mask>
<g mask="url(#mask9_427_13338)">
<path d="M49.3858 50.5697C49.5329 50.4567 49.7156 50.3944 49.9004 50.3797C50.0852 50.365 50.272 50.3966 50.4472 50.4574C50.7975 50.5793 51.0957 50.8135 51.384 51.047C52.0457 51.5831 52.6932 52.138 53.3041 52.7315C53.7997 53.2128 54.2725 53.7203 54.8118 54.152C55.1639 54.4338 55.5422 54.6815 55.8953 54.9619C56.2483 55.2424 56.5801 55.5609 56.8077 55.9503C57.1034 56.4562 57.2068 57.0734 57.0816 57.6459C56.9936 58.0488 56.7946 58.4272 56.5087 58.7243C56.2228 59.0213 55.8504 59.2349 55.4485 59.3266C54.8096 59.4723 54.1469 59.3111 53.496 59.2343C52.1701 59.0782 50.8283 59.2771 49.4937 59.2364C49.0834 59.2239 48.6741 59.1888 48.2637 59.1861C48.0816 59.185 47.8977 59.1901 47.7179 59.1604C47.5381 59.1308 47.359 59.0625 47.2291 58.9347C47.1288 58.8358 47.0626 58.7054 47.028 58.5687C46.9933 58.4321 46.9892 58.2891 47.0013 58.1487C47.0254 57.8679 47.113 57.596 47.1463 57.3162C47.2008 56.8591 47.1085 56.3962 46.9673 55.958C46.8261 55.5199 46.6362 55.0992 46.4869 54.664C46.4204 54.4696 46.3615 54.2704 46.347 54.0654C46.3326 53.8605 46.3655 53.6474 46.4716 53.4715C46.5694 53.3092 46.7241 53.187 46.8932 53.1016C47.0623 53.0161 47.2464 52.9651 47.4305 52.9201C47.6146 52.8751 47.8005 52.8358 47.979 52.772C48.1576 52.7082 48.3296 52.6182 48.4643 52.4848C48.5922 52.358 48.6814 52.1965 48.7461 52.0284C48.8109 51.8604 48.8524 51.6844 48.8966 51.5097C48.9407 51.3351 48.9878 51.1601 49.0631 50.9965C49.1383 50.8328 49.2432 50.6795 49.386 50.5698L49.3858 50.5697Z" fill="url(#paint24_linear_427_13338)"/>
<g filter="url(#filter33_f_427_13338)">
<path d="M49.7232 50.7853C49.8575 50.6843 50.0253 50.6323 50.1931 50.6257C50.3609 50.6191 50.5288 50.6577 50.6831 50.7214C50.9926 50.8507 51.2456 51.0823 51.4904 51.3113C52.0794 51.8668 52.6611 52.4318 53.2243 53.0165C53.65 53.4561 54.0654 53.9104 54.5456 54.2904C54.8642 54.5423 55.2087 54.7592 55.5312 55.0062C55.8537 55.2533 56.1575 55.535 56.3645 55.8844C56.6312 56.3348 56.72 56.887 56.6044 57.3985C56.5204 57.7675 56.335 58.1057 56.0692 58.375C55.8023 58.6435 55.4641 58.8298 55.0946 58.9121C54.5082 59.0406 53.9018 58.893 53.304 58.843C52.157 58.7437 51.0105 58.9964 49.8589 58.9876C49.4466 58.9863 49.0346 58.9475 48.6223 58.9537C48.4398 58.9563 48.2564 58.9677 48.0757 58.9426C47.895 58.9176 47.7136 58.8523 47.5847 58.7233C47.4888 58.6273 47.4268 58.5007 47.3957 58.3687C47.3647 58.2366 47.3637 58.1 47.3761 57.9643C47.4038 57.6944 47.4914 57.4344 47.5197 57.1634C47.5634 56.7554 47.472 56.3441 47.3396 55.9557C47.2071 55.5674 47.0334 55.1939 46.9033 54.8047C46.8451 54.6306 46.7955 54.4521 46.7848 54.2691C46.7742 54.0861 46.8047 53.8978 46.8972 53.7386C46.9975 53.5665 47.166 53.4422 47.3483 53.3623C47.5306 53.2824 47.7273 53.2432 47.9232 53.209C48.1191 53.1748 48.3169 53.1449 48.5057 53.082C48.6946 53.0191 48.8767 52.9201 49.0064 52.7696C49.1248 52.6331 49.1951 52.4613 49.2368 52.2867C49.2785 52.1121 49.2936 51.9327 49.3132 51.7542C49.3328 51.5758 49.3578 51.3961 49.4184 51.227C49.479 51.058 49.5775 50.8955 49.7225 50.7868" fill="#D99A03"/>
</g>
<g filter="url(#filter34_f_427_13338)">
<path d="M49.483 50.4466C49.6095 50.3351 49.7772 50.2743 49.9459 50.264C50.1146 50.2538 50.2837 50.2922 50.4371 50.3607C50.7435 50.4964 50.9816 50.7457 51.2071 50.9913C51.7248 51.5555 52.2228 52.1403 52.7975 52.6482C53.2142 53.0157 53.6688 53.3423 54.0885 53.7077C54.6577 54.2031 55.167 54.7795 55.4945 55.4553C55.7148 55.9098 55.8503 56.4272 55.7353 56.9217C55.6593 57.2466 55.4758 57.5466 55.2235 57.7694C54.9713 57.9922 54.6532 58.1419 54.3199 58.2004C53.7952 58.2925 53.2621 58.1653 52.7326 58.1188C51.7928 58.0362 50.8476 58.2097 49.9034 58.2104C49.5052 58.2107 49.108 58.1801 48.7095 58.2036C48.534 58.2133 48.3578 58.2335 48.1831 58.2161C48.0084 58.1986 47.8315 58.1398 47.7111 58.0148C47.6265 57.9268 47.5748 57.8112 47.5521 57.6918C47.5293 57.5725 47.5336 57.449 47.5506 57.3283C47.5843 57.0868 47.6668 56.8517 47.6792 56.6081C47.6957 56.2507 47.557 55.905 47.3881 55.5897C47.2192 55.2744 47.0174 54.9747 46.8905 54.6406C46.834 54.4918 46.7925 54.3358 46.7872 54.1765C46.7819 54.0173 46.8148 53.8542 46.898 53.7167C47.005 53.5397 47.1884 53.4167 47.3839 53.3437C47.5793 53.2706 47.7885 53.2429 47.9956 53.2179C48.2027 53.1929 48.4121 53.1716 48.6108 53.1075C48.8096 53.0433 49.0006 52.9366 49.1254 52.771C49.2487 52.6072 49.2982 52.3994 49.3041 52.1964C49.31 51.9935 49.2756 51.7922 49.2466 51.5915C49.2176 51.3909 49.1936 51.1869 49.2206 50.9854C49.2475 50.7839 49.33 50.5827 49.4843 50.4468L49.483 50.4466Z" fill="#F5BD0C"/>
</g>
<g filter="url(#filter35_f_427_13338)">
<path d="M51.748 51.5945C52.1483 52.0098 52.4628 52.5254 52.8619 52.9455C53.2292 53.3319 53.6339 53.7227 53.9957 54.0729C54.1567 54.2288 54.4927 54.4449 54.8739 54.8176C55.2192 55.1553 55.6094 55.6514 55.7943 55.8036C55.658 55.6039 55.3408 55.0549 55.0385 54.684C54.757 54.3369 54.4898 54.1676 54.3061 53.9897C53.9443 53.6395 53.5748 53.3367 53.2113 53.0078C52.7099 52.5542 52.2753 52.0127 51.7481 51.5946L51.748 51.5945Z" fill="url(#paint25_linear_427_13338)"/>
</g>
</g>
</g>
</g>
<defs>
<filter id="filter0_i_427_13338" x="0" y="0" width="112.467" height="85.1253" filterUnits="userSpaceOnUse" color-interpolation-filters="sRGB">
<feFlood flood-opacity="0" result="BackgroundImageFix"/>
<feBlend mode="normal" in="SourceGraphic" in2="BackgroundImageFix" result="shape"/>
<feColorMatrix in="SourceAlpha" type="matrix" values="0 0 0 0 0 0 0 0 0 0 0 0 0 0 0 0 0 0 127 0" result="hardAlpha"/>
<feMorphology radius="2" operator="erode" in="SourceAlpha" result="effect1_innerShadow_427_13338"/>
<feOffset/>
<feGaussianBlur stdDeviation="7.5"/>
<feComposite in2="hardAlpha" operator="arithmetic" k2="-1" k3="1"/>
<feColorMatrix type="matrix" values="0 0 0 0 0 0 0 0 0 0 0 0 0 0 0 0 0 0 0.25 0"/>
<feBlend mode="normal" in2="shape" result="effect1_innerShadow_427_13338"/>
</filter>
<filter id="filter1_f_427_13338" x="50.3381" y="34.295" width="8.68413" height="6.61763" filterUnits="userSpaceOnUse" color-interpolation-filters="sRGB">
<feFlood flood-opacity="0" result="BackgroundImageFix"/>
<feBlend mode="normal" in="SourceGraphic" in2="BackgroundImageFix" result="shape"/>
<feGaussianBlur stdDeviation="0.436168" result="effect1_foregroundBlur_427_13338"/>
</filter>
<filter id="filter2_f_427_13338" x="50.8023" y="34.4822" width="7.0243" height="4.58363" filterUnits="userSpaceOnUse" color-interpolation-filters="sRGB">
<feFlood flood-opacity="0" result="BackgroundImageFix"/>
<feBlend mode="normal" in="SourceGraphic" in2="BackgroundImageFix" result="shape"/>
<feGaussianBlur stdDeviation="0.191623" result="effect1_foregroundBlur_427_13338"/>
</filter>
<filter id="filter3_f_427_13338" x="50.4574" y="33.3954" width="7.25268" height="4.67926" filterUnits="userSpaceOnUse" color-interpolation-filters="sRGB">
<feFlood flood-opacity="0" result="BackgroundImageFix"/>
<feBlend mode="normal" in="SourceGraphic" in2="BackgroundImageFix" result="shape"/>
<feGaussianBlur stdDeviation="0.291564" result="effect1_foregroundBlur_427_13338"/>
</filter>
<filter id="filter4_f_427_13338" x="53.4677" y="27.2291" width="3.5798" height="3.43484" filterUnits="userSpaceOnUse" color-interpolation-filters="sRGB">
<feFlood flood-opacity="0" result="BackgroundImageFix"/>
<feBlend mode="normal" in="SourceGraphic" in2="BackgroundImageFix" result="shape"/>
<feGaussianBlur stdDeviation="0.429496" result="effect1_foregroundBlur_427_13338"/>
</filter>
<filter id="filter5_f_427_13338" x="55.1033" y="32.8986" width="0.59716" height="0.566307" filterUnits="userSpaceOnUse" color-interpolation-filters="sRGB">
<feFlood flood-opacity="0" result="BackgroundImageFix"/>
<feBlend mode="normal" in="SourceGraphic" in2="BackgroundImageFix" result="shape"/>
<feGaussianBlur stdDeviation="0.0533428" result="effect1_foregroundBlur_427_13338"/>
</filter>
<filter id="filter6_f_427_13338" x="54.8396" y="32.3905" width="1.32657" height="1.01117" filterUnits="userSpaceOnUse" color-interpolation-filters="sRGB">
<feFlood flood-opacity="0" result="BackgroundImageFix"/>
<feBlend mode="normal" in="SourceGraphic" in2="BackgroundImageFix" result="shape"/>
<feGaussianBlur stdDeviation="0.111184" result="effect1_foregroundBlur_427_13338"/>
</filter>
<filter id="filter7_f_427_13338" x="54.7427" y="30.5259" width="2.00768" height="1.23452" filterUnits="userSpaceOnUse" color-interpolation-filters="sRGB">
<feFlood flood-opacity="0" result="BackgroundImageFix"/>
<feBlend mode="normal" in="SourceGraphic" in2="BackgroundImageFix" result="shape"/>
<feGaussianBlur stdDeviation="0.0317057" result="effect1_foregroundBlur_427_13338"/>
</filter>
<filter id="filter8_f_427_13338" x="50.4744" y="31.8445" width="1.94771" height="1.09222" filterUnits="userSpaceOnUse" color-interpolation-filters="sRGB">
<feFlood flood-opacity="0" result="BackgroundImageFix"/>
<feBlend mode="normal" in="SourceGraphic" in2="BackgroundImageFix" result="shape"/>
<feGaussianBlur stdDeviation="0.0289208" result="effect1_foregroundBlur_427_13338"/>
</filter>
<filter id="filter9_f_427_13338" x="51.0073" y="33.5264" width="1.14419" height="1.2419" filterUnits="userSpaceOnUse" color-interpolation-filters="sRGB">
<feFlood flood-opacity="0" result="BackgroundImageFix"/>
<feBlend mode="normal" in="SourceGraphic" in2="BackgroundImageFix" result="shape"/>
<feGaussianBlur stdDeviation="0.109899" result="effect1_foregroundBlur_427_13338"/>
</filter>
<filter id="filter10_f_427_13338" x="52.4141" y="36.4403" width="2.27573" height="1.88126" filterUnits="userSpaceOnUse" color-interpolation-filters="sRGB">
<feFlood flood-opacity="0" result="BackgroundImageFix"/>
<feBlend mode="normal" in="SourceGraphic" in2="BackgroundImageFix" result="shape"/>
<feGaussianBlur stdDeviation="0.192591" result="effect1_foregroundBlur_427_13338"/>
</filter>
<filter id="filter11_f_427_13338" x="50.9951" y="34.4901" width="6.0055" height="3.56958" filterUnits="userSpaceOnUse" color-interpolation-filters="sRGB">
<feFlood flood-opacity="0" result="BackgroundImageFix"/>
<feBlend mode="normal" in="SourceGraphic" in2="BackgroundImageFix" result="shape"/>
<feGaussianBlur stdDeviation="0.162385" result="effect1_foregroundBlur_427_13338"/>
</filter>
<filter id="filter12_f_427_13338" x="53.4033" y="34.5578" width="1.75291" height="2.6042" filterUnits="userSpaceOnUse" color-interpolation-filters="sRGB">
<feFlood flood-opacity="0" result="BackgroundImageFix"/>
<feBlend mode="normal" in="SourceGraphic" in2="BackgroundImageFix" result="shape"/>
<feGaussianBlur stdDeviation="0.18188" result="effect1_foregroundBlur_427_13338"/>
</filter>
<filter id="filter13_f_427_13338" x="53.6516" y="34.325" width="0.715354" height="0.363029" filterUnits="userSpaceOnUse" color-interpolation-filters="sRGB">
<feFlood flood-opacity="0" result="BackgroundImageFix"/>
<feBlend mode="normal" in="SourceGraphic" in2="BackgroundImageFix" result="shape"/>
<feGaussianBlur stdDeviation="0.0235651" result="effect1_foregroundBlur_427_13338"/>
</filter>
<filter id="filter14_f_427_13338" x="52.303" y="34.7647" width="0.305686" height="0.386405" filterUnits="userSpaceOnUse" color-interpolation-filters="sRGB">
<feFlood flood-opacity="0" result="BackgroundImageFix"/>
<feBlend mode="normal" in="SourceGraphic" in2="BackgroundImageFix" result="shape"/>
<feGaussianBlur stdDeviation="0.0235651" result="effect1_foregroundBlur_427_13338"/>
</filter>
<filter id="filter15_f_427_13338" x="56.4796" y="34.3955" width="0.895211" height="1.0626" filterUnits="userSpaceOnUse" color-interpolation-filters="sRGB">
<feFlood flood-opacity="0" result="BackgroundImageFix"/>
<feBlend mode="normal" in="SourceGraphic" in2="BackgroundImageFix" result="shape"/>
<feGaussianBlur stdDeviation="0.073168" result="effect1_foregroundBlur_427_13338"/>
</filter>
<filter id="filter16_f_427_13338" x="60.7812" y="39.567" width="5.23537" height="9.10482" filterUnits="userSpaceOnUse" color-interpolation-filters="sRGB">
<feFlood flood-opacity="0" result="BackgroundImageFix"/>
<feBlend mode="normal" in="SourceGraphic" in2="BackgroundImageFix" result="shape"/>
<feGaussianBlur stdDeviation="0.292242" result="effect1_foregroundBlur_427_13338"/>
</filter>
<filter id="filter17_f_427_13338" x="50.4648" y="40.9572" width="3.73798" height="4.41287" filterUnits="userSpaceOnUse" color-interpolation-filters="sRGB">
<feFlood flood-opacity="0" result="BackgroundImageFix"/>
<feBlend mode="normal" in="SourceGraphic" in2="BackgroundImageFix" result="shape"/>
<feGaussianBlur stdDeviation="0.147995" result="effect1_foregroundBlur_427_13338"/>
</filter>
<filter id="filter18_f_427_13338" x="55.2487" y="38.2345" width="7.14265" height="4.48002" filterUnits="userSpaceOnUse" color-interpolation-filters="sRGB">
<feFlood flood-opacity="0" result="BackgroundImageFix"/>
<feBlend mode="normal" in="SourceGraphic" in2="BackgroundImageFix" result="shape"/>
<feGaussianBlur stdDeviation="0.243791" result="effect1_foregroundBlur_427_13338"/>
</filter>
<filter id="filter19_f_427_13338" x="53.1925" y="40.2487" width="2.91047" height="3.13905" filterUnits="userSpaceOnUse" color-interpolation-filters="sRGB">
<feFlood flood-opacity="0" result="BackgroundImageFix"/>
<feBlend mode="normal" in="SourceGraphic" in2="BackgroundImageFix" result="shape"/>
<feGaussianBlur stdDeviation="0.168169" result="effect1_foregroundBlur_427_13338"/>
</filter>
<filter id="filter20_f_427_13338" x="54.0582" y="43.6595" width="2.82015" height="7.47246" filterUnits="userSpaceOnUse" color-interpolation-filters="sRGB">
<feFlood flood-opacity="0" result="BackgroundImageFix"/>
<feBlend mode="normal" in="SourceGraphic" in2="BackgroundImageFix" result="shape"/>
<feGaussianBlur stdDeviation="0.309774" result="effect1_foregroundBlur_427_13338"/>
</filter>
<filter id="filter21_f_427_13338" x="58.1193" y="34.9959" width="2.25157" height="1.99885" filterUnits="userSpaceOnUse" color-interpolation-filters="sRGB">
<feFlood flood-opacity="0" result="BackgroundImageFix"/>
<feBlend mode="normal" in="SourceGraphic" in2="BackgroundImageFix" result="shape"/>
<feGaussianBlur stdDeviation="0.193019" result="effect1_foregroundBlur_427_13338"/>
</filter>
<filter id="filter22_f_427_13338" x="61.2675" y="46.7505" width="9.8845" height="10.8468" filterUnits="userSpaceOnUse" color-interpolation-filters="sRGB">
<feFlood flood-opacity="0" result="BackgroundImageFix"/>
<feBlend mode="normal" in="SourceGraphic" in2="BackgroundImageFix" result="shape"/>
<feGaussianBlur stdDeviation="0.479548" result="effect1_foregroundBlur_427_13338"/>
</filter>
<filter id="filter23_f_427_13338" x="61.1824" y="44.5776" width="12.8178" height="13.029" filterUnits="userSpaceOnUse" color-interpolation-filters="sRGB">
<feFlood flood-opacity="0" result="BackgroundImageFix"/>
<feBlend mode="normal" in="SourceGraphic" in2="BackgroundImageFix" result="shape"/>
<feGaussianBlur stdDeviation="1.0238" result="effect1_foregroundBlur_427_13338"/>
</filter>
<filter id="filter24_f_427_13338" x="61.3021" y="44.4995" width="12.1781" height="11.5938" filterUnits="userSpaceOnUse" color-interpolation-filters="sRGB">
<feFlood flood-opacity="0" result="BackgroundImageFix"/>
<feBlend mode="normal" in="SourceGraphic" in2="BackgroundImageFix" result="shape"/>
<feGaussianBlur stdDeviation="0.806721" result="effect1_foregroundBlur_427_13338"/>
</filter>
<filter id="filter25_f_427_13338" x="62.7738" y="46.347" width="6.284" height="1.99206" filterUnits="userSpaceOnUse" color-interpolation-filters="sRGB">
<feFlood flood-opacity="0" result="BackgroundImageFix"/>
<feBlend mode="normal" in="SourceGraphic" in2="BackgroundImageFix" result="shape"/>
<feGaussianBlur stdDeviation="0.102615" result="effect1_foregroundBlur_427_13338"/>
</filter>
<filter id="filter26_f_427_13338" x="61.9129" y="40.3239" width="2.99982" height="3.08115" filterUnits="userSpaceOnUse" color-interpolation-filters="sRGB">
<feFlood flood-opacity="0" result="BackgroundImageFix"/>
<feBlend mode="normal" in="SourceGraphic" in2="BackgroundImageFix" result="shape"/>
<feGaussianBlur stdDeviation="0.491044" result="effect1_foregroundBlur_427_13338"/>
</filter>
<filter id="filter27_f_427_13338" x="50.4602" y="39.7479" width="0.957932" height="1.04073" filterUnits="userSpaceOnUse" color-interpolation-filters="sRGB">
<feFlood flood-opacity="0" result="BackgroundImageFix"/>
<feBlend mode="normal" in="SourceGraphic" in2="BackgroundImageFix" result="shape"/>
<feGaussianBlur stdDeviation="0.137066" result="effect1_foregroundBlur_427_13338"/>
</filter>
<filter id="filter28_f_427_13338" x="63.2336" y="45.863" width="5.92925" height="5.79747" filterUnits="userSpaceOnUse" color-interpolation-filters="sRGB">
<feFlood flood-opacity="0" result="BackgroundImageFix"/>
<feBlend mode="normal" in="SourceGraphic" in2="BackgroundImageFix" result="shape"/>
<feGaussianBlur stdDeviation="0.609264" result="effect1_foregroundBlur_427_13338"/>
</filter>
<filter id="filter29_f_427_13338" x="63.9216" y="46.5645" width="4.42545" height="3.54227" filterUnits="userSpaceOnUse" color-interpolation-filters="sRGB">
<feFlood flood-opacity="0" result="BackgroundImageFix"/>
<feBlend mode="normal" in="SourceGraphic" in2="BackgroundImageFix" result="shape"/>
<feGaussianBlur stdDeviation="0.236245" result="effect1_foregroundBlur_427_13338"/>
</filter>
<filter id="filter30_f_427_13338" x="63.8997" y="45.1671" width="4.46232" height="2.7718" filterUnits="userSpaceOnUse" color-interpolation-filters="sRGB">
<feFlood flood-opacity="0" result="BackgroundImageFix"/>
<feBlend mode="normal" in="SourceGraphic" in2="BackgroundImageFix" result="shape"/>
<feGaussianBlur stdDeviation="0.219584" result="effect1_foregroundBlur_427_13338"/>
</filter>
<filter id="filter31_f_427_13338" x="63.8997" y="45.1671" width="4.46232" height="2.7718" filterUnits="userSpaceOnUse" color-interpolation-filters="sRGB">
<feFlood flood-opacity="0" result="BackgroundImageFix"/>
<feBlend mode="normal" in="SourceGraphic" in2="BackgroundImageFix" result="shape"/>
<feGaussianBlur stdDeviation="0.219584" result="effect1_foregroundBlur_427_13338"/>
</filter>
<filter id="filter32_f_427_13338" x="49.1336" y="43.2067" width="3.47442" height="7.79629" filterUnits="userSpaceOnUse" color-interpolation-filters="sRGB">
<feFlood flood-opacity="0" result="BackgroundImageFix"/>
<feBlend mode="normal" in="SourceGraphic" in2="BackgroundImageFix" result="shape"/>
<feGaussianBlur stdDeviation="0.242506" result="effect1_foregroundBlur_427_13338"/>
</filter>
<filter id="filter33_f_427_13338" x="45.1015" y="48.9437" width="13.2341" height="11.7254" filterUnits="userSpaceOnUse" color-interpolation-filters="sRGB">
<feFlood flood-opacity="0" result="BackgroundImageFix"/>
<feBlend mode="normal" in="SourceGraphic" in2="BackgroundImageFix" result="shape"/>
<feGaussianBlur stdDeviation="0.840631" result="effect1_foregroundBlur_427_13338"/>
</filter>
<filter id="filter34_f_427_13338" x="45.7519" y="49.2277" width="11.0602" height="10.0401" filterUnits="userSpaceOnUse" color-interpolation-filters="sRGB">
<feFlood flood-opacity="0" result="BackgroundImageFix"/>
<feBlend mode="normal" in="SourceGraphic" in2="BackgroundImageFix" result="shape"/>
<feGaussianBlur stdDeviation="0.517366" result="effect1_foregroundBlur_427_13338"/>
</filter>
<filter id="filter35_f_427_13338" x="51.5895" y="51.4359" width="4.36344" height="4.52622" filterUnits="userSpaceOnUse" color-interpolation-filters="sRGB">
<feFlood flood-opacity="0" result="BackgroundImageFix"/>
<feBlend mode="normal" in="SourceGraphic" in2="BackgroundImageFix" result="shape"/>
<feGaussianBlur stdDeviation="0.0792644" result="effect1_foregroundBlur_427_13338"/>
</filter>
<radialGradient id="paint0_radial_427_13338" cx="0" cy="0" r="1" gradientUnits="userSpaceOnUse" gradientTransform="translate(592.484 507.068) rotate(-17.41) scale(26.6585 65.2506)">
<stop stop-color="#FEFEFC"/>
<stop offset="0.757" stop-color="#FEFEFC"/>
<stop offset="1" stop-color="#D4D4D4"/>
</radialGradient>
<radialGradient id="paint1_radial_427_13338" cx="0" cy="0" r="1" gradientUnits="userSpaceOnUse" gradientTransform="translate(917.617 449.52) rotate(-16.81) scale(47.7281 68.9715)">
<stop stop-color="#FEFEFC"/>
<stop offset="0.757" stop-color="#FEFEFC"/>
<stop offset="1" stop-color="#D4D4D4"/>
</radialGradient>
<radialGradient id="paint2_radial_427_13338" cx="0" cy="0" r="1" gradientUnits="userSpaceOnUse" gradientTransform="translate(747.993 -375.209) rotate(-51.0085) scale(43.7269 29.0077)">
<stop stop-color="#020204"/>
<stop offset="0.734" stop-color="#020204"/>
<stop offset="1" stop-color="#5C5C5C"/>
</radialGradient>
<linearGradient id="paint3_linear_427_13338" x1="299.104" y1="68.4868" x2="305.406" y2="72.9376" gradientUnits="userSpaceOnUse">
<stop stop-color="#949494" stop-opacity="0.392"/>
<stop offset="0.5" stop-color="#949494"/>
<stop offset="1" stop-color="#949494" stop-opacity="0.392"/>
</linearGradient>
<linearGradient id="paint4_linear_427_13338" x1="606.516" y1="342.263" x2="711.66" y2="389.959" gradientUnits="userSpaceOnUse">
<stop stop-color="#747474"/>
<stop offset="0.125" stop-color="#8C8C8C"/>
<stop offset="0.25" stop-color="#A4A4A4"/>
<stop offset="0.5" stop-color="#D4D4D4"/>
<stop offset="0.619" stop-color="#D4D4D4"/>
<stop offset="1" stop-color="#7C7C7C"/>
</linearGradient>
<linearGradient id="paint5_linear_427_13338" x1="120.806" y1="178.659" x2="147.404" y2="194.423" gradientUnits="userSpaceOnUse">
<stop stop-color="#646464" stop-opacity="0"/>
<stop offset="0.306" stop-color="#646464" stop-opacity="0.583"/>
<stop offset="0.47" stop-color="#646464"/>
<stop offset="0.728" stop-color="#646464" stop-opacity="0.257"/>
<stop offset="1" stop-color="#646464" stop-opacity="0"/>
</linearGradient>
<linearGradient id="paint6_linear_427_13338" x1="49.5617" y1="181.353" x2="72.0938" y2="195.772" gradientUnits="userSpaceOnUse">
<stop stop-color="#646464" stop-opacity="0"/>
<stop offset="0.306" stop-color="#646464" stop-opacity="0.583"/>
<stop offset="0.47" stop-color="#646464"/>
<stop offset="0.728" stop-color="#646464" stop-opacity="0.257"/>
<stop offset="1" stop-color="#646464" stop-opacity="0"/>
</linearGradient>
<linearGradient id="paint7_linear_427_13338" x1="171.108" y1="124.987" x2="178.809" y2="130.006" gradientUnits="userSpaceOnUse">
<stop stop-color="#757574" stop-opacity="0"/>
<stop offset="0.263" stop-color="#757574"/>
<stop offset="0.5" stop-color="#757574"/>
<stop offset="1" stop-color="#757574" stop-opacity="0"/>
</linearGradient>
<radialGradient id="paint8_radial_427_13338" cx="0" cy="0" r="1" gradientUnits="userSpaceOnUse" gradientTransform="translate(1850.34 -782.724) rotate(-37.428) scale(206.022 71.576)">
<stop stop-color="#D2940A"/>
<stop offset="0.751" stop-color="#D89C08"/>
<stop offset="0.866" stop-color="#B67E07"/>
<stop offset="1" stop-color="#946106"/>
</radialGradient>
<linearGradient id="paint9_linear_427_13338" x1="476.363" y1="454.638" x2="827.265" y2="354.752" gradientUnits="userSpaceOnUse">
<stop stop-color="#AD780A"/>
<stop offset="0.12" stop-color="#D89E08"/>
<stop offset="0.255" stop-color="#EDB80B"/>
<stop offset="0.392" stop-color="#EBC80D"/>
<stop offset="0.527" stop-color="#F5D838"/>
<stop offset="0.769" stop-color="#F6D811"/>
<stop offset="1" stop-color="#F5CD31"/>
</linearGradient>
<radialGradient id="paint10_radial_427_13338" cx="0" cy="0" r="1" gradientUnits="userSpaceOnUse" gradientTransform="translate(106.284 48.6965) rotate(-15) scale(1.95973 0.599967)">
<stop stop-color="#3A2903"/>
<stop offset="0.555" stop-color="#735208"/>
<stop offset="1" stop-color="#AC8C04"/>
</radialGradient>
<radialGradient id="paint11_radial_427_13338" cx="0" cy="0" r="1" gradientUnits="userSpaceOnUse" gradientTransform="translate(78.1763 72.0008) rotate(-15) scale(0.373935 0.443281)">
<stop stop-color="#3A2903"/>
<stop offset="0.555" stop-color="#735208"/>
<stop offset="1" stop-color="#AC8C04"/>
</radialGradient>
<linearGradient id="paint12_linear_427_13338" x1="218.169" y1="114.407" x2="219.065" y2="116.251" gradientUnits="userSpaceOnUse">
<stop stop-color="#F5CE2D"/>
<stop offset="1" stop-color="#D79B08"/>
</linearGradient>
<radialGradient id="paint13_radial_427_13338" cx="0" cy="0" r="1" gradientUnits="userSpaceOnUse" gradientTransform="translate(454.028 -58.3256) rotate(-24.3494) scale(54.3678 23.3202)">
<stop stop-color="#C8C8C8"/>
<stop offset="1" stop-color="#797978"/>
</radialGradient>
<radialGradient id="paint14_radial_427_13338" cx="0" cy="0" r="1" gradientUnits="userSpaceOnUse" gradientTransform="translate(-627.256 847.012) rotate(165) scale(73.169 74.8226)">
<stop/>
<stop offset="1" stop-opacity="0.25"/>
</radialGradient>
<radialGradient id="paint15_radial_427_13338" cx="0" cy="0" r="1" gradientUnits="userSpaceOnUse" gradientTransform="translate(1948.76 278.101) rotate(-15) scale(157.796 83.5035)">
<stop/>
<stop offset="1" stop-opacity="0.25"/>
</radialGradient>
<radialGradient id="paint16_radial_427_13338" cx="0" cy="0" r="1" gradientUnits="userSpaceOnUse" gradientTransform="translate(796.267 459.733) rotate(-15) scale(25.1997 28.8063)">
<stop/>
<stop offset="1" stop-opacity="0.25"/>
</radialGradient>
<linearGradient id="paint17_linear_427_13338" x1="968.894" y1="2597.74" x2="1060.39" y2="2810.23" gradientUnits="userSpaceOnUse">
<stop/>
<stop offset="1" stop-opacity="0"/>
</linearGradient>
<linearGradient id="paint18_linear_427_13338" x1="4936.26" y1="2416.72" x2="5196.58" y2="1589.16" gradientUnits="userSpaceOnUse">
<stop stop-color="#3E2A06"/>
<stop offset="1" stop-color="#AD780A"/>
</linearGradient>
<linearGradient id="paint19_linear_427_13338" x1="391.533" y1="245.584" x2="394.499" y2="257.506" gradientUnits="userSpaceOnUse">
<stop stop-color="#F3CD0C"/>
<stop offset="1" stop-color="#F3CD0C" stop-opacity="0"/>
</linearGradient>
<radialGradient id="paint20_radial_427_13338" cx="0" cy="0" r="1" gradientUnits="userSpaceOnUse" gradientTransform="translate(1813.63 1393.86) scale(83.2109 74.7946)">
<stop stop-color="#110800"/>
<stop offset="0.591" stop-color="#A65A00" stop-opacity="0.8"/>
<stop offset="1" stop-color="#FF921E" stop-opacity="0"/>
</radialGradient>
<radialGradient id="paint21_radial_427_13338" cx="0" cy="0" r="1" gradientUnits="userSpaceOnUse" gradientTransform="translate(1687.92 924.694) rotate(-4.03717) scale(81.8696 54.9567)">
<stop stop-color="#110800"/>
<stop offset="0.591" stop-color="#A65A00" stop-opacity="0.8"/>
<stop offset="1" stop-color="#FF921E" stop-opacity="0"/>
</radialGradient>
<radialGradient id="paint22_radial_427_13338" cx="0" cy="0" r="1" gradientUnits="userSpaceOnUse" gradientTransform="translate(609.917 207.185) rotate(8.52173) scale(30.1877 6.52651)">
<stop stop-color="#7C7C7C"/>
<stop offset="1" stop-color="#7C7C7C" stop-opacity="0.33"/>
</radialGradient>
<linearGradient id="paint23_linear_427_13338" x1="1486.04" y1="171.26" x2="1496.56" y2="167.413" gradientUnits="userSpaceOnUse">
<stop stop-color="#7C7C7C"/>
<stop offset="1" stop-color="#7C7C7C" stop-opacity="0.33"/>
</linearGradient>
<linearGradient id="paint24_linear_427_13338" x1="2047.34" y1="2667.25" x2="2720.89" y2="3328.66" gradientUnits="userSpaceOnUse">
<stop stop-color="#B98309"/>
<stop offset="1" stop-color="#382605"/>
</linearGradient>
<linearGradient id="paint25_linear_427_13338" x1="943.877" y1="1518.19" x2="1058.26" y2="1587.09" gradientUnits="userSpaceOnUse">
<stop stop-color="#EBC40C"/>
<stop offset="1" stop-color="#EBC40C" stop-opacity="0"/>
</linearGradient>
<clipPath id="clip0_427_13338">
<rect width="32" height="32" fill="white" transform="translate(36.6377 31.249) rotate(-15)"/>
</clipPath>
</defs>
</svg>
