<svg width="114" height="86" viewBox="0 0 114 86" fill="none" xmlns="http://www.w3.org/2000/svg">
<g filter="url(#filter0_i_427_12573)">
<g clip-path="url(#clip0_427_12573)">
<rect x="0.889648" y="26.4903" width="100" height="61.3333" rx="12" transform="rotate(-15 0.889648 26.4903)" fill="#FCFFFC"/>
<g clip-path="url(#clip1_427_12573)">
<path d="M22.9254 70.0913L25.4712 69.4092L22.7501 59.254L29.0642 67.0542C29.8151 67.9972 30.5548 68.2101 31.8029 67.8757C33.0511 67.5412 33.5614 66.9979 33.7398 65.8013L35.3083 55.8891L38.0304 66.0481L40.5765 65.3658L37.8589 55.2236C37.5938 54.2342 37.0732 53.8608 36.1995 53.8301C34.1023 53.7382 32.9461 54.6136 32.7125 56.0901L31.187 65.8666L25.098 58.1263C24.1816 56.9579 22.7184 56.7844 20.9482 57.9126C20.2063 58.3766 19.9428 58.96 20.2078 59.9491L22.9254 70.0913ZM40.4759 56.5265L43.0209 55.8445L44.5207 61.4418C44.5784 61.7525 44.8901 62.434 46.2904 62.082C47.0051 61.9028 51.7819 60.6106 51.8264 60.5987L50.0405 53.9338L52.5912 53.2503C52.6025 53.2473 55.0236 62.3386 55.0344 62.3774C55.6488 64.6149 53.0132 65.843 51.7488 66.2222L43.7104 68.3761L43.2466 66.645L51.2992 64.487C52.8905 63.8726 52.4769 63.1019 52.4026 62.8247L52.2218 62.1498L46.8111 63.5996C44.2875 64.2513 42.3871 63.5701 42.0248 62.2981C41.9923 62.1843 40.5472 56.5662 40.4766 56.5259L40.4759 56.5265Z" fill="#00618A"/>
<path d="M56.7763 61.0209L64.0955 59.0598C64.952 58.8303 65.7362 58.426 66.3135 57.935C67.2784 57.1289 67.6312 56.2918 67.3881 55.3847L66.8844 53.505C66.6855 52.7626 65.888 52.2342 64.5652 52.0937C63.8622 52.0164 63.0437 52.0948 62.2849 52.2981L59.2003 53.1246C58.1725 53.4 57.5988 53.2178 57.291 52.5582C57.2444 52.4824 57.2256 52.4122 57.2046 52.3337L56.8909 51.1631C56.8733 51.0972 56.8555 51.0308 56.8579 50.9419C56.8388 50.3814 57.0683 50.1605 57.9508 49.8317C58.0244 49.812 58.1176 49.769 58.1916 49.7492L65.4617 47.8012L65.0022 46.0866L57.8544 48.0018C56.8262 48.2773 56.3055 48.4876 55.8554 48.7671C54.4646 49.6527 54.0079 50.5924 54.3614 51.9116L54.7635 53.4124C55.0728 54.5669 56.6359 55.2085 58.8756 54.8557C59.1252 54.8063 59.3741 54.7572 59.6186 54.6917L62.2625 53.9833C62.3606 53.957 62.4587 53.9307 62.5364 53.9279C63.3615 53.7775 63.7446 53.8338 64.0686 54.0649C64.2604 54.177 64.3445 54.3098 64.3874 54.4699L64.7895 55.9707C64.8381 56.1521 64.7778 56.416 64.5858 56.6791C64.4186 56.9364 64.0867 57.1663 63.6059 57.3307C63.5078 57.357 63.439 57.393 63.3412 57.4192L56.3156 59.3017L56.7752 61.0167L56.7763 61.0209ZM83.1674 50.7505C83.6402 52.515 85.2025 53.1569 87.8749 52.6529C88.1243 52.6066 88.3721 52.5519 88.6179 52.489L95.2518 50.7114L94.7923 48.9964L88.1093 50.7871C86.6163 51.1872 85.9513 50.9587 85.7082 50.0516L83.3308 41.1791L80.7851 41.8612L83.1668 50.7498L83.1674 50.7505ZM68.9344 54.6598L67.2962 48.5459C66.88 46.9925 67.7067 45.7612 69.7611 44.892C69.9798 44.7981 70.205 44.72 70.4349 44.6583L75.2671 43.3635C75.5052 43.2998 75.7474 43.2527 75.992 43.2224C78.2058 42.9479 79.5373 43.6006 79.9536 45.1543L81.5918 51.2682C81.9295 52.5284 81.6518 53.3257 80.7131 54.0484L83.8337 55.6642L80.8778 56.4563L78.3531 55.1491L76.3457 55.8272L73.623 56.5567C73.1571 56.6816 72.6488 56.7467 72.069 56.7426C70.327 56.7313 69.3153 56.0812 68.9344 54.6598ZM71.6415 53.7709C71.6637 53.8537 71.7103 53.9295 71.7615 54.0224C72.1029 54.6927 72.8675 54.9128 73.8693 54.6444L76.1822 54.0246L73.5387 52.6558L76.4945 51.8637L78.7963 53.0586C79.0885 52.7833 79.2376 52.4418 79.2163 52.0605C79.2188 51.9715 79.1966 51.8888 79.1744 51.8061L77.6036 45.9438C77.586 45.8778 77.5628 45.7913 77.5171 45.7189C77.1891 45.0986 76.4285 44.895 75.4475 45.1578L71.6079 46.1866C70.476 46.4899 69.8768 47.1817 70.0849 47.9584L71.6435 53.7753L71.6415 53.7709Z" fill="#E48E00"/>
<path d="M93.5479 35.3921C91.9717 35.7687 90.8154 36.2359 89.9103 36.9451C89.653 37.1468 89.1908 37.2739 89.2418 37.6546C89.4467 37.7808 89.5396 38.0264 89.7217 38.2003C90.0728 38.5341 90.6285 38.9586 91.0707 39.1401C91.5542 39.3387 92.0556 39.5558 92.558 39.706C93.4505 39.9728 94.3777 40.0132 95.2415 40.2881C95.7508 40.45 96.2764 40.6851 96.7849 40.8864C97.036 40.9859 97.2423 41.1897 97.54 41.2141L97.5279 41.1691C97.3352 41.0234 97.2308 40.78 97.0481 40.6234L96.313 40.1939C95.5427 39.583 94.6476 39.113 93.7359 38.7635C93.009 38.485 91.4867 38.2538 91.0409 37.6058L90.9843 37.5727C91.4027 37.4075 91.8657 37.1146 92.2357 36.9002C92.8562 36.5399 93.4667 36.4261 94.1097 36.061L94.972 35.5406L94.9237 35.3606C94.4773 35.092 94.0998 34.6795 93.6314 34.4539C92.4054 33.863 91.0882 33.2984 89.7772 32.8835C89.0499 32.6534 88.2136 32.602 87.4651 32.4425C87.2134 32.389 86.8087 32.4345 86.6122 32.2853C86.1472 31.9326 85.8075 31.418 85.4028 30.9747C84.5533 30.0377 83.6865 28.9973 82.8851 27.9865C82.3384 27.2973 81.9116 26.5873 81.3038 26.0003C78.3839 23.1849 75.6657 21.7416 71.7636 20.6531C70.9333 20.422 70.0254 20.4854 69.0545 20.5114L67.5619 20.8149C67.2293 20.7692 66.8193 20.4826 66.4906 20.3786C65.1834 19.9647 61.9056 19.1826 61.6238 21.4375C61.4466 22.8634 63.0845 23.7694 63.7252 24.2965C64.1746 24.6665 64.7306 25.0664 65.1016 25.5183C65.3457 25.8149 65.4633 26.1467 65.6904 26.4692C66.2488 27.2595 66.788 28.1461 67.4246 28.848C67.7462 29.2032 68.0957 29.5746 68.4619 29.8712C68.6866 30.0533 68.9944 30.0775 69.1321 30.415C68.9616 30.8775 69.1072 31.4842 69.0845 32.0182C68.9829 34.4206 69.983 37.1044 71.4341 38.4736C71.8795 38.8937 72.8997 39.7777 73.7943 39.0942C74.5764 38.4964 74.0761 37.429 74.0663 36.3707C74.0626 36.1306 73.984 35.9759 74.0553 35.7954L74.0673 35.8404L75.3021 37.2443C76.1529 38.0502 77.4759 38.7767 78.5495 39.2185C79.1062 39.4473 79.6375 39.9588 80.2867 40.0059L80.2746 39.9609L80.2301 39.9729C80.0652 39.8209 79.864 39.7943 79.6766 39.688C79.2359 39.4363 78.7334 39.1111 78.3397 38.7933C77.2303 37.898 76.1881 36.8729 75.1956 35.78C74.7218 35.2584 74.2716 34.6635 73.8444 34.118C73.6796 33.9075 73.5846 33.5484 73.3403 33.4819C73.1734 34.0105 72.847 34.4886 72.7672 35.0813C72.6392 36.0285 72.8715 37.0795 73.0286 38.1923C72.958 38.2414 72.9875 38.2127 72.9516 38.2611C72.2916 38.2762 71.9007 37.6898 71.5223 37.1983C70.5648 35.955 69.8535 33.7321 69.9345 31.985C69.955 31.5332 70.2033 30.0601 69.8576 29.7404C69.6389 29.3875 69.1961 29.2638 68.9045 29.0313C68.5433 28.7399 68.1503 28.3327 67.8552 27.9631C67.086 27.0004 66.5355 25.8361 65.7381 24.8675C65.3569 24.4049 64.8088 23.9804 64.3507 23.6046C63.8427 23.185 63.327 22.9129 62.8742 22.3656C62.7126 22.1699 62.4789 21.8504 62.5683 21.58C62.565 21.5101 62.5816 21.4408 62.6161 21.3803C62.6506 21.3198 62.7016 21.2706 62.7631 21.2385C62.9673 20.9684 63.7582 21.0434 64.0572 21.0846C64.8506 21.1932 65.5232 21.3187 66.236 21.5613C66.5776 21.6741 66.9726 21.9753 67.3511 21.9858L67.7511 21.8786C68.4164 21.8565 69.0915 21.5685 69.7243 21.591C70.844 21.6314 71.9032 21.8776 72.8892 22.1888C75.8927 23.138 78.6137 24.9059 80.7938 27.3041C81.1446 27.6895 81.3587 28.0902 81.6892 28.51C82.3547 29.3534 83.1362 30.2036 83.7952 31.0299C84.453 31.8549 85.1015 32.6905 85.8855 33.3133C86.2974 33.6402 87.5252 33.5466 88.1168 33.6308C88.5318 33.69 89.186 33.6925 89.5963 33.8126C90.3798 34.0428 91.1636 34.3571 91.9162 34.6377C92.2923 34.778 93.3952 35.0109 93.5523 35.404L93.5479 35.3921Z" fill="#00618A"/>
<path fill-rule="evenodd" clip-rule="evenodd" d="M69.0678 23.5896C68.7398 23.671 68.5205 23.7747 68.2909 23.8942L68.303 23.9392L68.3475 23.9273C68.5896 24.209 68.9199 24.3432 69.187 24.5699L69.8852 25.3947L69.9176 25.3378C70.1404 25.0676 70.1828 24.72 70.0525 24.2412C69.9104 24.1534 69.8548 24.0105 69.7213 23.8959C69.5441 23.7431 69.2656 23.7042 69.0669 23.589L69.0678 23.5896Z" fill="#00618A"/>
<path fill-rule="evenodd" clip-rule="evenodd" d="M95.9743 48.6274C96.2777 49.7598 97.3678 50.2859 98.3583 50.0205C99.3487 49.7551 100.03 48.7545 99.7263 47.6221C99.4229 46.4896 98.3328 45.9636 97.3423 46.229C96.3519 46.4944 95.6708 47.495 95.9743 48.6274ZM99.306 47.7347C99.5362 48.5941 99.0582 49.4104 98.2519 49.6264C97.4369 49.8448 96.6234 49.3746 96.3931 48.5152C96.1628 47.6558 96.6314 46.842 97.4472 46.6234C98.2528 46.4076 99.0757 46.8753 99.306 47.7347ZM98.6451 49.0716L99.065 48.959L98.1954 48.1737C98.5161 48.0497 98.7224 47.8208 98.6168 47.4265C98.4989 46.9865 98.1748 46.8788 97.6451 47.0208L96.8093 47.2447L97.3891 49.4085L97.7494 49.312L97.4988 48.3767L97.8339 48.2869L98.6448 49.072L98.6451 49.0716ZM97.4173 48.0724L97.2508 47.4509L97.6658 47.3397C97.8809 47.2821 98.1521 47.2527 98.2199 47.5059C98.3011 47.809 98.0729 47.8975 97.8024 47.97L97.4175 48.0732L97.4173 48.0724Z" fill="#E48E00"/>
</g>
</g>
</g>
<defs>
<filter id="filter0_i_427_12573" x="0.889648" y="0.608414" width="112.467" height="85.1254" filterUnits="userSpaceOnUse" color-interpolation-filters="sRGB">
<feFlood flood-opacity="0" result="BackgroundImageFix"/>
<feBlend mode="normal" in="SourceGraphic" in2="BackgroundImageFix" result="shape"/>
<feColorMatrix in="SourceAlpha" type="matrix" values="0 0 0 0 0 0 0 0 0 0 0 0 0 0 0 0 0 0 127 0" result="hardAlpha"/>
<feMorphology radius="2" operator="erode" in="SourceAlpha" result="effect1_innerShadow_427_12573"/>
<feOffset/>
<feGaussianBlur stdDeviation="7.5"/>
<feComposite in2="hardAlpha" operator="arithmetic" k2="-1" k3="1"/>
<feColorMatrix type="matrix" values="0 0 0 0 0 0 0 0 0 0 0 0 0 0 0 0 0 0 0.25 0"/>
<feBlend mode="normal" in2="shape" result="effect1_innerShadow_427_12573"/>
</filter>
<clipPath id="clip0_427_12573">
<rect x="0.889648" y="26.4903" width="100" height="61.3333" rx="12" transform="rotate(-15 0.889648 26.4903)" fill="white"/>
</clipPath>
<clipPath id="clip1_427_12573">
<rect width="80" height="42" fill="white" transform="translate(13.0508 33.2394) rotate(-15)"/>
</clipPath>
</defs>
</svg>
