<svg width="113" height="66" viewBox="0 0 113 66" fill="none" xmlns="http://www.w3.org/2000/svg">
<g filter="url(#filter0_i_427_12605)">
<g clip-path="url(#clip0_427_12605)">
<rect y="6.54858" width="100" height="61.3333" rx="12" transform="rotate(-15 0 6.54858)" fill="#74DCFF"/>
<g clip-path="url(#clip1_427_12605)">
<mask id="mask0_427_12605" style="mask-type:luminance" maskUnits="userSpaceOnUse" x="34" y="23" width="12" height="13">
<path d="M34.8171 24.0821C37.555 28.2202 40.3043 36.1747 44.751 34.9832C45.0896 34.8923 45.4224 34.7687 45.7492 34.6125C41.46 34.7745 38.8312 26.8822 35.2518 23.3897C35.1019 23.6176 34.9569 23.8484 34.8168 24.0821" fill="white"/>
</mask>
<g mask="url(#mask0_427_12605)">
<mask id="mask1_427_12605" style="mask-type:luminance" maskUnits="userSpaceOnUse" x="34" y="21" width="12" height="16">
<path d="M45.7606 34.7157L38.1934 36.7434L34.6586 23.5517L42.2259 21.524L45.7606 34.7157Z" fill="white"/>
</mask>
<g mask="url(#mask1_427_12605)">
<mask id="mask2_427_12605" style="mask-type:luminance" maskUnits="userSpaceOnUse" x="34" y="21" width="12" height="16">
<path d="M42.2258 21.5238L45.7606 34.7157L38.1934 36.7434L34.6586 23.5517L42.2258 21.5238Z" fill="white"/>
</mask>
<g mask="url(#mask2_427_12605)">
<path d="M45.7606 34.7157L38.1934 36.7434L34.6586 23.5517L42.2259 21.524L45.7606 34.7157Z" fill="url(#paint0_linear_427_12605)"/>
</g>
</g>
</g>
<mask id="mask3_427_12605" style="mask-type:luminance" maskUnits="userSpaceOnUse" x="35" y="22" width="12" height="13">
<path d="M35.2523 23.3896C38.8318 26.8821 41.46 34.7746 45.7498 34.6124C46.0515 34.4703 46.3473 34.2988 46.6369 34.1042C42.5425 33.3385 39.4528 25.8195 35.6471 22.8203C35.5112 23.007 35.3796 23.1967 35.2525 23.3893" fill="white"/>
</mask>
<g mask="url(#mask3_427_12605)">
<mask id="mask4_427_12605" style="mask-type:luminance" maskUnits="userSpaceOnUse" x="35" y="20" width="12" height="17">
<path d="M46.733 34.3679L38.7905 36.4961L35.1657 22.9682L43.1082 20.8401L46.733 34.3679Z" fill="white"/>
</mask>
<g mask="url(#mask4_427_12605)">
<mask id="mask5_427_12605" style="mask-type:luminance" maskUnits="userSpaceOnUse" x="35" y="20" width="12" height="17">
<path d="M43.1082 20.8401L46.733 34.3679L38.7905 36.4961L35.1657 22.9682L43.1082 20.8401Z" fill="white"/>
</mask>
<g mask="url(#mask5_427_12605)">
<path d="M46.733 34.3679L38.7905 36.4961L35.1657 22.9682L43.1082 20.8401L46.733 34.3679Z" fill="url(#paint1_linear_427_12605)"/>
</g>
</g>
</g>
<path d="M38.1443 19.9674C37.8068 20.0578 37.4722 20.182 37.1455 20.3382C36.2903 20.7452 35.4776 21.3685 34.71 22.1885C35.0395 22.374 35.3529 22.5856 35.6469 22.8213C36.3796 21.8074 37.16 20.9987 37.998 20.4122C38.3036 20.1977 38.6272 20.0093 38.9652 19.849C38.688 19.8549 38.4122 19.8946 38.1443 19.9674Z" fill="#14559A"/>
<path d="M49.2186 32.7262C48.9947 32.6051 48.7783 32.4714 48.5705 32.3256C47.9575 33.0486 47.3124 33.6457 46.6353 34.1022C46.9341 34.1586 47.2385 34.1768 47.5484 34.1568C47.7968 34.1405 48.0432 34.0994 48.2836 34.034C49.12 33.8099 49.7553 33.5353 50.2481 33.1214C49.888 33.0357 49.542 32.902 49.22 32.7239" fill="#1969BC"/>
<mask id="mask6_427_12605" style="mask-type:luminance" maskUnits="userSpaceOnUse" x="37" y="19" width="13" height="14">
<path d="M37.9981 20.4123C42.1517 21.301 44.7354 29.6742 48.571 32.3277C48.7301 32.1408 48.8852 31.9465 49.0362 31.7448C46.1531 28.2822 43.3061 19.7465 38.9629 19.8493C38.6315 20.006 38.3086 20.1902 37.9955 20.413" fill="white"/>
</mask>
<g mask="url(#mask6_427_12605)">
<mask id="mask7_427_12605" style="mask-type:luminance" maskUnits="userSpaceOnUse" x="37" y="18" width="13" height="17">
<path d="M49.1771 32.1841L41.709 34.1852L37.9455 20.1398L45.4137 18.1387L49.1771 32.1841Z" fill="white"/>
</mask>
<g mask="url(#mask7_427_12605)">
<mask id="mask8_427_12605" style="mask-type:luminance" maskUnits="userSpaceOnUse" x="37" y="18" width="13" height="17">
<path d="M45.4137 18.1387L49.1771 32.1841L41.709 34.1852L37.9455 20.1398L45.4137 18.1387Z" fill="white"/>
</mask>
<g mask="url(#mask8_427_12605)">
<path d="M49.1771 32.1841L41.709 34.1852L37.9455 20.1398L45.4137 18.1387L49.1771 32.1841Z" fill="url(#paint2_linear_427_12605)"/>
</g>
</g>
</g>
<mask id="mask9_427_12605" style="mask-type:luminance" maskUnits="userSpaceOnUse" x="35" y="20" width="14" height="15">
<path d="M35.647 22.8209C39.4528 25.8198 42.543 33.3417 46.6367 34.1047C47.3136 33.6478 47.9582 33.0516 48.5713 32.3283C44.7356 29.6744 42.152 21.3015 37.9984 20.4128C37.1611 20.9983 36.3803 21.8094 35.6496 22.8202" fill="white"/>
</mask>
<g mask="url(#mask9_427_12605)">
<mask id="mask10_427_12605" style="mask-type:luminance" maskUnits="userSpaceOnUse" x="35" y="18" width="14" height="19">
<path d="M48.8824 33.5072L39.2007 36.1014L35.1988 21.1663L44.8806 18.5721L48.8824 33.5072Z" fill="white"/>
</mask>
<g mask="url(#mask10_427_12605)">
<mask id="mask11_427_12605" style="mask-type:luminance" maskUnits="userSpaceOnUse" x="35" y="18" width="14" height="19">
<path d="M44.8806 18.5723L48.8824 33.5074L39.2007 36.1016L35.1988 21.1665L44.8806 18.5723Z" fill="white"/>
</mask>
<g mask="url(#mask11_427_12605)">
<path d="M48.8824 33.5072L39.2007 36.1014L35.1988 21.1663L44.8806 18.5721L48.8824 33.5072Z" fill="url(#paint3_linear_427_12605)"/>
</g>
</g>
</g>
<path d="M34.3296 22.6119L34.0158 22.9955C34.2837 23.3135 34.5507 23.6797 34.817 24.0841L35.2527 23.392C34.9666 23.1092 34.6582 22.8491 34.3302 22.6141" fill="#2B74B1"/>
<path d="M34.7095 22.1886L34.3296 22.6118C34.6452 22.8352 34.9514 23.0977 35.2524 23.3893L35.6464 22.8202C35.3524 22.5846 35.0391 22.3731 34.7096 22.1878" fill="#125A9E"/>
<path d="M32.9953 24.4536C33.3085 23.9502 33.6492 23.4635 34.016 22.9959L33.5411 22.489C33.3004 23.0027 33.1258 23.642 32.9931 24.4542M32.6349 21.8389C32.9431 21.9781 33.245 22.202 33.5428 22.4877L33.6835 22.2159C33.3375 22.0333 32.9651 21.9024 32.5787 21.8274L32.6256 21.8358L32.6341 21.8387" fill="#0D82CA"/>
<mask id="mask12_427_12605" style="mask-type:luminance" maskUnits="userSpaceOnUse" x="25" y="22" width="6" height="15">
<path d="M25.1982 36.6074C26.9433 29.027 27.4872 24.3792 30.1287 22.4539C27.4028 24.43 25.1583 29.7292 25.1982 36.6074Z" fill="white"/>
</mask>
<g mask="url(#mask12_427_12605)">
<mask id="mask13_427_12605" style="mask-type:luminance" maskUnits="userSpaceOnUse" x="21" y="22" width="13" height="15">
<path d="M21.988 24.6439L30.1268 22.4632L33.3351 34.4367L25.1963 36.6175L21.988 24.6439Z" fill="white"/>
</mask>
<g mask="url(#mask13_427_12605)">
<mask id="mask14_427_12605" style="mask-type:luminance" maskUnits="userSpaceOnUse" x="21" y="22" width="13" height="15">
<path d="M25.1963 36.617L21.9882 24.6442L30.127 22.4634L33.3351 34.4362L25.1963 36.617Z" fill="white"/>
</mask>
<g mask="url(#mask14_427_12605)">
<path d="M21.988 24.6439L30.1268 22.4632L33.3351 34.4367L25.1963 36.6175L21.988 24.6439Z" fill="url(#paint4_linear_427_12605)"/>
</g>
</g>
</g>
<path d="M33.6836 22.2159L33.5429 22.4877C33.702 22.6392 33.8579 22.8089 34.0179 22.9954L34.3316 22.6114C34.1209 22.4614 33.9046 22.3285 33.6836 22.2159Z" fill="#127BCA"/>
<mask id="mask15_427_12605" style="mask-type:luminance" maskUnits="userSpaceOnUse" x="27" y="24" width="6" height="16">
<path d="M27.8053 39.9391L27.8057 39.9404C28.7222 39.5684 29.6811 38.72 30.0536 37.202C30.8272 34.0544 31.6719 31.2017 32.6128 28.7472C32.7098 26.9355 32.8156 25.5408 32.9958 24.4531C30.7632 28.017 29.01 33.4188 27.8053 39.9391Z" fill="white"/>
</mask>
<g mask="url(#mask15_427_12605)">
<mask id="mask16_427_12605" style="mask-type:luminance" maskUnits="userSpaceOnUse" x="24" y="24" width="13" height="16">
<path d="M24.3054 26.802L33.0194 24.4671L36.5437 37.6197L27.8296 39.9546L24.3054 26.802Z" fill="white"/>
</mask>
<g mask="url(#mask16_427_12605)">
<mask id="mask17_427_12605" style="mask-type:luminance" maskUnits="userSpaceOnUse" x="24" y="24" width="13" height="16">
<path d="M27.8296 39.9546L24.3054 26.802L33.0194 24.4671L36.5437 37.6197L27.8296 39.9546Z" fill="white"/>
</mask>
<g mask="url(#mask17_427_12605)">
<path d="M24.3054 26.802L33.0194 24.4671L36.5437 37.6197L27.8296 39.9546L24.3054 26.802Z" fill="url(#paint5_linear_427_12605)"/>
</g>
</g>
</g>
<path d="M25.198 36.6075C24.8641 38.0628 24.5069 39.5132 24.1267 40.958L25.4713 40.5973C25.2989 39.2749 25.2076 37.9425 25.198 36.6075Z" fill="#05A1E6"/>
<mask id="mask18_427_12605" style="mask-type:luminance" maskUnits="userSpaceOnUse" x="25" y="21" width="9" height="20">
<path d="M31.1927 21.8609C31.1827 21.8658 31.1749 21.8684 31.1672 21.8713C31.1517 21.8789 31.1358 21.8857 31.1196 21.8918L31.0907 21.9029L31.0404 21.926L31.0179 21.9348L30.9086 21.9854C30.9039 21.9877 30.8997 21.9896 30.8959 21.9909L30.846 22.0154L30.8201 22.0306L30.7689 22.0554L30.7452 22.0681L30.569 22.1666C30.5643 22.1701 30.556 22.1739 30.5489 22.1789C30.5316 22.1882 30.5149 22.1996 30.4965 22.2112L30.4726 22.225L30.4204 22.257C30.414 22.2606 30.4086 22.2656 30.402 22.2674L30.2829 22.3468L30.2256 22.3859L30.2031 22.403C30.1864 22.4129 30.1705 22.4241 30.1555 22.4364C30.1503 22.4411 30.1434 22.4458 30.1395 22.4504C27.4979 24.3763 26.9542 29.0238 25.2091 36.6039C25.2179 37.9389 25.309 39.2713 25.4819 40.5937L25.6709 40.543L27.426 40.07L27.4426 40.0655L27.5539 40.033L27.6814 39.9891L27.6891 39.9862C27.7071 39.9788 27.7247 39.9723 27.742 39.9665L27.7547 39.9612C27.7735 39.9542 27.7958 39.9458 27.8166 39.9369L27.8162 39.9356C29.0206 33.4153 30.7738 28.0136 33.0065 24.4497C33.1396 23.6374 33.3134 22.998 33.5547 22.4847C33.2563 22.1986 32.9542 21.9747 32.6462 21.8348C32.6432 21.8342 32.6403 21.8341 32.6375 21.8321C32.6218 21.8301 32.6062 21.8273 32.5907 21.824C32.5751 21.8203 32.5593 21.817 32.5435 21.8142C32.5289 21.8126 32.5123 21.8096 32.4977 21.8058C32.4798 21.8049 32.4621 21.8022 32.4448 21.7979C32.4305 21.7973 32.4175 21.7942 32.4038 21.7923C32.3747 21.7895 32.3458 21.7859 32.317 21.7816L32.2803 21.7776C32.2589 21.7766 32.2375 21.7743 32.2164 21.7708C32.2057 21.7709 32.194 21.7696 32.1821 21.7694L32.0947 21.7636C32.0899 21.7635 32.0883 21.7639 32.0869 21.7629C32.0527 21.7619 32.0203 21.7623 31.9864 21.7622C31.9782 21.7609 31.972 21.7611 31.9636 21.7612C31.9337 21.7615 31.9069 21.7604 31.8798 21.7605C31.8733 21.7613 31.8667 21.7616 31.8602 21.7613C31.791 21.7619 31.7219 21.7654 31.6529 21.7718C31.6467 21.7729 31.6382 21.773 31.6312 21.7732L31.5429 21.7831C31.537 21.7819 31.5317 21.7833 31.5254 21.7839L31.421 21.7981C31.4154 21.7985 31.4094 21.7993 31.4028 21.8007C31.3753 21.8037 31.3495 21.8087 31.3236 21.8131C31.2815 21.8277 31.2422 21.8424 31.2027 21.8571" fill="white"/>
</mask>
<g mask="url(#mask18_427_12605)">
<mask id="mask19_427_12605" style="mask-type:luminance" maskUnits="userSpaceOnUse" x="18" y="19" width="23" height="24">
<path d="M26.339 42.5233L18.4513 25.7802L32.2866 19.3936L40.1744 36.1367L26.3391 42.5235L26.339 42.5233Z" fill="white"/>
</mask>
<g mask="url(#mask19_427_12605)">
<mask id="mask20_427_12605" style="mask-type:luminance" maskUnits="userSpaceOnUse" x="18" y="19" width="23" height="24">
<path d="M26.3391 42.5233L18.4514 25.7802L32.2864 19.3934L40.1741 36.1365L26.3391 42.5233Z" fill="white"/>
</mask>
<g mask="url(#mask20_427_12605)">
<path d="M26.339 42.5233L18.4513 25.7802L32.2866 19.3936L40.1744 36.1367L26.3391 42.5235L26.339 42.5233Z" fill="url(#paint6_linear_427_12605)"/>
</g>
</g>
</g>
<mask id="mask21_427_12605" style="mask-type:luminance" maskUnits="userSpaceOnUse" x="52" y="15" width="3" height="12">
<path d="M52.2952 20.4261L52.0146 26.1969C53.2046 23.1962 54.1935 19.5586 54.964 15.4585C53.0972 16.6288 52.3945 18.349 52.2949 20.4259" fill="white"/>
</mask>
<g mask="url(#mask21_427_12605)">
<mask id="mask22_427_12605" style="mask-type:luminance" maskUnits="userSpaceOnUse" x="49" y="15" width="9" height="12">
<path d="M49.5374 16.9104L54.9739 15.4537L57.4608 24.7352L52.0244 26.1919L49.5374 16.9104Z" fill="white"/>
</mask>
<g mask="url(#mask22_427_12605)">
<mask id="mask23_427_12605" style="mask-type:luminance" maskUnits="userSpaceOnUse" x="49" y="15" width="9" height="12">
<path d="M52.0244 26.1919L49.5374 16.9101L54.9738 15.4534L57.4608 24.7352L52.0244 26.1919Z" fill="white"/>
</mask>
<g mask="url(#mask23_427_12605)">
<path d="M49.5374 16.9104L54.9739 15.4537L57.4608 24.7352L52.0244 26.1919L49.5374 16.9104Z" fill="url(#paint7_linear_427_12605)"/>
</g>
</g>
</g>
<path d="M51.0935 31.9822C51.629 30.8319 51.8427 29.063 52.0121 26.1979C51.3663 27.8242 50.664 29.2609 49.8998 30.4848C49.899 30.4878 49.8997 30.4904 49.8983 30.4943C50.2946 31.0838 50.6922 31.5932 51.0935 31.9822Z" fill="#079AE1"/>
<path d="M51.0935 31.9822C50.9115 32.3742 50.6932 32.6926 50.4252 32.9577L50.2449 33.1243C50.6359 33.2132 51.0414 33.2282 51.4398 33.1684L51.4424 33.1677L51.627 33.1353L51.6384 33.1323L51.7235 33.1135L51.7356 33.1102L51.825 33.0878L51.9205 33.0611L51.9495 33.0509L52.0164 33.031L52.0487 33.018L52.1107 32.9966C52.1141 32.996 52.1164 32.9947 52.1178 32.9927L52.1417 32.9851L52.2102 32.9588C52.2125 32.9582 52.213 32.9573 52.2165 32.9564L52.2363 32.9471L52.3093 32.9164C52.3169 32.9144 52.3231 32.9103 52.3312 32.9074L52.4124 32.8709L52.4169 32.8697L52.4239 32.8655L52.5839 32.7853C52.073 32.7452 51.5762 32.4533 51.0889 31.983" fill="#1969BC"/>
<path d="M44.7512 34.9833C45.0946 34.8905 45.4288 34.7664 45.7493 34.6127C46.0576 34.4656 46.3543 34.2957 46.6365 34.1043C46.9369 34.1608 47.2438 34.1794 47.5498 34.1596C47.7983 34.143 48.0448 34.1017 48.2853 34.0363L44.7512 34.9833Z" fill="#1E5CB3"/>
<path d="M48.2829 34.037C49.1193 33.8128 49.7552 33.5393 50.2469 33.1242C50.6377 33.214 51.0434 33.229 51.4418 33.1683L51.4444 33.1676L51.6289 33.1348L51.6403 33.1318L51.7258 33.1132L51.7376 33.1101L51.8274 33.0876L48.2803 34.038L48.2829 34.037Z" fill="#1E5CB3"/>
<path d="M51.8294 33.0866L51.9249 33.0595L51.9539 33.0497L52.0207 33.0294L52.053 33.0164L52.1152 32.9954C52.1186 32.9945 52.1197 32.9942 52.1224 32.9923C52.1308 32.99 52.1377 32.9858 52.1468 32.9833L52.2145 32.9573L52.2204 32.9549L52.2407 32.9459L52.3135 32.9145C52.3211 32.9123 52.3285 32.9094 52.3355 32.9058L52.4163 32.8694L52.4205 32.8683L52.4286 32.8638L52.5886 32.7836C52.7702 32.7987 52.9535 32.7817 53.1298 32.7334L51.8269 33.0861L51.8294 33.0866Z" fill="#1D60B5"/>
<path d="M49.9007 30.4941L49.8983 30.4896L49.0369 31.7447L48.5689 32.3284L49.217 32.729C49.55 32.9097 49.8895 33.0461 50.2452 33.1266L50.4254 32.96C50.6934 32.695 50.912 32.3761 51.0939 31.9849C50.693 31.595 50.2953 31.0864 49.8994 30.4968" fill="#175FAB"/>
<mask id="mask24_427_12605" style="mask-type:luminance" maskUnits="userSpaceOnUse" x="51" y="14" width="8" height="19">
<path d="M57.4662 14.4189L55.7064 14.8905C55.6475 14.9066 55.5893 14.923 55.5318 14.9395L55.3668 14.9856L55.3628 14.9867L55.0331 15.0916L54.9621 15.4591C54.1909 19.559 53.2022 23.1972 52.0127 26.1975C51.8428 29.063 51.6292 30.8316 51.0941 31.9819C51.5811 32.4524 52.0773 32.7422 52.5888 32.7851C52.6013 32.7771 52.6114 32.7725 52.6226 32.767C52.6248 32.7647 52.6273 32.7634 52.63 32.763C52.6376 32.7596 52.6454 32.754 52.6537 32.7512C52.6717 32.7416 52.6909 32.7321 52.7076 32.7207L52.7405 32.7022C52.7564 32.693 52.774 32.6836 52.7893 32.6754C52.7986 32.6679 52.8085 32.6628 52.8194 32.6571C52.8442 32.6413 52.867 32.6291 52.8909 32.6139C52.9011 32.6057 52.9128 32.5981 52.926 32.5912C52.9391 32.5822 52.9533 32.574 52.9648 32.5643C52.9794 32.5554 52.9938 32.5482 53.006 32.5386C53.0176 32.5316 53.0287 32.5237 53.0392 32.5151C53.0667 32.4967 53.0941 32.4797 53.1224 32.4597C53.1296 32.455 53.1362 32.4482 53.1445 32.4443C53.1609 32.4317 53.1787 32.4214 53.1914 32.4086C53.1981 32.404 53.2051 32.3986 53.2155 32.393C53.2742 32.3495 53.3321 32.3049 53.3892 32.2592C53.4755 32.1907 53.5597 32.1198 53.6418 32.0466C56.2239 29.5845 56.264 23.6269 58.7899 14.0654L57.4639 14.4207L57.4662 14.4189Z" fill="white"/>
</mask>
<g mask="url(#mask24_427_12605)">
<mask id="mask25_427_12605" style="mask-type:luminance" maskUnits="userSpaceOnUse" x="47" y="14" width="17" height="20">
<path d="M63.0499 29.9837L51.3892 33.1082L47.1237 17.1891L58.7844 14.0646L63.0499 29.9837Z" fill="white"/>
</mask>
<g mask="url(#mask25_427_12605)">
<mask id="mask26_427_12605" style="mask-type:luminance" maskUnits="userSpaceOnUse" x="47" y="14" width="17" height="20">
<path d="M58.7849 14.0672L63.0504 29.9863L51.3896 33.1108L47.1241 17.1917L58.7849 14.0672Z" fill="white"/>
</mask>
<g mask="url(#mask26_427_12605)">
<path d="M63.0499 29.9837L51.3892 33.1082L47.1237 17.1891L58.7844 14.0646L63.0499 29.9837Z" fill="url(#paint8_linear_427_12605)"/>
</g>
</g>
</g>
<path d="M58.6329 30.995L58.6154 31.1358L58.6105 31.1371C58.5869 31.0976 58.5598 31.0602 58.5294 31.0255L58.0119 30.3911L57.8483 30.4349L58.1253 31.4687L58.2434 31.4371L58.0579 30.7447L57.9983 30.5435L58.001 30.5428C58.0256 30.5892 58.0459 30.6221 58.062 30.6416L58.6345 31.3327L58.6951 31.3165L58.8422 30.4262C58.8467 30.3889 58.8485 30.3515 58.8475 30.314L58.8497 30.3134L58.8937 30.5168L59.0798 31.2114L59.2033 31.1783L58.9263 30.1445L58.7702 30.1863L58.6316 30.9933L58.6329 30.995ZM56.9777 30.7861L57.2826 30.7044L57.5302 31.6282L57.6567 31.5943L57.4091 30.6705L57.7126 30.5892L57.6831 30.4792L56.9498 30.6757L56.9792 30.7857L56.9777 30.7861ZM64.5118 28.1621C64.4007 28.1901 64.2966 28.2404 64.206 28.3098C64.1154 28.3793 64.0403 28.4663 63.9857 28.5654C63.9277 28.6646 63.8904 28.774 63.8761 28.8871C63.8618 29.0002 63.8707 29.1147 63.9023 29.2239C63.9628 29.4508 64.0963 29.6257 64.3027 29.7484C64.6122 29.9326 64.7287 29.9006 64.9609 29.8383C65.0746 29.8097 65.1814 29.7584 65.2744 29.6877C65.3674 29.6169 65.4448 29.5282 65.5015 29.4272C65.6245 29.2164 65.6575 28.9973 65.5966 28.7699C65.5357 28.5426 65.3995 28.3675 65.1854 28.2475C65.0859 28.188 64.9746 28.1497 64.8586 28.135C64.7426 28.1203 64.6245 28.1295 64.5118 28.1621ZM83.2198 14.5709L86.36 13.7295L88.9078 23.238L90.1824 22.8965L87.6346 13.3879L90.7688 12.5481L90.4667 11.4207L82.9196 13.4429L83.2217 14.5704L83.2198 14.5709ZM78.7777 20.7615L82.7077 19.7085L82.4057 18.5814L78.4757 19.6344L77.5276 16.0961L81.7694 14.9595L81.4673 13.832L75.9543 15.3092L78.8043 25.9457L84.5715 24.4004L84.2695 23.2732L79.7789 24.4765L78.7829 20.7597L78.7777 20.7615ZM74.2817 23.787L74.7772 25.3301L74.7477 25.3381C74.6332 25.214 74.4224 25.018 74.1144 24.7458L66.431 17.8594L64.781 18.3015L67.6309 28.9376L68.9063 28.5958L66.8483 20.9153L66.3964 19.4712L66.4426 19.4588C66.6034 19.675 66.7765 19.8671 66.962 20.0352L74.8489 27.0083L76.3963 26.5937L73.5463 15.9576L72.2815 16.2965L74.2888 23.7879L74.2817 23.787ZM86.7725 10.131C86.9251 10.7007 87.2601 10.9163 87.7772 10.7777C87.9619 10.7285 88.102 10.6575 88.1976 10.5646L88.0916 10.1692C88.0217 10.2546 87.9278 10.3132 87.8099 10.3451C87.6523 10.3873 87.5284 10.3762 87.438 10.3118C87.3477 10.2475 87.2784 10.1188 87.2269 9.92667L86.7889 8.29229L87.5352 8.09234L87.4299 7.69949L86.6837 7.89944L86.454 7.04226L86.0189 7.31997L86.2083 8.02682L85.6996 8.16313L85.8048 8.55598L86.3135 8.41967L86.7728 10.1337L86.7725 10.131ZM85.0449 11.4412L85.5191 11.3141L84.8483 8.81031L85.543 8.62417L85.4376 8.23094L84.7429 8.41709L84.6233 7.97091C84.5132 7.56177 84.624 7.31262 84.9557 7.22346C85.0654 7.19269 85.1809 7.18987 85.2913 7.21529L85.1792 6.79689C85.0873 6.78526 84.9683 6.79904 84.822 6.83822C84.569 6.90602 84.3792 7.04021 84.2448 7.2445C84.0897 7.47933 84.0577 7.75855 84.1425 8.07476L84.2684 8.54463L83.7627 8.68013L83.8678 9.07262L84.3739 8.93702L85.0449 11.4412ZM81.4266 10.8756C81.3276 10.5061 81.3441 10.1957 81.4763 9.9444C81.604 9.70804 81.8153 9.55037 82.11 9.47141C82.409 9.39129 82.6664 9.42219 82.8822 9.56411C83.1061 9.71286 83.2678 9.97274 83.3672 10.3438C83.4621 10.698 83.4552 10.993 83.3465 11.2287C83.236 11.4705 83.0245 11.6333 82.7121 11.717C82.4116 11.7975 82.1447 11.7643 81.9115 11.6172C81.6814 11.4705 81.5195 11.2222 81.4266 10.8756ZM83.7476 11.4149C83.9382 11.0654 83.974 10.6582 83.8498 10.1946C83.7241 9.72548 83.4993 9.38964 83.1806 9.18811C82.8603 8.98767 82.4801 8.94614 82.0401 9.06352C81.5902 9.18459 81.2657 9.40886 81.0665 9.73632C80.8515 10.0895 80.8112 10.5178 80.9455 11.0212C81.0639 11.4631 81.2865 11.7843 81.6134 11.9848C81.948 12.1944 82.3369 12.2394 82.785 12.1193C83.2359 11.9982 83.5571 11.7627 83.7486 11.4127M80.5346 12.4497C80.6028 12.354 80.6484 12.2448 80.6683 12.1301C80.6881 12.0154 80.6816 11.8981 80.6493 11.7868C80.5915 11.5713 80.4713 11.4135 80.2886 11.3135C80.1479 11.2327 79.9369 11.1747 79.6557 11.1394C79.4056 11.106 79.2339 11.0651 79.1483 11.017C79.0504 10.9668 78.9842 10.8778 78.9497 10.75C78.9333 10.6941 78.9306 10.6352 78.9417 10.5778C78.9529 10.5204 78.9776 10.4663 79.0138 10.4197C79.0875 10.3198 79.204 10.2485 79.3633 10.2058C79.6171 10.1378 79.859 10.1464 80.0928 10.2314L79.9677 9.76445C79.7566 9.72393 79.5333 9.7352 79.298 9.79826C78.9911 9.88048 78.7617 10.0277 78.6096 10.2399C78.3815 10.5582 78.4139 10.6777 78.4777 10.9157C78.5352 11.1305 78.6459 11.2905 78.8062 11.3889C78.9408 11.4743 79.1468 11.5357 79.4215 11.576C79.6898 11.6152 79.8759 11.6598 79.9793 11.7139C80.0827 11.7679 80.1485 11.8451 80.1792 11.9599C80.2515 12.2297 80.0997 12.4151 79.7238 12.5161C79.4427 12.5914 79.1611 12.5677 78.8789 12.4449L79.0126 12.944C79.2549 13.0041 79.5138 12.9962 79.7971 12.9203C80.1392 12.8287 80.3895 12.6735 80.5419 12.4481M75.749 11.4794C75.8758 11.2433 76.0866 11.0858 76.3816 11.0067C76.6808 10.9265 76.9378 10.9577 77.1524 11.1002C77.3731 11.2494 77.5375 11.5086 77.637 11.8799C77.7319 12.2339 77.725 12.5289 77.6163 12.7649C77.5064 13.0063 77.295 13.1691 76.9819 13.2532C76.6804 13.334 76.4143 13.3005 76.1836 13.1528C75.9516 13.0066 75.7896 12.7583 75.6968 12.4117C75.5978 12.0425 75.6148 11.7319 75.7476 11.4802M77.0527 13.6585C77.5042 13.5372 77.8253 13.3017 78.016 12.9519C78.3016 12.4269 78.2424 12.1952 78.1181 11.7316C77.9924 11.2624 77.7669 10.9268 77.4504 10.7243C77.1304 10.524 76.7494 10.4829 76.3073 10.6008C75.8582 10.7217 75.5342 10.9458 75.3353 11.2732C75.1192 11.6266 75.0788 12.0549 75.2139 12.5582C75.3323 12.9999 75.5552 13.3212 75.8791 13.5225C76.2137 13.7317 76.6026 13.7771 77.0499 13.6572M73.8871 11.4382C73.7734 11.5917 73.7099 11.7836 73.6966 12.0139L73.6853 12.0169L73.5251 11.4193L73.0509 11.5464L73.8272 14.4438L74.3011 14.3168L73.9052 12.8394C73.815 12.5038 73.819 12.2206 73.9172 11.9901C74.0032 11.7853 74.1446 11.6569 74.3348 11.606C74.493 11.5633 74.6223 11.5617 74.7224 11.6013L74.5937 11.1207C74.5223 11.112 74.4242 11.1216 74.2985 11.1553C74.1303 11.2004 73.9929 11.2938 73.8864 11.4356M72.3151 14.9204C72.6288 14.8363 72.8819 14.6962 73.0721 14.4969L72.954 14.0562C72.7705 14.2832 72.5505 14.4291 72.2907 14.4987C71.9838 14.5809 71.7164 14.5478 71.4789 14.4011C71.2415 14.2544 71.0809 14.0113 70.9906 13.674C70.8966 13.3233 70.922 13.0149 71.0633 12.7516C71.1981 12.4951 71.4165 12.3263 71.7185 12.2451C71.9715 12.1773 72.2239 12.1902 72.4854 12.2829L72.3584 11.8089C72.1327 11.7646 71.891 11.7767 71.6333 11.8453C71.1628 11.9713 70.8288 12.2156 70.6272 12.5847C70.4263 12.9521 70.3895 13.3729 70.5169 13.8473C70.6302 14.2701 70.8505 14.5818 71.1736 14.7813C71.5087 14.9864 71.8873 15.0326 72.3126 14.9186M69.675 15.5508L70.1485 15.4239L69.3722 12.5265L68.8987 12.6534L69.675 15.5508ZM68.9441 11.8535C69.0313 11.8301 69.0971 11.781 69.1418 11.7061C69.2091 11.5936 69.1983 11.552 69.1755 11.4668C69.1655 11.4269 69.1472 11.3895 69.1218 11.357C69.0963 11.3245 69.0642 11.2976 69.0274 11.2779C68.9908 11.2574 68.9502 11.2445 68.9082 11.2398C68.8661 11.2352 68.8234 11.239 68.7827 11.251C68.7421 11.2613 68.7039 11.2793 68.6703 11.3042C68.6367 11.3291 68.6085 11.3603 68.5873 11.3959C68.5652 11.4312 68.5508 11.4705 68.545 11.5115C68.5393 11.5524 68.5423 11.5939 68.5539 11.6334C68.5776 11.722 68.6273 11.7866 68.7029 11.8272C68.8162 11.8881 68.8598 11.8765 68.9442 11.8538M64.1582 14.1153L63.9234 13.3297L63.934 13.3269C64.028 13.5059 64.1064 13.6338 64.1691 13.7104L66.4168 16.4246L66.6543 16.361L67.2342 12.8645C67.2495 12.773 67.2558 12.6315 67.2532 12.4399L67.2646 12.4368L67.4351 13.2337L68.1651 15.9581L68.6499 15.8282L67.5629 11.7715L66.9516 11.9353L66.406 15.1008C66.3854 15.2238 66.3635 15.4073 66.3404 15.6514L66.3203 15.6568C66.2606 15.5542 66.1544 15.4093 66.0016 15.2219L63.9705 12.7341L63.328 12.9063L64.4149 16.9626L64.8842 16.8368L64.1557 14.1179L64.1582 14.1153ZM87.9702 7.19913C88.0677 7.03278 88.2167 6.92274 88.4172 6.86901C88.5082 6.84293 88.6034 6.83499 88.6971 6.84566C88.7909 6.85634 88.8812 6.88541 88.9629 6.93116C89.1321 7.02525 89.2428 7.16927 89.295 7.36322C89.373 7.65426 89.3233 7.73982 89.2223 7.90538C89.1754 7.98647 89.1123 8.05748 89.0367 8.11405C88.961 8.17062 88.8746 8.21155 88.7826 8.23431C88.5883 8.28666 88.4065 8.26579 88.2373 8.1717C88.0661 8.07827 87.9534 7.93187 87.9011 7.73674C87.8497 7.54494 87.8724 7.36556 87.9692 7.1986M88.7998 8.31345C89.0238 8.25343 89.1922 8.12934 89.305 7.94117C89.4745 7.65881 89.4491 7.55015 89.3908 7.3328C89.3319 7.11205 89.206 6.95002 89.0129 6.84671C88.825 6.74546 88.6203 6.72438 88.3988 6.78348C88.173 6.84397 88.0041 6.96885 87.8922 7.15812C87.8372 7.24878 87.8016 7.34933 87.7876 7.45355C87.7737 7.55777 87.7816 7.66345 87.811 7.76406C87.8695 7.98357 87.9927 8.14541 88.1806 8.24958C88.3679 8.35259 88.5748 8.37386 88.8014 8.31341M88.3293 7.21205L88.4543 7.17855C88.5384 7.15602 88.6063 7.15331 88.6498 7.17022C88.6896 7.18853 88.7161 7.22388 88.7312 7.28016C88.7615 7.39241 88.7074 7.46711 88.5688 7.50426L88.4184 7.54455L88.3287 7.20983L88.3293 7.21205ZM88.4503 7.66378L88.5424 7.63912C88.6075 7.62166 88.6846 7.66372 88.769 7.7681L88.9418 7.97379L89.1104 7.92862L88.9085 7.70253C88.8249 7.60959 88.7525 7.56416 88.6913 7.56626L88.6903 7.56256C88.766 7.52457 88.8205 7.47544 88.8538 7.41517C88.9043 7.32466 88.8938 7.29295 88.8756 7.22519C88.8674 7.18996 88.8513 7.15702 88.8285 7.12876C88.8057 7.1005 88.7767 7.0776 88.7437 7.06171C88.6637 7.02363 88.5625 7.02177 88.4364 7.05557L88.1538 7.13129L88.4169 8.11325L88.5582 8.07539L88.4478 7.66328L88.4503 7.66378Z" fill="#231F20"/>
</g>
</g>
</g>
<defs>
<filter id="filter0_i_427_12605" x="0" y="-19.3333" width="112.467" height="85.1254" filterUnits="userSpaceOnUse" color-interpolation-filters="sRGB">
<feFlood flood-opacity="0" result="BackgroundImageFix"/>
<feBlend mode="normal" in="SourceGraphic" in2="BackgroundImageFix" result="shape"/>
<feColorMatrix in="SourceAlpha" type="matrix" values="0 0 0 0 0 0 0 0 0 0 0 0 0 0 0 0 0 0 127 0" result="hardAlpha"/>
<feMorphology radius="2" operator="erode" in="SourceAlpha" result="effect1_innerShadow_427_12605"/>
<feOffset/>
<feGaussianBlur stdDeviation="7.5"/>
<feComposite in2="hardAlpha" operator="arithmetic" k2="-1" k3="1"/>
<feColorMatrix type="matrix" values="0 0 0 0 0 0 0 0 0 0 0 0 0 0 0 0 0 0 0.25 0"/>
<feBlend mode="normal" in2="shape" result="effect1_innerShadow_427_12605"/>
</filter>
<linearGradient id="paint0_linear_427_12605" x1="-54.8744" y1="-5793.05" x2="215.1" y2="-4785.49" gradientUnits="userSpaceOnUse">
<stop stop-color="#0994DC"/>
<stop offset="0.11" stop-color="#0994DC"/>
<stop offset="0.35" stop-color="#66CEF5"/>
<stop offset="0.45" stop-color="#66CEF5"/>
<stop offset="0.846" stop-color="#127BCA"/>
<stop offset="1" stop-color="#127BCA"/>
</linearGradient>
<linearGradient id="paint1_linear_427_12605" x1="-6.0756" y1="-5982.59" x2="277.836" y2="-4923.02" gradientUnits="userSpaceOnUse">
<stop stop-color="#0E76BC"/>
<stop offset="0.176" stop-color="#0E76BC"/>
<stop offset="0.36" stop-color="#36AEE8"/>
<stop offset="0.52" stop-color="#36AEE8"/>
<stop offset="0.846" stop-color="#00ADEF"/>
<stop offset="1" stop-color="#00ADEF"/>
</linearGradient>
<linearGradient id="paint2_linear_427_12605" x1="-91.2564" y1="-6311.49" x2="214.791" y2="-5169.31" gradientUnits="userSpaceOnUse">
<stop stop-color="#166AB8"/>
<stop offset="0.099" stop-color="#166AB8"/>
<stop offset="0.4" stop-color="#36AEE8"/>
<stop offset="0.516" stop-color="#36AEE8"/>
<stop offset="0.846" stop-color="#0798DD"/>
<stop offset="1" stop-color="#0798DD"/>
</linearGradient>
<linearGradient id="paint3_linear_427_12605" x1="177.192" y1="-6780.4" x2="523.248" y2="-5488.91" gradientUnits="userSpaceOnUse">
<stop stop-color="#124379"/>
<stop offset="0.11" stop-color="#124379"/>
<stop offset="0.39" stop-color="#1487CB"/>
<stop offset="0.52" stop-color="#1487CB"/>
<stop offset="0.78" stop-color="#165197"/>
<stop offset="1" stop-color="#165197"/>
</linearGradient>
<linearGradient id="paint4_linear_427_12605" x1="-3.20617" y1="-4507.08" x2="-202.644" y2="-5251.4" gradientUnits="userSpaceOnUse">
<stop stop-color="#318ED5"/>
<stop offset="0.675" stop-color="#38A7E4"/>
<stop offset="1" stop-color="#38A7E4"/>
</linearGradient>
<linearGradient id="paint5_linear_427_12605" x1="40.7639" y1="-4915.84" x2="-139.183" y2="-5587.41" gradientUnits="userSpaceOnUse">
<stop stop-color="#1959A6"/>
<stop offset="0.154" stop-color="#1959A6"/>
<stop offset="0.484" stop-color="#05A1E6"/>
<stop offset="0.5" stop-color="#05A1E6"/>
<stop offset="0.918" stop-color="#7EC5EA"/>
<stop offset="1" stop-color="#7EC5EA"/>
</linearGradient>
<linearGradient id="paint6_linear_427_12605" x1="682.659" y1="-7771.17" x2="166.151" y2="-8814.7" gradientUnits="userSpaceOnUse">
<stop stop-color="#165096"/>
<stop offset="0.104" stop-color="#165096"/>
<stop offset="1" stop-color="#0D82CA"/>
</linearGradient>
<linearGradient id="paint7_linear_427_12605" x1="375.481" y1="-3899.99" x2="303.526" y2="-4168.54" gradientUnits="userSpaceOnUse">
<stop stop-color="#05A1E6"/>
<stop offset="0.649" stop-color="#05A1E6"/>
<stop offset="0.874" stop-color="#0495D6"/>
<stop offset="1" stop-color="#0495D6"/>
</linearGradient>
<linearGradient id="paint8_linear_427_12605" x1="1067.95" y1="-7323.66" x2="1337.19" y2="-6318.85" gradientUnits="userSpaceOnUse">
<stop stop-color="#168CD4"/>
<stop offset="0.5" stop-color="#1C87CC"/>
<stop offset="1" stop-color="#154B8D"/>
</linearGradient>
<clipPath id="clip0_427_12605">
<rect y="6.54858" width="100" height="61.3333" rx="12" transform="rotate(-15 0 6.54858)" fill="white"/>
</clipPath>
<clipPath id="clip1_427_12605">
<rect width="80" height="23" fill="white" transform="translate(14.6201 22.474) rotate(-15)"/>
</clipPath>
</defs>
</svg>
