<svg width="114" height="64" viewBox="0 0 114 64" fill="none" xmlns="http://www.w3.org/2000/svg">
<g filter="url(#filter0_i_427_12581)">
<g clip-path="url(#clip0_427_12581)">
<rect x="0.834473" y="26.4612" width="100" height="61.3333" rx="12" transform="rotate(-15 0.834473 26.4612)" fill="#12100E"/>
<g clip-path="url(#clip1_427_12581)">
<mask id="mask0_427_12581" style="mask-type:luminance" maskUnits="userSpaceOnUse" x="27" y="27" width="60" height="35">
<path d="M27.554 52.4191C29.808 60.831 44.7785 64.1288 60.9909 59.7847C77.2033 55.4406 88.5193 45.0994 86.2653 36.6874C84.0114 28.2754 69.0408 24.9776 52.8284 29.3217C36.616 33.6658 25.3 44.0072 27.554 52.4191Z" fill="white"/>
</mask>
<g mask="url(#mask0_427_12581)">
<path d="M27.554 52.4191C29.808 60.831 44.7785 64.1288 60.9909 59.7847C77.2033 55.4406 88.5193 45.0994 86.2653 36.6874C84.0114 28.2754 69.0408 24.9776 52.8284 29.3217C36.616 33.6658 25.3 44.0072 27.554 52.4191Z" fill="url(#paint0_radial_427_12581)"/>
</g>
<mask id="mask1_427_12581" style="mask-type:luminance" maskUnits="userSpaceOnUse" x="21" y="19" width="72" height="51">
<path d="M21.785 35.781L82.9427 19.3939L92.0346 53.3254L30.877 69.7126L21.785 35.781Z" fill="white"/>
</mask>
<g mask="url(#mask1_427_12581)">
<path d="M60.688 58.6536C76.2673 54.4792 87.2054 44.7821 85.1187 36.9946C83.0321 29.2071 68.7108 26.2783 53.1316 30.4528C37.5523 34.6272 26.6141 44.3243 28.7008 52.1118C30.7875 59.8993 45.1087 62.8281 60.688 58.6536Z" fill="#777BB3"/>
</g>
<mask id="mask2_427_12581" style="mask-type:luminance" maskUnits="userSpaceOnUse" x="21" y="19" width="72" height="51">
<path d="M21.785 35.781L82.9427 19.3939L92.0346 53.3254L30.877 69.7126L21.785 35.781Z" fill="white"/>
</mask>
<g mask="url(#mask2_427_12581)">
<path d="M43.972 49.8937C45.253 49.5504 46.1469 49.0612 46.6289 48.4398C47.1057 47.8249 47.3081 46.9264 47.2304 45.7696C47.1573 44.6885 46.8882 43.9921 46.4307 43.6999C45.963 43.4016 45.1272 43.4107 43.9465 43.7271L41.8995 44.2756L42.3078 50.3397L43.9719 49.8938L43.972 49.8937ZM39.1773 58.7831C39.0822 58.8086 38.9808 58.7908 38.9009 58.7346C38.8615 58.7068 38.8288 58.6708 38.8052 58.6289C38.7816 58.5871 38.7677 58.5406 38.7644 58.4928L37.6822 42.4229C37.6772 42.3475 37.6988 42.2726 37.7434 42.2109C37.7881 42.1493 37.8529 42.1047 37.9268 42.0849L44.4093 40.3479C46.4466 39.802 48.109 39.9403 49.3508 40.7622C50.5989 41.5873 51.3001 43.0205 51.4346 45.0215C51.4897 45.8367 51.4201 46.626 51.228 47.3678C51.0355 48.1102 50.7129 48.8359 50.2687 49.5251C49.74 50.3618 49.0709 51.0451 48.2816 51.5531C47.5051 52.0539 46.451 52.4848 45.1484 52.8338L42.5235 53.5371L42.7932 57.5419C42.7983 57.6172 42.7767 57.6922 42.7321 57.7539C42.6875 57.8155 42.6227 57.8601 42.5487 57.8799L39.1773 58.7833L39.1773 58.7831Z" fill="black"/>
<path d="M42.2461 44.5193L44.0307 44.0411C45.4556 43.6593 46.0333 43.8351 46.2508 43.9738C46.6116 44.2042 46.8366 44.8335 46.9017 45.7937C46.9738 46.8687 46.7942 47.6928 46.3678 48.2428C45.9313 48.8058 45.0967 49.2555 43.8878 49.5794L42.6099 49.9219L42.2461 44.5193ZM44.325 40.0336L37.8425 41.7706C37.6947 41.8103 37.565 41.8994 37.4758 42.0227C37.3866 42.146 37.3433 42.2959 37.3535 42.4466L38.4357 58.5167C38.4422 58.6125 38.47 58.7055 38.5172 58.7891C38.5644 58.8727 38.6298 58.9449 38.7087 59.0003C38.7876 59.0558 38.8781 59.0933 38.9737 59.1101C39.0692 59.1268 39.1675 59.1225 39.2615 59.0973L42.6326 58.194C42.7804 58.1544 42.9101 58.0653 42.9994 57.942C43.0886 57.8186 43.1319 57.6688 43.1217 57.518L42.8701 53.7809L45.2325 53.1479C46.5684 52.7899 47.6545 52.3449 48.4605 51.8253C49.2894 51.2917 49.9919 50.5754 50.5478 49.6964C51.01 48.9785 51.3474 48.2214 51.5472 47.4466C51.7471 46.6719 51.8209 45.8474 51.7636 44.9976C51.622 42.8912 50.8723 41.3749 49.5354 40.4913C48.2116 39.616 46.4585 39.4621 44.3252 40.0337M42.0056 50.7574L44.0562 50.2079C45.4153 49.8438 46.3601 49.3201 46.8899 48.6367C47.4196 47.9532 47.6426 46.9898 47.5592 45.7458C47.4782 44.5516 47.1622 43.7783 46.611 43.4261C46.0598 43.0738 45.143 43.0696 43.8626 43.4127L41.5528 44.0316L42.0057 50.7572M44.4937 40.6619C46.4438 40.1394 48.0018 40.263 49.1665 41.0329C50.3312 41.8029 50.978 43.1402 51.1061 45.0451C51.159 45.8298 51.0932 46.5778 50.909 47.289C50.7248 48.0001 50.4188 48.6879 49.9912 49.3515C49.4845 50.1532 48.8553 50.7963 48.1032 51.2807C47.3511 51.7656 46.3385 52.1781 45.0643 52.5195L42.1768 53.2932L42.4646 57.5656L39.0935 58.4689L38.0109 42.399L44.4935 40.662" fill="white"/>
<path d="M60.6958 48.6676C60.6007 48.6931 60.4993 48.6753 60.4195 48.6191C60.3396 48.5628 60.2894 48.4743 60.283 48.3773L59.8037 41.2669C59.7581 40.5907 59.6034 40.1381 59.3681 39.9924C59.224 39.9033 58.8337 39.7939 57.8379 40.0607L55.4275 40.7066L56.0297 49.6452C56.0348 49.7206 56.0131 49.7956 55.9685 49.8572C55.9239 49.9189 55.859 49.9635 55.7851 49.9833L52.4405 50.8795C52.3936 50.8921 52.3444 50.8942 52.2966 50.8859C52.2489 50.8775 52.2036 50.8587 52.1641 50.831C52.1247 50.8033 52.092 50.7672 52.0684 50.7254C52.0448 50.6836 52.0309 50.6371 52.0276 50.5892L50.9454 34.5193C50.9404 34.4439 50.962 34.369 51.0066 34.3073C51.0513 34.2457 51.1161 34.2011 51.19 34.1813L54.5346 33.2852C54.5815 33.2726 54.6307 33.2704 54.6785 33.2788C54.7263 33.2871 54.7715 33.3059 54.811 33.3336C54.8504 33.3614 54.8831 33.3974 54.9067 33.4392C54.9303 33.4811 54.9443 33.5276 54.9475 33.5755L55.2088 37.454L57.8019 36.7592C59.7773 36.2299 61.2087 36.2145 62.1785 36.7121C63.168 37.2197 63.7239 38.3061 63.8343 39.9411L64.3381 47.4192C64.3432 47.4946 64.3216 47.5695 64.277 47.6312C64.2324 47.6929 64.1675 47.7375 64.0936 47.7573L60.6959 48.6677L60.6958 48.6676Z" fill="black"/>
<path d="M54.4504 32.971L51.1059 33.8672C50.958 33.9068 50.8283 33.9959 50.7391 34.1192C50.6498 34.2426 50.6066 34.3925 50.6167 34.5432L51.6989 50.6131C51.7054 50.7089 51.7332 50.8019 51.7804 50.8855C51.8276 50.9691 51.893 51.0413 51.972 51.0968C52.0509 51.1522 52.1414 51.1897 52.2369 51.2065C52.3325 51.2232 52.4308 51.2189 52.5248 51.1937L55.8693 50.2975C56.0172 50.2579 56.1469 50.1688 56.2361 50.0454C56.3253 49.9221 56.3686 49.7722 56.3585 49.6215L55.7743 40.9504L57.9222 40.3749C58.9163 40.1085 59.1811 40.2621 59.1919 40.2688C59.2693 40.3165 59.4281 40.5917 59.4751 41.2907L59.9543 48.401C59.9608 48.4968 59.9886 48.5898 60.0358 48.6735C60.083 48.7571 60.1485 48.8292 60.2274 48.8847C60.3063 48.9402 60.3968 48.9777 60.4924 48.9944C60.588 49.0112 60.6862 49.0068 60.7802 48.9816L64.1778 48.0712C64.3257 48.0316 64.4554 47.9425 64.5446 47.8192C64.6339 47.6958 64.6771 47.546 64.667 47.3952L64.1631 39.9171C64.0448 38.1619 63.4287 36.9863 62.3324 36.423C61.2863 35.8861 59.777 35.8932 57.718 36.4449L55.5112 37.0362L55.2766 33.5515C55.2701 33.4557 55.2423 33.3627 55.1951 33.279C55.1479 33.1954 55.0825 33.1233 55.0036 33.0678C54.9246 33.0123 54.8341 32.9748 54.7386 32.958C54.643 32.9413 54.5447 32.9456 54.4507 32.9708M54.6191 33.5992L54.9069 37.8716L57.8865 37.0732C59.7612 36.5709 61.1408 36.5471 62.0254 37.0011C62.9099 37.4551 63.4031 38.4436 63.506 39.9648L64.0098 47.4428L60.6121 48.3532L60.1329 41.2431C60.0785 40.4342 59.8824 39.9251 59.5446 39.7161C59.2069 39.5072 58.6098 39.5172 57.7542 39.7464L55.0808 40.4628L55.7012 49.6691L52.3566 50.5653L51.2744 34.4954L54.619 33.5992" fill="white"/>
<path d="M70.2839 42.8434C71.5649 42.5001 72.4588 42.0108 72.9407 41.3895C73.4176 40.7746 73.62 39.8763 73.5424 38.7193C73.4693 37.6382 73.2001 36.9417 72.7426 36.6496C72.2749 36.3513 71.4391 36.3604 70.2584 36.6768L68.2114 37.2253L68.6197 43.2894L70.2838 42.8435L70.2839 42.8434ZM65.4894 51.7327C65.3943 51.7582 65.2929 51.7405 65.213 51.6842C65.1735 51.6565 65.1408 51.6204 65.1172 51.5786C65.0936 51.5368 65.0797 51.4903 65.0764 51.4424L63.9942 35.3725C63.9892 35.2972 64.0108 35.2222 64.0555 35.1605C64.1001 35.0989 64.165 35.0543 64.2389 35.0345L70.7213 33.2976C72.7588 32.7516 74.421 32.89 75.6629 33.7119C76.911 34.5369 77.6119 35.9699 77.7467 37.9711C77.8015 38.7863 77.7321 39.5756 77.5399 40.3174C77.3474 41.0599 77.0247 41.7856 76.5806 42.4748C76.0519 43.3115 75.3828 43.9948 74.5935 44.5028C73.8169 45.0035 72.7629 45.4345 71.4603 45.7835L68.8351 46.4869L69.1051 50.4916C69.1102 50.567 69.0885 50.6419 69.0439 50.7036C68.9992 50.7653 68.9344 50.8099 68.8604 50.8297L65.4893 51.733L65.4894 51.7327Z" fill="black"/>
<path d="M68.5585 37.4689L70.3431 36.9908C71.768 36.609 72.3457 36.7847 72.5632 36.9234C72.9242 37.1538 73.1491 37.7832 73.2141 38.7432C73.2861 39.8183 73.1065 40.6425 72.6802 41.1924C72.2437 41.7555 71.4091 42.2052 70.2002 42.5291L68.9226 42.8714L68.5585 37.4689ZM70.6374 32.9833L64.1549 34.7203C64.0071 34.7599 63.8774 34.849 63.7882 34.9724C63.699 35.0957 63.6557 35.2455 63.6659 35.3963L64.7482 51.4663C64.7547 51.5621 64.7825 51.6551 64.8297 51.7387C64.8769 51.8223 64.9423 51.8945 65.0212 51.95C65.1001 52.0055 65.1906 52.0429 65.2862 52.0597C65.3817 52.0765 65.48 52.0721 65.574 52.0469L68.9451 51.1437C69.0929 51.104 69.2226 51.0149 69.3119 50.8916C69.4011 50.7683 69.4444 50.6184 69.4342 50.4676L69.1825 46.7305L71.5449 46.0975C72.8808 45.7396 73.9669 45.2945 74.7729 44.7749C75.6018 44.2414 76.3043 43.525 76.8603 42.6458C77.3226 41.9281 77.6588 41.1713 77.8596 40.3963C78.0605 39.6213 78.1333 38.7971 78.076 37.9472C77.9344 35.8407 77.1846 34.3245 75.8477 33.4408C74.524 32.5656 72.771 32.4117 70.6376 32.9833M68.3181 43.707L70.3686 43.1576C71.7277 42.7934 72.6725 42.2697 73.2023 41.5863C73.732 40.9029 73.955 39.9394 73.8715 38.6954C73.7908 37.5012 73.4747 36.7279 72.9234 36.3757C72.3721 36.0235 71.4554 36.0192 70.1749 36.3623L67.8652 36.9812L68.3182 43.7069M70.8061 33.6116C72.7562 33.089 74.3141 33.2126 75.4789 33.9826C76.6436 34.7525 77.2904 36.0898 77.4185 37.9948C77.4714 38.7795 77.4056 39.5275 77.2214 40.2386C77.0372 40.9498 76.7312 41.6376 76.3036 42.3012C75.7969 43.1029 75.1677 43.7459 74.4155 44.2303C73.6635 44.7153 72.6508 45.1277 71.3767 45.4691L68.4892 46.2428L68.777 50.5152L65.4059 51.4185L64.3237 35.3486L70.8062 33.6116" fill="white"/>
</g>
</g>
</g>
</g>
<defs>
<filter id="filter0_i_427_12581" x="0.834473" y="0.579254" width="112.467" height="85.1253" filterUnits="userSpaceOnUse" color-interpolation-filters="sRGB">
<feFlood flood-opacity="0" result="BackgroundImageFix"/>
<feBlend mode="normal" in="SourceGraphic" in2="BackgroundImageFix" result="shape"/>
<feColorMatrix in="SourceAlpha" type="matrix" values="0 0 0 0 0 0 0 0 0 0 0 0 0 0 0 0 0 0 127 0" result="hardAlpha"/>
<feMorphology radius="2" operator="erode" in="SourceAlpha" result="effect1_innerShadow_427_12581"/>
<feOffset/>
<feGaussianBlur stdDeviation="7.5"/>
<feComposite in2="hardAlpha" operator="arithmetic" k2="-1" k3="1"/>
<feColorMatrix type="matrix" values="0 0 0 0 1 0 0 0 0 1 0 0 0 0 1 0 0 0 0.25 0"/>
<feBlend mode="normal" in2="shape" result="effect1_innerShadow_427_12581"/>
</filter>
<radialGradient id="paint0_radial_427_12581" cx="0" cy="0" r="1" gradientUnits="userSpaceOnUse" gradientTransform="translate(42.5329 37.8199) rotate(-15) scale(39.908 39.3632)">
<stop stop-color="#AEB2D5"/>
<stop offset="0.3" stop-color="#AEB2D5"/>
<stop offset="0.75" stop-color="#484C89"/>
<stop offset="1" stop-color="#484C89"/>
</radialGradient>
<clipPath id="clip0_427_12581">
<rect x="0.834473" y="26.4612" width="100" height="61.3333" rx="12" transform="rotate(-15 0.834473 26.4612)" fill="white"/>
</clipPath>
<clipPath id="clip1_427_12581">
<rect width="80" height="40" fill="white" transform="translate(13.2544 34.1762) rotate(-15)"/>
</clipPath>
</defs>
</svg>
