<svg width="114" height="87" viewBox="0 0 114 87" fill="none" xmlns="http://www.w3.org/2000/svg">
<g filter="url(#filter0_i_427_14119)">
<g clip-path="url(#clip0_427_14119)">
<rect x="0.889648" y="26.8236" width="100" height="61.3333" rx="12" transform="rotate(-15 0.889648 26.8236)" fill="#FCFFFC"/>
<g clip-path="url(#clip1_427_14119)">
<path d="M49.3941 44.9249C48.8006 42.7097 47.8645 41.7423 46.5846 42.0183C46.0757 42.1294 45.606 42.3389 45.1786 42.6539C44.8342 42.8921 44.6158 43.0954 44.5154 43.2685L45.932 48.5552C46.8758 48.8457 47.657 48.8909 48.2724 48.6846C49.5744 48.2419 49.9474 46.9903 49.3939 44.9247L49.3941 44.9249ZM50.977 44.5992C51.2785 45.7244 51.2649 46.7289 50.9331 47.6142C50.5668 48.6133 49.863 49.2659 48.8211 49.5705C48.0377 49.8077 47.1574 49.7779 46.1807 49.4834L47.4682 54.2883L45.9836 54.1681L43.1259 43.503C43.2753 43.1707 43.4985 42.8598 43.7902 42.5686C44.4708 41.8826 45.3861 41.3781 46.5378 41.0569L46.5622 41.071C47.6126 40.7753 48.5406 40.9884 49.3469 41.715C50.0947 42.3776 50.6381 43.3379 50.9761 44.5995L50.977 44.5992ZM60.1015 45.534C60.5059 47.0433 60.6348 48.1293 60.4878 48.7914C60.3396 49.4539 59.8858 50.0729 59.1247 50.6473C58.5054 51.1056 57.7964 51.4547 56.9997 51.6951L56.547 50.9011C57.3343 50.5711 57.8795 50.3057 58.1833 50.1052C58.7804 49.7068 59.1399 49.245 59.265 48.722C59.3639 48.2966 59.2716 47.5604 58.9899 46.5091L58.8953 46.1564C58.0931 46.8192 57.1568 47.3005 56.1509 47.567C55.4838 47.7458 54.8392 47.6947 54.2194 47.4093C53.5274 47.1037 53.087 46.5988 52.8983 45.8946L51.3872 40.2551L52.6179 39.4279L54.1389 45.1045C54.3014 45.711 54.6223 46.1255 55.1013 46.3482C55.5804 46.5709 56.1296 46.5923 56.7478 46.414C57.3652 46.2343 57.9667 45.8157 58.5479 45.1561L56.7734 38.5335L58.1285 38.1705L60.1015 45.534ZM65.6267 44.9881L65.1855 45.1269C64.4193 45.3322 63.7727 45.3101 63.2478 45.0584C62.7242 44.8062 62.3751 44.3581 62.2023 43.713L60.7717 38.374L59.8456 38.6221L59.6172 37.7696L60.5432 37.5215L59.9371 35.2593L61.1616 34.4147L61.8973 37.1604L63.4199 36.7524L63.6483 37.6049L62.1257 38.0129L63.5463 43.3147C63.6825 43.8231 63.9153 44.1471 64.2448 44.2843C64.5273 44.3945 64.9243 44.3946 65.4379 44.2838L65.6271 44.9895L65.6267 44.9881ZM73.8015 42.6785L72.4464 43.0416L71.0449 37.8111C70.9024 37.2791 70.655 36.8542 70.3049 36.5382C69.9028 36.182 69.4475 36.072 68.9375 36.2087C68.3165 36.3751 67.6272 36.9109 66.8702 37.816L68.5501 44.0856L67.1951 44.4487L63.8451 31.9464L65.0857 31.1562L66.6115 36.8506C67.3084 35.9886 68.1702 35.421 69.1976 35.1457C69.9151 34.9535 70.561 35.0392 71.1349 35.4021C71.7103 35.7644 72.0934 36.3052 72.2856 37.0227L73.8016 42.6805L73.8015 42.6785ZM79.8731 36.5294C79.6451 35.6784 79.2934 35.0195 78.8244 34.5491C78.2604 33.9743 77.5703 33.7759 76.7568 33.9543C75.2946 34.4384 74.8382 35.7014 75.3848 37.7412C75.6354 38.6766 75.9991 39.4166 76.4779 39.9587C77.0893 40.6512 77.7909 40.886 78.5821 40.6598C80.0704 40.2484 80.5005 38.8715 79.8724 36.5275L79.8731 36.5294ZM81.3595 36.1409C81.684 37.3519 81.6442 38.4432 81.2439 39.4134C80.8049 40.4971 79.9861 41.2012 78.7868 41.5226C77.5979 41.8411 76.5495 41.6355 75.6399 40.915C74.8177 40.2724 74.2453 39.3453 73.9208 38.1341C73.6157 36.9956 73.6868 35.9498 74.133 34.9946C74.6036 33.9819 75.4028 33.3229 76.528 33.0214C77.6532 32.7199 78.6806 32.8895 79.608 33.5276C80.4706 34.1323 81.0565 35.0019 81.3615 36.1403L81.3595 36.1409ZM90.2561 38.2695L88.9011 38.6326L87.4201 33.1056C87.2576 32.4992 86.9486 32.0752 86.4925 31.832C86.0384 31.5897 85.5064 31.556 84.9037 31.7317C84.2634 31.9159 83.7076 32.2906 83.2356 32.8539L85.0598 39.6619L83.7047 40.025L81.8357 33.0496C82.4634 32.2729 83.0815 31.7097 83.6904 31.3609C84.2649 31.0318 84.7878 30.808 85.2595 30.6816C85.5812 30.5954 85.892 30.5452 86.1932 30.5314C86.7582 30.512 87.2524 30.6242 87.6759 30.8698C88.1474 31.1404 88.4523 31.5375 88.5913 32.0562L90.2561 38.2695Z" fill="#646464"/>
<path d="M28.2548 41.5367C27.5584 41.7267 26.9085 41.9645 26.3506 42.2251C24.7065 42.9926 24.5642 43.7146 24.8795 44.8913L25.296 46.4456L29.3741 45.3529L29.5129 45.8709L23.9023 47.3742C22.7171 47.6918 21.8701 48.6824 21.9089 50.1243C21.9507 51.778 22.1938 52.7519 23.0195 54.269C23.633 55.3988 24.5558 56.0734 25.7409 55.7558L27.1432 55.3801L26.6439 53.517C26.2832 52.1708 27.1297 50.6715 28.5125 50.301L32.5861 49.2095C33.72 48.9056 34.3749 47.7295 34.0698 46.5907L33.0293 42.7074C32.7331 41.6022 31.5783 41.0217 30.4222 41.134C29.6905 41.2051 28.9493 41.3469 28.2529 41.537L28.2548 41.5367ZM26.3823 43.3779C26.8036 43.265 27.2413 43.5225 27.3565 43.9523C27.4713 44.3808 27.22 44.8192 26.7988 44.9321C26.3761 45.0454 25.9406 44.7907 25.8259 44.3624C25.7107 43.9324 25.9594 43.4912 26.3823 43.3779Z" fill="url(#paint0_linear_427_14119)"/>
<path d="M34.0965 44.6426L34.5818 46.4536C34.958 47.8577 34.0842 49.3581 32.7271 49.7218L28.6536 50.8133C27.5379 51.1122 26.8705 52.3147 27.1699 53.4321L28.2104 57.3155C28.5066 58.4207 29.6418 58.8132 30.8048 58.8416C32.1956 58.8756 33.4538 58.6121 34.8783 57.7501C35.8254 57.1777 36.6774 56.3082 36.362 55.1313L35.9456 53.577L31.8721 54.6685L31.7332 54.1505L37.8458 52.5126C39.0311 52.1951 39.2512 51.25 39.3308 49.8988C39.4143 48.5071 39.067 47.2835 38.2203 45.754C37.6113 44.6527 36.814 43.9149 35.6272 44.2329L34.0966 44.643L34.0965 44.6426ZM34.4406 55.0909C34.8633 54.9776 35.2987 55.2323 35.4135 55.6606C35.5287 56.0906 35.2799 56.5318 34.857 56.6452C34.4358 56.758 33.998 56.5005 33.8829 56.0707C33.768 55.6422 34.0193 55.2038 34.4406 55.0909Z" fill="url(#paint1_linear_427_14119)"/>
<path d="M90.394 28.2298L90.6315 28.1662L90.2323 26.6764L90.7951 26.5256L90.7476 26.348L89.3843 26.7133L89.4319 26.8908L89.9948 26.74L90.394 28.2298ZM91.4049 27.9589L91.6079 27.9045L91.2433 26.5438L92.0486 27.7864L92.2747 27.7259L92.3702 26.2465L92.7337 27.6029L92.9552 27.5435L92.5084 25.876L92.2155 25.9544L92.0966 27.5175L91.286 26.2035L90.9585 26.2913L91.4053 27.9588" fill="#646464"/>
<path opacity="0.444" d="M39.0609 59.4588C39.2177 60.044 36.898 61.1742 33.8797 61.9829C30.8615 62.7917 28.2875 62.9729 28.1306 62.3875C27.9738 61.8022 30.2935 60.6721 33.3118 59.8634C36.3301 59.0546 38.904 58.8734 39.0609 59.4588Z" fill="url(#paint2_radial_427_14119)"/>
</g>
</g>
</g>
<defs>
<filter id="filter0_i_427_14119" x="0.889648" y="0.941711" width="112.467" height="85.1254" filterUnits="userSpaceOnUse" color-interpolation-filters="sRGB">
<feFlood flood-opacity="0" result="BackgroundImageFix"/>
<feBlend mode="normal" in="SourceGraphic" in2="BackgroundImageFix" result="shape"/>
<feColorMatrix in="SourceAlpha" type="matrix" values="0 0 0 0 0 0 0 0 0 0 0 0 0 0 0 0 0 0 127 0" result="hardAlpha"/>
<feMorphology radius="2" operator="erode" in="SourceAlpha" result="effect1_innerShadow_427_14119"/>
<feOffset/>
<feGaussianBlur stdDeviation="7.5"/>
<feComposite in2="hardAlpha" operator="arithmetic" k2="-1" k3="1"/>
<feColorMatrix type="matrix" values="0 0 0 0 0 0 0 0 0 0 0 0 0 0 0 0 0 0 0.25 0"/>
<feBlend mode="normal" in2="shape" result="effect1_innerShadow_427_14119"/>
</filter>
<linearGradient id="paint0_linear_427_14119" x1="19.9014" y1="43.7746" x2="31.4003" y2="49.3779" gradientUnits="userSpaceOnUse">
<stop stop-color="#5A9FD4"/>
<stop offset="1" stop-color="#306998"/>
</linearGradient>
<linearGradient id="paint1_linear_427_14119" x1="34.5133" y1="55.7617" x2="29.9074" y2="51.896" gradientUnits="userSpaceOnUse">
<stop stop-color="#FFD43B"/>
<stop offset="1" stop-color="#FFE873"/>
</linearGradient>
<radialGradient id="paint2_radial_427_14119" cx="0" cy="0" r="1" gradientUnits="userSpaceOnUse" gradientTransform="translate(33.5958 60.9231) rotate(-105) scale(1.09713 4.82233)">
<stop stop-color="#B8B8B8" stop-opacity="0.498"/>
<stop offset="1" stop-color="#7F7F7F" stop-opacity="0"/>
</radialGradient>
<clipPath id="clip0_427_14119">
<rect x="0.889648" y="26.8236" width="100" height="61.3333" rx="12" transform="rotate(-15 0.889648 26.8236)" fill="white"/>
</clipPath>
<clipPath id="clip1_427_14119">
<rect width="80" height="40" fill="white" transform="translate(13.3096 34.5386) rotate(-15)"/>
</clipPath>
</defs>
</svg>
