<svg width="114" height="86" viewBox="0 0 114 86" fill="none" xmlns="http://www.w3.org/2000/svg">
<g filter="url(#filter0_i_427_12434)">
<g clip-path="url(#clip0_427_12434)">
<rect x="0.944824" y="26.3768" width="100" height="61.3333" rx="12" transform="rotate(-15 0.944824 26.3768)" fill="#00327E"/>
<g clip-path="url(#clip1_427_12434)">
<path d="M35.904 51.1348C37.1401 50.8036 37.8736 49.5331 37.5424 48.297C37.2112 47.061 35.9407 46.3274 34.7046 46.6586C33.4686 46.9898 32.735 48.2604 33.0662 49.4964C33.3975 50.7325 34.668 51.466 35.904 51.1348Z" fill="#00D8FF"/>
<path fill-rule="evenodd" clip-rule="evenodd" d="M34.085 44.3462C37.0899 43.541 39.997 43.2242 42.2959 43.3849C45.0659 43.5784 46.9797 44.484 47.3007 45.6823C47.6353 46.931 46.3596 48.7797 43.878 50.4117C42.0019 51.6455 39.388 52.7275 36.5356 53.4919C33.611 54.2755 30.7521 54.6833 28.4793 54.5297C25.6039 54.3352 23.6357 53.3362 23.3074 52.1113C22.989 50.9227 24.1258 49.2107 26.3926 47.669C28.3079 46.3663 31.0503 45.1594 34.0846 44.3463L34.085 44.3462Z" stroke="#00D8FF" stroke-width="1.66272"/>
<path fill-rule="evenodd" clip-rule="evenodd" d="M30.7369 47.696C31.5406 44.6907 32.7184 42.0141 34.0061 40.1029C35.5575 37.8001 37.2981 36.5946 38.4965 36.9151C39.7454 37.249 40.7095 39.2778 40.8835 42.2427C41.0155 44.4842 40.6466 47.2892 39.8837 50.142C39.1015 53.067 38.0266 55.7473 36.7582 57.6389C35.1532 60.0327 33.3045 61.2387 32.0794 60.911C30.8908 60.5936 29.9756 58.7531 29.7725 56.0192C29.6008 53.7093 29.9253 50.7307 30.7364 47.6961L30.7369 47.696Z" stroke="#00D8FF" stroke-width="1.66272"/>
<path fill-rule="evenodd" clip-rule="evenodd" d="M31.9666 52.2705C29.7644 50.0738 28.0341 47.716 27.0209 45.6461C25.8006 43.1519 25.6255 41.0418 26.5017 40.1637C27.4147 39.2484 29.6539 39.4263 32.3095 40.7563C34.3173 41.7618 36.5632 43.4818 38.6539 45.5676C40.7973 47.706 42.5826 49.9759 43.5881 52.0195C44.8604 54.6055 44.9819 56.8093 44.0863 57.7071C43.2172 58.5782 41.1659 58.4521 38.6959 57.2627C36.6091 56.2578 34.1905 54.4891 31.9666 52.2705L31.9666 52.2705Z" stroke="#00D8FF" stroke-width="1.66272"/>
<path fill-rule="evenodd" clip-rule="evenodd" d="M61.6799 47.9581L57.8262 44.5487C59.1798 44.0549 60.1599 42.7156 59.6682 40.8803C59.1678 39.0129 57.5223 38.1728 55.6632 38.6709L51.5806 39.7649L54.3033 49.9264L55.5681 49.5875L54.4862 45.55L56.5127 45.007L60.1845 48.3505L61.6799 47.9581ZM56.8569 43.7311L54.1909 44.4454L53.15 40.5605L55.8159 39.8461C57.0201 39.5234 58.0547 40.0952 58.3609 41.2382C58.6672 42.3812 58.0608 43.4099 56.8572 43.7324L56.8569 43.7311ZM66.4367 46.8789C67.6409 46.5562 68.5245 45.895 69.0602 44.9681L68.3114 44.3681C67.8911 45.1178 67.1282 45.6811 66.2905 45.9056C64.7063 46.33 63.4205 45.4336 62.9578 44.0723L68.9143 42.4763L68.8367 42.1865C68.2448 39.9778 66.4689 38.5915 64.244 39.1877C62.1415 39.751 61.08 41.881 61.6514 44.0138C62.2679 46.3146 64.256 47.457 66.4345 46.8733L66.4367 46.8789ZM67.5632 41.939L62.7336 43.2331C62.4928 42.0898 62.9133 40.5553 64.4833 40.1347C66.1595 39.6855 67.2537 40.8458 67.5632 41.939ZM77.3889 43.7482L76.0336 38.69C75.556 36.9075 74.0737 36.5531 72.5192 36.9696C71.3151 37.2923 70.4771 37.9413 69.9056 38.9765L70.651 39.6257C71.1182 38.7496 71.7491 38.2375 72.6326 38.0007C73.699 37.715 74.6427 38.0661 74.9081 39.0565L75.2632 40.3817C74.4851 39.8552 73.5615 39.7596 72.5557 40.0291C71.3064 40.3639 70.1881 41.4965 70.629 43.1418C71.0576 44.7414 72.6075 45.2247 73.858 44.8896C74.8484 44.6243 75.593 44.0493 76.0226 43.2157L76.2469 44.0529L77.3889 43.7482ZM74.0492 43.9571C72.9828 44.2428 72.0564 43.7732 71.8072 42.8434C71.5541 41.8987 72.1215 41.0282 73.1878 40.7425C73.9954 40.5261 74.8536 40.6226 75.4594 41.1139L75.8309 42.5003C75.5523 43.2278 74.8567 43.7407 74.0492 43.9571ZM82.963 42.4507C84.3037 42.0914 84.9488 41.3305 85.317 40.4485L84.3675 39.952C84.0555 40.7375 83.5125 41.2095 82.7572 41.4119C81.1879 41.8324 79.8869 40.8744 79.4502 39.2446C79.0135 37.6148 79.666 36.15 81.2346 35.7297C81.9964 35.5255 82.6987 35.648 83.3592 36.1888L83.9332 35.284C83.1738 34.7035 82.2342 34.3679 80.8935 34.7271C78.6996 35.315 77.6708 37.3872 78.2546 39.5657C78.8424 41.7596 80.7677 43.0334 82.9617 42.4455L82.963 42.4507ZM89.1192 40.8011C89.7889 40.6217 90.1479 40.3129 90.3643 39.9616L89.8009 39.1981C89.6931 39.4064 89.4317 39.6234 89.1052 39.7109C88.6029 39.8455 88.2521 39.515 88.1051 38.9664L86.8804 34.3956L88.3744 33.9953L88.105 32.9901L86.611 33.3904L86.0722 31.3794L84.9292 31.6856L85.468 33.6967L84.249 34.0233L84.5185 35.0292L85.7375 34.7026L87.0277 39.5174C87.3217 40.6147 88.0377 41.0923 89.1195 40.8024L89.1192 40.8011Z" fill="#00D8FF"/>
</g>
</g>
</g>
<defs>
<filter id="filter0_i_427_12434" x="0.944824" y="0.494934" width="112.467" height="85.1253" filterUnits="userSpaceOnUse" color-interpolation-filters="sRGB">
<feFlood flood-opacity="0" result="BackgroundImageFix"/>
<feBlend mode="normal" in="SourceGraphic" in2="BackgroundImageFix" result="shape"/>
<feColorMatrix in="SourceAlpha" type="matrix" values="0 0 0 0 0 0 0 0 0 0 0 0 0 0 0 0 0 0 127 0" result="hardAlpha"/>
<feMorphology radius="2" operator="erode" in="SourceAlpha" result="effect1_innerShadow_427_12434"/>
<feOffset/>
<feGaussianBlur stdDeviation="7.5"/>
<feComposite in2="hardAlpha" operator="arithmetic" k2="-1" k3="1"/>
<feColorMatrix type="matrix" values="0 0 0 0 1 0 0 0 0 1 0 0 0 0 1 0 0 0 0.25 0"/>
<feBlend mode="normal" in2="shape" result="effect1_innerShadow_427_12434"/>
</filter>
<clipPath id="clip0_427_12434">
<rect x="0.944824" y="26.3768" width="100" height="61.3333" rx="12" transform="rotate(-15 0.944824 26.3768)" fill="white"/>
</clipPath>
<clipPath id="clip1_427_12434">
<rect width="80" height="40" fill="white" transform="translate(13.3647 34.0919) rotate(-15)"/>
</clipPath>
</defs>
</svg>
