<svg width="114" height="86" viewBox="0 0 114 86" fill="none" xmlns="http://www.w3.org/2000/svg">
<g filter="url(#filter0_i_427_13283)">
<g clip-path="url(#clip0_427_13283)">
<rect x="0.904785" y="26.5194" width="100" height="61.3333" rx="12" transform="rotate(-15 0.904785 26.5194)" fill="#427977"/>
<g clip-path="url(#clip1_427_13283)">
<path d="M61.9912 47.4375L58.1477 48.4674C56.9381 47.3608 55.8575 46.4137 54.906 45.6262C53.9612 44.8369 52.9479 44.0336 51.8662 43.2163L50.4073 43.6072L51.6205 48.135C51.6834 48.3697 51.776 48.5678 51.8983 48.7291C52.0188 48.8838 52.2124 48.9757 52.479 49.0049C52.6124 49.0195 52.8353 49.0065 53.148 48.9658C53.4606 48.9252 53.7218 48.8804 53.9315 48.8314L54.123 49.5458L48.0859 51.1634L47.8945 50.449C48.0519 50.3924 48.277 50.307 48.5699 50.1925C48.8695 50.0763 49.0724 49.9752 49.1788 49.8892C49.3567 49.7481 49.4667 49.582 49.509 49.3909C49.558 49.1981 49.5474 48.9708 49.4773 48.7092L46.7112 38.3859C46.6483 38.1511 46.559 37.9522 46.4434 37.789C46.3278 37.6259 46.1333 37.5306 45.86 37.5032C45.6761 37.4878 45.4437 37.4925 45.1628 37.5175C44.8801 37.5357 44.6431 37.5633 44.4517 37.6002L44.2603 36.8858L50.8507 35.1199C51.4544 34.9581 52.0383 34.87 52.6023 34.8554C53.1646 34.8342 53.6972 34.9036 54.2002 35.0635C54.688 35.2204 55.1144 35.4836 55.4794 35.8531C55.8426 36.2159 56.106 36.7025 56.2696 37.3129C56.417 37.863 56.4634 38.3718 56.409 38.8393C56.3545 39.3068 56.2043 39.7389 55.9583 40.1355C55.7337 40.5048 55.4389 40.8534 55.0738 41.1813C54.7069 41.5025 54.2884 41.8052 53.8181 42.0893C54.7723 42.833 55.5661 43.4615 56.1997 43.9747C56.84 44.4861 57.6211 45.1072 58.5431 45.8379C58.946 46.1613 59.291 46.3888 59.5779 46.5204C59.8697 46.6435 60.1492 46.734 60.4163 46.7918C60.6141 46.8323 60.85 46.841 61.1242 46.8178C61.3984 46.7947 61.6236 46.7631 61.7998 46.7231L61.9912 47.4375ZM53.8464 38.2103C53.6145 37.345 53.183 36.7273 52.5518 36.3572C51.9188 35.9804 51.1496 35.9133 50.244 36.156L48.5335 36.6143L50.1754 42.7419L51.4935 42.3887C52.4192 42.1407 53.1115 41.6388 53.5704 40.8832C54.0276 40.1208 54.1196 39.2299 53.8464 38.2103Z" fill="#FCFFFC"/>
<path d="M72.8596 44.3312L69.6891 45.4179L69.5004 45.3175L69.1634 44.0598L69.1031 44.076C68.987 44.2868 68.8544 44.5164 68.7053 44.7649C68.5544 45.0066 68.3688 45.2397 68.1485 45.4641C67.8952 45.7261 67.6403 45.9417 67.3837 46.1111C67.1271 46.2805 66.7406 46.4344 66.2241 46.5728C65.3454 46.8083 64.5982 46.7029 63.9826 46.2568C63.3719 45.8021 62.9201 45.0281 62.6271 43.9348L61.3546 39.1856C61.2899 38.9441 61.189 38.7555 61.0519 38.6197C60.9198 38.4753 60.7504 38.3662 60.5436 38.2922C60.4013 38.244 60.2351 38.2274 60.045 38.2424C59.8531 38.2507 59.6547 38.2751 59.4499 38.3156L59.2747 37.6616L62.5203 36.5331L62.7089 36.6335L64.5557 43.5258C64.748 44.2436 65.0537 44.7404 65.4727 45.0164C65.8918 45.2923 66.326 45.3701 66.7754 45.2496C67.1444 45.1508 67.4578 45.0057 67.7156 44.8144C67.9735 44.6231 68.1791 44.4242 68.3323 44.2178C68.4756 44.0284 68.5937 43.8386 68.6865 43.6484C68.7842 43.4496 68.852 43.2733 68.8899 43.1194L67.3828 37.4949C67.3235 37.2735 67.2244 37.0916 67.0856 36.949C66.9449 36.7998 66.7746 36.6873 66.5745 36.6115C66.4322 36.5633 66.2385 36.5649 65.9934 36.6162C65.7533 36.659 65.4838 36.7132 65.1851 36.7789L65.0098 36.1248L68.5472 34.9182L68.7359 35.0186L70.8469 42.8969C70.908 43.125 71.0071 43.307 71.1441 43.4428C71.2812 43.5786 71.4488 43.6811 71.6471 43.7502C71.7876 43.7916 71.9453 43.8033 72.1202 43.7852C72.2933 43.7604 72.4813 43.7243 72.6844 43.6771L72.8596 44.3312Z" fill="#FCFFFC"/>
<path d="M82.8858 36.5114C83.2848 38.0006 83.1504 39.3774 82.4828 40.6419C81.8151 41.9064 80.8607 42.7049 79.6198 43.0374C79.0765 43.183 78.5174 43.243 77.9425 43.2173C77.3744 43.1898 76.8211 43.0971 76.2828 42.9394L75.8483 44.296L75.1867 44.3223C75.0873 43.817 74.9507 43.2137 74.7773 42.5125C74.6037 41.8113 74.4298 41.1353 74.2554 40.4847L71.6241 30.6644C71.563 30.4364 71.4483 30.2227 71.2798 30.0234C71.1181 29.8223 70.9432 29.693 70.7553 29.6355C70.6045 29.5825 70.3727 29.5762 70.0601 29.6169C69.7524 29.649 69.5062 29.6826 69.3215 29.7177L69.1489 29.0738L72.7293 27.8664L72.9106 27.9796L74.663 34.5197L74.7388 34.521C75.0361 33.9668 75.3999 33.5135 75.8302 33.1609C76.2673 32.8065 76.724 32.5655 77.2002 32.4379C78.421 32.1108 79.57 32.3206 80.6472 33.0672C81.7244 33.8139 82.4706 34.9619 82.8858 36.5114ZM80.8017 37.1453C80.6687 36.649 80.4794 36.1569 80.2336 35.6692C79.9879 35.1814 79.6998 34.7769 79.3693 34.4557C79.037 34.1278 78.654 33.8925 78.2204 33.7498C77.7867 33.6072 77.3117 33.6051 76.7952 33.7435C76.3256 33.8693 75.9382 34.0738 75.6331 34.3568C75.3328 34.6314 75.084 34.9641 74.8868 35.3548L76.4343 41.1303C76.5177 41.2805 76.6451 41.4476 76.8167 41.6317C76.9949 41.814 77.2107 41.9755 77.4641 42.1161C77.7156 42.25 77.9851 42.3431 78.2723 42.3956C78.5578 42.4413 78.8849 42.4147 79.2539 42.3159C80.0722 42.0966 80.6269 41.5238 80.9179 40.5975C81.2089 39.6712 81.1702 38.5205 80.8017 37.1453Z" fill="#FCFFFC"/>
<path d="M85.8104 44.5277C85.7206 44.1923 85.7374 43.893 85.861 43.6298C85.9931 43.3716 86.1967 43.2056 86.4717 43.1319C86.6864 43.0744 86.8816 43.0652 87.0575 43.1043C87.2333 43.1435 87.3987 43.2106 87.5536 43.3057C87.6811 43.3794 87.8253 43.4881 87.9861 43.632C88.1468 43.7758 88.276 43.8958 88.3737 43.9918C88.6605 43.7209 88.9329 43.141 89.1909 42.2523C89.4555 41.3618 89.6145 40.6003 89.6679 39.9677C88.6047 38.5487 87.6468 37.2812 86.7942 36.1652C85.9416 35.0493 85.0538 33.896 84.1309 32.7054C83.9208 32.431 83.6423 32.2504 83.2955 32.1635C82.9469 32.07 82.6154 32.0402 82.301 32.0742L82.123 31.4101L86.6508 30.1969L86.8395 30.9012C86.6401 30.9618 86.4103 31.0701 86.1502 31.2261C85.8882 31.3754 85.7752 31.5171 85.8111 31.6513C85.8111 31.6513 85.8414 31.6971 85.9019 31.7887C85.9691 31.8785 86.0287 31.9668 86.0807 32.0535C86.5135 32.6493 87.1596 33.5043 88.0189 34.6184C88.8764 35.7259 89.55 36.6166 90.0398 37.2906C90.1493 36.492 90.2626 35.6672 90.3797 34.8162C90.5017 33.9568 90.6237 32.9499 90.7458 31.7957C90.7586 31.6556 90.7789 31.4633 90.8068 31.2185C90.8329 30.9671 90.8244 30.7609 90.7813 30.5999C90.7345 30.4255 90.5371 30.3059 90.189 30.2409C89.8458 30.1676 89.5322 30.1509 89.2482 30.1911L89.0757 29.5471L92.7583 28.5604L92.9254 29.1842C92.7332 29.2717 92.4997 29.4601 92.2249 29.7494C91.9483 30.032 91.7781 30.3759 91.7142 30.7813C91.412 32.8465 91.153 34.7241 90.9372 36.4139C90.7281 38.1019 90.5587 39.3479 90.429 40.152C90.2581 41.2043 90.075 42.037 89.8798 42.6501C89.6931 43.268 89.4826 43.7702 89.2482 44.1565C89.0151 44.5209 88.7837 44.7842 88.554 44.9465C88.3327 45.1136 88.088 45.2331 87.8196 45.305C87.2964 45.4452 86.8507 45.4316 86.4823 45.2643C86.1207 45.0952 85.8967 44.8497 85.8104 44.5277Z" fill="#FCFFFC"/>
<path fill-rule="evenodd" clip-rule="evenodd" d="M38.9888 48.4942L27.8938 59.8643L44.6673 54.1273L41.3673 36.5481L38.9888 48.4942Z" fill="url(#paint0_linear_427_13283)"/>
<path fill-rule="evenodd" clip-rule="evenodd" d="M44.692 54.1081L40.508 44.3667L37.9235 50.7198L44.692 54.1081Z" fill="url(#paint1_linear_427_13283)"/>
<path fill-rule="evenodd" clip-rule="evenodd" d="M44.7122 54.1027L33.7284 56.1408L27.9453 59.8269L44.7122 54.1027Z" fill="url(#paint2_linear_427_13283)"/>
<path fill-rule="evenodd" clip-rule="evenodd" d="M27.9608 59.8251L28.2891 50.301L22.7143 53.1501L27.9608 59.8251Z" fill="url(#paint3_linear_427_13283)"/>
<path fill-rule="evenodd" clip-rule="evenodd" d="M37.9303 50.7493L32.8622 41.7261L27.563 50.2555L37.9303 50.7493Z" fill="url(#paint4_linear_427_13283)"/>
<path fill-rule="evenodd" clip-rule="evenodd" d="M41.5677 39.5397L33.4145 35.8687L33.1654 42.39L41.5677 39.5397Z" fill="url(#paint5_linear_427_13283)"/>
<path fill-rule="evenodd" clip-rule="evenodd" d="M36.4535 32.9667L33.1018 36.195L30.0293 34.6568L36.4535 32.9667Z" fill="url(#paint6_linear_427_13283)"/>
<path fill-rule="evenodd" clip-rule="evenodd" d="M21.9495 56.5202L22.7922 53.0728L20.4995 49.8492L21.9495 56.5202Z" fill="url(#paint7_linear_427_13283)"/>
<path fill-rule="evenodd" clip-rule="evenodd" d="M20.3805 49.7598L22.7414 53.2052L28.2195 50.3358L33.2168 42.3685L33.4964 35.9004L29.98 34.6049L25.4569 37.8333C24.2678 39.7309 21.9754 43.4693 21.8793 43.5538C21.7846 43.6391 20.837 47.7822 20.3805 49.7598Z" fill="white"/>
<path fill-rule="evenodd" clip-rule="evenodd" d="M23.2593 41.6627C25.78 37.3393 29.6666 34.1427 31.824 35.4011C33.9803 36.6597 33.2962 41.306 30.7751 45.6282C28.2541 49.9504 24.4521 53.2432 22.2959 51.9845C20.1388 50.7273 20.7383 45.9848 23.2593 41.6627Z" fill="url(#paint8_linear_427_13283)"/>
<path fill-rule="evenodd" clip-rule="evenodd" d="M27.9598 59.8216L28.2597 50.2752L37.8772 50.7472C35.4799 54.6075 32.599 58.0997 27.9598 59.8216Z" fill="url(#paint9_linear_427_13283)"/>
<path fill-rule="evenodd" clip-rule="evenodd" d="M33.2241 42.348L37.9102 50.7435C39.8312 47.2146 41.4216 43.5481 41.5952 39.4936L33.2241 42.348Z" fill="url(#paint10_linear_427_13283)"/>
<path fill-rule="evenodd" clip-rule="evenodd" d="M41.5839 39.5453C41.758 36.5559 40.9125 32.5607 36.4264 32.9789L33.4272 35.8665L41.5839 39.5453Z" fill="url(#paint11_linear_427_13283)"/>
<path fill-rule="evenodd" clip-rule="evenodd" d="M21.939 56.4806C23.2792 60.9784 26.5668 60.1699 27.9701 59.8365L22.7401 53.1856L21.939 56.4806Z" fill="#9E1209"/>
<path fill-rule="evenodd" clip-rule="evenodd" d="M33.2403 42.3586C35.634 43.0711 40.4558 44.4982 40.5522 44.5223C40.7025 44.5608 41.5901 41.2526 41.5319 39.533L33.2403 42.3586Z" fill="url(#paint12_radial_427_13283)"/>
<path fill-rule="evenodd" clip-rule="evenodd" d="M28.2563 50.2761L33.6636 56.1981C35.465 54.4903 36.7423 52.6553 37.8542 50.7585L28.2563 50.2761Z" fill="url(#paint13_radial_427_13283)"/>
<path fill-rule="evenodd" clip-rule="evenodd" d="M22.7286 53.1986L23.835 59.3479C25.1367 60.3943 26.4781 60.1562 27.8261 59.6862C26.1676 57.4765 22.8534 53.0577 22.7286 53.1986Z" fill="url(#paint14_linear_427_13283)"/>
<path fill-rule="evenodd" clip-rule="evenodd" d="M33.4106 35.8873L40.7581 34.9836C39.9511 33.4834 38.5136 32.761 36.4488 32.9679L33.4106 35.8873Z" fill="url(#paint15_linear_427_13283)"/>
</g>
</g>
</g>
<defs>
<filter id="filter0_i_427_13283" x="0.904785" y="0.637543" width="112.467" height="85.1253" filterUnits="userSpaceOnUse" color-interpolation-filters="sRGB">
<feFlood flood-opacity="0" result="BackgroundImageFix"/>
<feBlend mode="normal" in="SourceGraphic" in2="BackgroundImageFix" result="shape"/>
<feColorMatrix in="SourceAlpha" type="matrix" values="0 0 0 0 0 0 0 0 0 0 0 0 0 0 0 0 0 0 127 0" result="hardAlpha"/>
<feMorphology radius="2" operator="erode" in="SourceAlpha" result="effect1_innerShadow_427_13283"/>
<feOffset/>
<feGaussianBlur stdDeviation="7.5"/>
<feComposite in2="hardAlpha" operator="arithmetic" k2="-1" k3="1"/>
<feColorMatrix type="matrix" values="0 0 0 0 0 0 0 0 0 0 0 0 0 0 0 0 0 0 0.25 0"/>
<feBlend mode="normal" in2="shape" result="effect1_innerShadow_427_13283"/>
</filter>
<linearGradient id="paint0_linear_427_13283" x1="44.0494" y1="57.7818" x2="36.8678" y2="50.4806" gradientUnits="userSpaceOnUse">
<stop stop-color="#FB7655"/>
<stop offset="0.41" stop-color="#E42B1E"/>
<stop offset="0.99" stop-color="#990000"/>
<stop offset="1" stop-color="#990000"/>
</linearGradient>
<linearGradient id="paint1_linear_427_13283" x1="44.5404" y1="49.9004" x2="37.1276" y2="47.3676" gradientUnits="userSpaceOnUse">
<stop stop-color="#871101"/>
<stop offset="0.99" stop-color="#911209"/>
<stop offset="1" stop-color="#911209"/>
</linearGradient>
<linearGradient id="paint2_linear_427_13283" x1="41.521" y1="58.7389" x2="34.1084" y2="56.2062" gradientUnits="userSpaceOnUse">
<stop stop-color="#871101"/>
<stop offset="0.99" stop-color="#911209"/>
<stop offset="1" stop-color="#911209"/>
</linearGradient>
<linearGradient id="paint3_linear_427_13283" x1="25.5037" y1="51.73" x2="28.1739" y2="57.7992" gradientUnits="userSpaceOnUse">
<stop stop-color="white"/>
<stop offset="0.23" stop-color="#E57252"/>
<stop offset="0.46" stop-color="#DE3B20"/>
<stop offset="0.99" stop-color="#A60003"/>
<stop offset="1" stop-color="#A60003"/>
</linearGradient>
<linearGradient id="paint4_linear_427_13283" x1="30.6192" y1="44.0242" x2="32.7092" y2="50.3883" gradientUnits="userSpaceOnUse">
<stop stop-color="white"/>
<stop offset="0.23" stop-color="#E4714E"/>
<stop offset="0.56" stop-color="#BE1A0D"/>
<stop offset="0.99" stop-color="#A80D00"/>
<stop offset="1" stop-color="#A80D00"/>
</linearGradient>
<linearGradient id="paint5_linear_427_13283" x1="34.9647" y1="36.4598" x2="37.2797" y2="40.802" gradientUnits="userSpaceOnUse">
<stop stop-color="white"/>
<stop offset="0.18" stop-color="#E46342"/>
<stop offset="0.4" stop-color="#C82410"/>
<stop offset="0.99" stop-color="#A80D00"/>
<stop offset="1" stop-color="#A80D00"/>
</linearGradient>
<linearGradient id="paint6_linear_427_13283" x1="31.2469" y1="35.7083" x2="35.2564" y2="32.1529" gradientUnits="userSpaceOnUse">
<stop stop-color="white"/>
<stop offset="0.54" stop-color="#C81F11"/>
<stop offset="0.99" stop-color="#BF0905"/>
<stop offset="1" stop-color="#BF0905"/>
</linearGradient>
<linearGradient id="paint7_linear_427_13283" x1="21.0129" y1="51.2036" x2="22.4162" y2="54.9166" gradientUnits="userSpaceOnUse">
<stop stop-color="white"/>
<stop offset="0.31" stop-color="#DE4024"/>
<stop offset="0.99" stop-color="#BF190B"/>
<stop offset="1" stop-color="#BF190B"/>
</linearGradient>
<linearGradient id="paint8_linear_427_13283" x1="19.6921" y1="56.7519" x2="32.6693" y2="33.5332" gradientUnits="userSpaceOnUse">
<stop stop-color="#BD0012"/>
<stop offset="0.07" stop-color="white"/>
<stop offset="0.17" stop-color="white"/>
<stop offset="0.27" stop-color="#C82F1C"/>
<stop offset="0.33" stop-color="#820C01"/>
<stop offset="0.46" stop-color="#A31601"/>
<stop offset="0.72" stop-color="#B31301"/>
<stop offset="0.99" stop-color="#E82609"/>
<stop offset="1" stop-color="#E82609"/>
</linearGradient>
<linearGradient id="paint9_linear_427_13283" x1="33.9102" y1="54.9335" x2="28.158" y2="55.0475" gradientUnits="userSpaceOnUse">
<stop stop-color="#8C0C01"/>
<stop offset="0.54" stop-color="#990C00"/>
<stop offset="0.99" stop-color="#A80D0E"/>
<stop offset="1" stop-color="#A80D0E"/>
</linearGradient>
<linearGradient id="paint10_linear_427_13283" x1="41.4425" y1="45.9746" x2="35.4983" y2="42.963" gradientUnits="userSpaceOnUse">
<stop stop-color="#7E110B"/>
<stop offset="0.99" stop-color="#9E0C00"/>
<stop offset="1" stop-color="#9E0C00"/>
</linearGradient>
<linearGradient id="paint11_linear_427_13283" x1="41.0911" y1="37.6205" x2="38.0197" y2="35.7078" gradientUnits="userSpaceOnUse">
<stop stop-color="#79130D"/>
<stop offset="0.99" stop-color="#9E120B"/>
<stop offset="1" stop-color="#9E120B"/>
</linearGradient>
<radialGradient id="paint12_radial_427_13283" cx="0" cy="0" r="1" gradientUnits="userSpaceOnUse" gradientTransform="translate(36.2663 42.8452) rotate(-15) scale(6.08092)">
<stop stop-color="#A80D00"/>
<stop offset="0.99" stop-color="#7E0E08"/>
<stop offset="1" stop-color="#7E0E08"/>
</radialGradient>
<radialGradient id="paint13_radial_427_13283" cx="0" cy="0" r="1" gradientUnits="userSpaceOnUse" gradientTransform="translate(30.2063 52.7653) rotate(-15) scale(8.08377 8.08377)">
<stop stop-color="#A30C00"/>
<stop offset="0.99" stop-color="#800E08"/>
<stop offset="1" stop-color="#800E08"/>
</radialGradient>
<linearGradient id="paint14_linear_427_13283" x1="26.287" y1="60.2643" x2="22.5726" y2="54.1846" gradientUnits="userSpaceOnUse">
<stop stop-color="#8B2114"/>
<stop offset="0.43" stop-color="#9E100A"/>
<stop offset="0.99" stop-color="#B3100C"/>
<stop offset="1" stop-color="#B3100C"/>
</linearGradient>
<linearGradient id="paint15_linear_427_13283" x1="35.3524" y1="34.3903" x2="40.2304" y2="35.147" gradientUnits="userSpaceOnUse">
<stop stop-color="#B31000"/>
<stop offset="0.44" stop-color="#910F08"/>
<stop offset="0.99" stop-color="#791C12"/>
<stop offset="1" stop-color="#791C12"/>
</linearGradient>
<clipPath id="clip0_427_13283">
<rect x="0.904785" y="26.5194" width="100" height="61.3333" rx="12" transform="rotate(-15 0.904785 26.5194)" fill="white"/>
</clipPath>
<clipPath id="clip1_427_13283">
<rect width="80" height="40" fill="white" transform="translate(13.3247 34.2345) rotate(-15)"/>
</clipPath>
</defs>
</svg>
