<svg width="48" height="49" viewBox="0 0 48 49" fill="none" xmlns="http://www.w3.org/2000/svg">
<g filter="url(#filter0_i_427_16012)">
<rect y="0.833313" width="48" height="48" rx="8" fill="#FFD500"/>
<g clip-path="url(#clip0_427_16012)">
<path d="M21.8665 26.0598L26.1865 23.5533L30.453 26.0598L26.1865 28.5133L21.8665 26.1133V26.0598ZM8.90649 18.6468L26.1865 8.83331L39.04 16.1398L34.7735 23.5533L26.187 18.6468L13.227 26.0068L8.90649 18.6468Z" fill="#F6BD3A"/>
<path d="M21.8666 35.8733V30.9668L26.1331 28.5133L30.4531 26.0598V30.9663L26.1866 33.4198V38.3263L21.8666 40.8333V35.8733ZM21.8666 26.0598L17.5466 23.6063L13.2266 26.0063V21.0998L26.1866 13.7398V23.5533L21.8666 26.0598ZM34.7201 21.0998V18.6463L39.0401 16.1398L39.0936 21.0463L34.7736 23.5528L34.7201 21.0998Z" fill="#EB8C23"/>
<path d="M17.5465 38.2198V23.6068L21.813 21.2068L21.8665 26.0603L26.1865 28.4603V33.4203L21.8665 31.1268V40.8333L17.5465 38.2198ZM11.04 24.7268L8.90649 23.4468V18.6468L13.2265 21.1003V26.0068L11.04 24.7268ZM26.1865 18.6468V13.7398L34.72 18.6463L34.7735 23.5528L26.187 18.6463L26.1865 18.6468Z" fill="#E35A2B"/>
</g>
</g>
<defs>
<filter id="filter0_i_427_16012" x="0" y="0.833313" width="48" height="48" filterUnits="userSpaceOnUse" color-interpolation-filters="sRGB">
<feFlood flood-opacity="0" result="BackgroundImageFix"/>
<feBlend mode="normal" in="SourceGraphic" in2="BackgroundImageFix" result="shape"/>
<feColorMatrix in="SourceAlpha" type="matrix" values="0 0 0 0 0 0 0 0 0 0 0 0 0 0 0 0 0 0 127 0" result="hardAlpha"/>
<feMorphology radius="2" operator="erode" in="SourceAlpha" result="effect1_innerShadow_427_16012"/>
<feOffset/>
<feGaussianBlur stdDeviation="15"/>
<feComposite in2="hardAlpha" operator="arithmetic" k2="-1" k3="1"/>
<feColorMatrix type="matrix" values="0 0 0 0 0 0 0 0 0 0 0 0 0 0 0 0 0 0 0.25 0"/>
<feBlend mode="normal" in2="shape" result="effect1_innerShadow_427_16012"/>
</filter>
<clipPath id="clip0_427_16012">
<rect width="32" height="32" fill="white" transform="translate(8 8.83331)"/>
</clipPath>
</defs>
</svg>
