<svg width="48" height="48" viewBox="0 0 48 48" fill="none" xmlns="http://www.w3.org/2000/svg">
<g filter="url(#filter0_i_450_1966)">
<rect width="48" height="48" rx="8" fill="#8FA3FF"/>
<g clip-path="url(#clip0_450_1966)">
<path d="M36.3911 11.1851C35.9131 11.1851 35.4361 11.1836 34.9591 11.1836C33.8271 11.1811 32.7821 12.0471 31.9831 12.7336C31.2181 13.4271 30.5216 14.1921 29.9021 15.0176C29.669 14.3956 29.3882 13.7927 29.0621 13.2141C28.8556 12.7886 28.5613 12.4117 28.1986 12.1084C27.8358 11.805 27.4128 11.582 26.9576 11.4541C26.4861 11.3901 26.0096 11.3741 25.5346 11.4051C25.1346 11.4036 24.0006 11.4051 24.0006 11.4051C24.0006 11.4051 22.8646 11.4036 22.4656 11.4051C21.9906 11.3736 21.5141 11.3901 21.0426 11.4541C20.5873 11.582 20.1643 11.805 19.8016 12.1084C19.4388 12.4117 19.1445 12.7886 18.9381 13.2141C18.6116 13.7926 18.3311 14.3951 18.0981 15.0171C17.4786 14.1913 16.7817 13.4265 16.0171 12.7331C15.2171 12.0466 14.1741 11.1806 13.0406 11.1831L11.6086 11.1846C10.9266 11.1856 10.2449 11.1866 9.56357 11.1876C9.06707 11.1896 7.96707 11.0591 8.22757 11.8676C8.29057 12.0636 8.51257 12.2391 8.63857 12.4026L9.05007 12.9776L9.62707 13.9501L10.9001 16.3601C11.8501 18.1241 12.9486 19.8036 14.1851 21.3801C15.1176 22.5316 16.2441 23.6941 17.6376 24.2651C16.5856 26.2204 15.5361 28.1771 14.4891 30.1351L11.7101 35.1771C11.6641 35.2581 11.6161 35.3381 11.5731 35.4196C11.4111 35.6746 11.3071 35.9611 11.2691 36.2606C11.2701 36.8006 12.0721 36.8171 12.4566 36.8196C12.8706 36.8221 13.2866 36.8106 13.7001 36.8066C14.4201 36.7986 15.1401 36.7902 15.8601 36.7816C16.2866 36.7766 16.7201 36.7936 17.1441 36.7531C17.6779 36.7061 18.1955 36.5453 18.6621 36.2817C19.1286 36.0181 19.5334 35.6576 19.8491 35.2246C20.0556 34.9366 21.9921 31.7606 22.7756 30.4776C23.0716 29.9916 24.0006 28.5401 24.0006 28.5401L25.2246 30.4776L28.1511 35.2246C28.4668 35.6576 28.8715 36.0181 29.3381 36.2817C29.8046 36.5453 30.3222 36.7061 30.8561 36.7531C31.2811 36.7931 31.7136 36.7771 32.1396 36.7816C32.8589 36.7889 33.5789 36.7972 34.2996 36.8066L35.5436 36.8196C35.9266 36.8171 36.7301 36.8011 36.7311 36.2606C36.6934 35.961 36.5892 35.6736 36.4261 35.4196C36.3826 35.3381 36.3361 35.2586 36.2891 35.1771C35.3326 33.5121 34.4241 31.8281 33.5166 30.1356C32.4666 28.1789 31.4166 26.2222 30.3666 24.2656C31.7606 23.6941 32.8866 22.5316 33.8196 21.3806C35.0561 19.8042 36.1553 18.1247 37.1051 16.3606C37.5486 15.5676 37.9251 14.7356 38.3736 13.9456C38.5596 13.6191 38.7516 13.2941 38.9506 12.9766C39.0777 12.7782 39.2149 12.5865 39.3616 12.4021C39.5259 12.2465 39.665 12.0661 39.7736 11.8676C40.0336 11.0591 38.9346 11.1901 38.4386 11.1876C37.7552 11.1862 37.0727 11.1857 36.3911 11.1851Z" fill="#F9C638"/>
<path d="M26.3664 15.6865L26.5844 15.6495C26.6849 15.6284 26.7836 15.5998 26.8799 15.564C27.0768 15.4953 27.2596 15.3914 27.4194 15.2575C27.4912 15.2062 27.5519 15.1409 27.5979 15.0655C26.9659 15.077 26.4949 15.0735 26.1839 15.0495C26.0989 15.0365 26.0374 15.2555 25.9969 15.698C25.9919 15.732 26.1964 15.7095 26.3664 15.6865ZM23.1749 18.6335C23.1669 18.6425 23.1624 18.6535 23.1629 18.6665C23.1634 18.6795 23.1699 18.6935 23.1809 18.7025C23.2109 18.7302 23.2432 18.7553 23.2774 18.7775C23.4772 18.9104 23.7125 18.9797 23.9524 18.9765C24.1931 18.9811 24.4294 18.9116 24.6294 18.7775C24.6644 18.7555 24.6994 18.73 24.7304 18.7025C24.7544 18.6825 24.7654 18.6515 24.7479 18.631C24.7259 18.609 24.6899 18.608 24.6669 18.6295C24.6379 18.6537 24.6077 18.6764 24.5764 18.6975H24.5754C24.3896 18.8164 24.1737 18.8796 23.9532 18.8797C23.7327 18.8798 23.5167 18.8167 23.3309 18.698H23.3294C23.2998 18.677 23.2714 18.6543 23.2444 18.63C23.2344 18.621 23.2219 18.617 23.2094 18.6175C23.1969 18.618 23.1844 18.6245 23.1754 18.6345L23.1749 18.6335ZM25.9499 18.212C25.9474 18.207 25.9449 18.202 25.9439 18.196L25.9509 18.212H25.9499ZM27.4389 16.4445C27.3837 16.322 27.3011 16.2139 27.1974 16.1285C27.0572 16.0238 26.8852 15.9706 26.7104 15.978C26.5356 15.9854 26.3687 16.0528 26.2379 16.169C26.1223 16.2868 26.0306 16.4259 25.9679 16.5785C25.806 16.9257 25.7265 17.3055 25.7354 17.6885C25.7428 17.8635 25.8104 18.0306 25.9269 18.1615C26.0799 18.3013 26.2727 18.39 26.4784 18.4155C26.6809 18.477 26.8984 18.4675 27.0949 18.389C27.1922 18.3192 27.2745 18.2306 27.337 18.1283C27.3994 18.0261 27.4407 17.9124 27.4584 17.794C27.5486 17.5139 27.5882 17.22 27.5754 16.926C27.5586 16.7589 27.5126 16.5961 27.4394 16.445L27.4389 16.4445Z" fill="#2A2D2C"/>
<path d="M26.7331 17.15C26.833 17.1122 26.9361 17.0832 27.0411 17.0635C26.8161 17.08 26.6996 16.9885 26.6791 16.7925L26.6371 16.384C26.6451 16.562 26.6106 16.734 26.5371 16.901C26.5112 16.9459 26.4739 16.9831 26.4291 17.009L26.2956 17.0515C26.2461 17.0693 26.1945 17.0805 26.1421 17.085C26.3921 17.0635 26.5201 17.1265 26.5406 17.262L26.6116 17.6505C26.6166 17.3505 26.6576 17.1805 26.7326 17.1505M27.0326 17.7575L27.0076 17.5045C27.0113 17.6142 26.9913 17.7233 26.9491 17.8245C26.931 17.8524 26.9067 17.8757 26.8781 17.8925L26.7996 17.9165C26.7686 17.9269 26.7366 17.934 26.7041 17.9375C26.8531 17.925 26.9371 17.9625 26.9541 18.0455L26.9966 18.283C26.9966 18.0955 27.0216 17.9965 27.0716 17.979C27.1319 17.954 27.1948 17.9359 27.2591 17.925C27.1216 17.934 27.0471 17.875 27.0341 17.7575" fill="white"/>
<path d="M21.9011 15.698C21.8581 15.2555 21.7971 15.0365 21.7131 15.0495C21.4011 15.0735 20.9311 15.077 20.2981 15.0655C20.3446 15.1405 20.4051 15.2055 20.4761 15.2575C20.6361 15.3915 20.8191 15.495 21.0161 15.564C21.1124 15.5995 21.2112 15.628 21.3116 15.6495C21.3326 15.6545 21.4251 15.671 21.5301 15.6865C21.7001 15.71 21.9031 15.7365 21.9011 15.698ZM21.9511 18.212L21.9576 18.196L21.9526 18.212H21.9511ZM20.3271 16.9255C20.3135 17.2195 20.3532 17.5136 20.4441 17.7935C20.4806 18.0325 20.6111 18.247 20.8066 18.3935C21.0031 18.472 21.2201 18.481 21.4226 18.42C21.6286 18.3944 21.8216 18.3057 21.9751 18.166C22.0914 18.035 22.1591 17.868 22.1671 17.693C22.1763 17.3097 22.0964 16.9296 21.9336 16.5825C21.8714 16.4295 21.7794 16.2903 21.6631 16.173C21.3931 15.933 20.9931 15.916 20.7041 16.133C20.6004 16.2181 20.5182 16.3263 20.4641 16.449C20.3895 16.5997 20.343 16.7627 20.3266 16.93L20.3271 16.9255Z" fill="#2A2D2C"/>
<path d="M21.1635 17.15C21.0635 17.112 20.961 17.083 20.856 17.0635C21.081 17.08 21.198 16.9885 21.218 16.7925L21.2595 16.384C21.251 16.5619 21.2855 16.7392 21.36 16.901C21.3858 16.9456 21.4226 16.9828 21.467 17.009L21.601 17.0515C21.6506 17.0693 21.7024 17.0806 21.755 17.085C21.505 17.0635 21.377 17.1265 21.3565 17.262L21.285 17.6505C21.281 17.3505 21.239 17.1805 21.164 17.1505M20.864 17.7575L20.889 17.5045C20.8855 17.6141 20.9054 17.7232 20.9475 17.8245C20.9654 17.8521 20.9894 17.8753 21.0175 17.8925L21.0965 17.9165C21.1277 17.9267 21.1599 17.9337 21.1925 17.9375C21.0425 17.925 20.959 17.9625 20.9425 18.0455L20.9005 18.283C20.9005 18.0955 20.8755 17.9965 20.8255 17.979C20.7652 17.954 20.7023 17.9359 20.638 17.925C20.7755 17.934 20.851 17.875 20.863 17.7575M11.667 35.4685L11.467 35.867C11.41 35.9905 11.377 36.1235 11.369 36.259V36.261C11.3679 36.3056 11.3763 36.3499 11.3936 36.391C11.4109 36.4321 11.4368 36.4691 11.4695 36.4995C11.5486 36.5669 11.6422 36.6152 11.743 36.6405C11.9749 36.6948 12.2128 36.7195 12.451 36.714L12.578 36.715L15.853 36.6765L16.078 36.676L16.343 36.6765L17.128 36.648C17.6469 36.6026 18.1501 36.4465 18.6036 36.1903C19.0571 35.934 19.4504 35.5836 19.757 35.1625C19.804 35.099 19.965 34.8425 20.187 34.486L21 33.17L22.68 30.4235L23.905 28.4835C23.925 28.4535 23.9585 28.4345 23.995 28.4335C24.0315 28.4325 24.064 28.4525 24.0835 28.4835C24.0835 28.4835 25.012 29.9345 25.3095 30.4235L27.801 34.486L28.231 35.1625C28.5373 35.5837 28.9305 35.9343 29.384 36.1906C29.8374 36.4469 30.3406 36.6028 30.8595 36.648C31.116 36.673 31.3795 36.6765 31.6435 36.6765L31.9095 36.676L32.1345 36.6765C32.8538 36.6845 33.5738 36.6928 34.2945 36.7015L35.4095 36.7155L35.5365 36.7145C35.713 36.7163 35.8893 36.7046 36.064 36.6795C36.2294 36.6641 36.3869 36.6016 36.518 36.4995C36.5507 36.4691 36.5765 36.4321 36.5939 36.391C36.6112 36.3499 36.6196 36.3056 36.6185 36.261V36.258C36.6106 36.1225 36.5778 35.9896 36.522 35.866C36.4645 35.7275 36.3895 35.5885 36.326 35.466L36.191 35.2275C35.234 33.5605 34.324 31.875 33.417 30.1775C32.367 28.2208 31.317 26.2641 30.267 24.3075C30.253 24.281 30.251 24.25 30.261 24.2215C30.2659 24.2075 30.2736 24.1947 30.2838 24.1839C30.294 24.1731 30.3063 24.1646 30.32 24.159C31.685 23.601 32.8025 22.451 33.73 21.306C34.963 19.734 36.059 18.059 37.005 16.3C37.3415 15.6985 37.641 15.0715 37.965 14.454C37.229 15.5625 36.3165 16.543 35.264 17.3565C33.7165 18.6035 31.0865 19.835 27.4015 21.0375C23.8505 22.2018 21.2367 23.556 19.56 25.1L17.88 26.594C17.805 26.67 17.4515 27.04 16.833 27.7255C15.9851 28.6907 15.1912 29.7021 14.455 30.755L13.6415 31.905L11.7985 35.2225L11.6635 35.4595" fill="white"/>
<path d="M39.5936 11.81C39.5601 11.89 39.5111 11.9615 39.4501 12.022L39.2131 12.286L39.2116 12.2875C39.0616 12.4775 38.9201 12.674 38.7901 12.8775L38.7911 12.8765L38.2101 13.8525L36.9411 16.2675C35.9961 18.0175 34.9036 19.6925 33.6736 21.2615C32.7486 22.4045 31.6401 23.5415 30.2956 24.0915C30.2466 24.1115 30.2081 24.1515 30.1906 24.2015C30.1731 24.2515 30.1766 24.3065 30.2021 24.354C31.2544 26.3093 32.3044 28.266 33.3521 30.224L36.1271 35.269L36.2621 35.5075C36.3256 35.626 36.3991 35.7575 36.4541 35.8965C36.5063 36.0098 36.5369 36.1319 36.5446 36.2565V36.26C36.5461 36.2933 36.5403 36.3266 36.5276 36.3576C36.5149 36.3885 36.4956 36.4162 36.4711 36.439C36.3513 36.5295 36.2086 36.5847 36.0591 36.5985C35.8891 36.622 35.7166 36.6335 35.5441 36.632H35.4041C35.0391 36.632 34.6731 36.622 34.3041 36.619C33.5831 36.6103 32.8631 36.602 32.1441 36.594L31.9491 36.5925L31.6491 36.593C31.3891 36.593 31.1311 36.5895 30.8816 36.5655C29.8556 36.4755 28.9186 35.9465 28.3116 35.1145C28.2611 35.0404 28.2121 34.9654 28.1646 34.8895C27.6471 34.0745 26.0786 31.5015 25.3931 30.3795C25.0941 29.8895 24.1681 28.4395 24.1671 28.4385C24.1321 28.3845 24.0721 28.352 24.0086 28.352C23.9451 28.352 23.8846 28.3845 23.8501 28.4385C23.8491 28.4395 22.9226 29.8895 22.6236 30.3795L20.9446 33.1255L20.1321 34.4415L19.8521 34.889C19.8046 34.9651 19.7556 35.0403 19.7051 35.1145C19.4051 35.5258 19.0204 35.868 18.577 36.1182C18.1336 36.3684 17.6418 36.5207 17.1346 36.565C16.8793 36.5863 16.6232 36.5954 16.3671 36.5925C16.2656 36.5925 16.1641 36.592 16.0671 36.592L15.8711 36.5935C15.1511 36.6001 14.4311 36.6085 13.7111 36.6185L12.6111 36.6315H12.4711C12.2411 36.6365 12.0101 36.6135 11.7861 36.5605C11.6974 36.5394 11.615 36.4976 11.5456 36.4385C11.4956 36.3925 11.4691 36.327 11.4721 36.2585V36.2555C11.4795 36.1309 11.5102 36.0088 11.5626 35.8955C11.6176 35.7615 11.6906 35.6255 11.7536 35.507C11.7936 35.431 11.8411 35.357 11.8886 35.2685L11.8881 35.27C12.8466 33.602 13.7561 31.9165 14.6641 30.2235C15.7134 28.2668 16.7629 26.3101 17.8126 24.3535C17.8376 24.3065 17.8426 24.251 17.8241 24.201C17.8056 24.151 17.7676 24.111 17.7181 24.091C16.3741 23.542 15.2651 22.4045 14.3401 21.261C13.1108 19.6927 12.0179 18.0221 11.0736 16.2675C10.6346 15.484 10.2576 14.651 9.8046 13.8525C9.6181 13.524 9.4246 13.1965 9.2236 12.8765L9.2241 12.877C9.0936 12.6731 8.95275 12.476 8.8021 12.2865C8.7261 12.189 8.6371 12.103 8.5636 12.0205C8.5026 11.9605 8.4536 11.888 8.4211 11.809C8.40233 11.7562 8.39187 11.7009 8.3901 11.645C8.38734 11.6001 8.40143 11.5559 8.4296 11.521C8.50175 11.4553 8.59271 11.414 8.6896 11.403C8.8396 11.377 8.9926 11.365 9.1446 11.368C9.2946 11.368 9.4446 11.3745 9.5626 11.3745H9.5776C10.2599 11.3731 10.9416 11.3721 11.6226 11.3715C12.0993 11.3715 12.5764 11.3711 13.0541 11.3705H13.0591C13.5987 11.3942 14.1218 11.5639 14.5726 11.8615C15.0451 12.1615 15.4916 12.5015 15.9076 12.8755C16.6636 13.5605 17.3526 14.317 17.9641 15.1335C18.0061 15.187 18.0741 15.2135 18.1416 15.2025C18.2091 15.1915 18.2651 15.1455 18.2881 15.0815C18.5181 14.469 18.7941 13.875 19.1156 13.305L19.1191 13.299C19.5026 12.539 20.2776 11.804 21.0941 11.638C21.3183 11.5961 21.5461 11.5772 21.7741 11.5815C22.0066 11.5815 22.2441 11.593 22.4791 11.593L23.0541 11.5925L25.5471 11.593C25.7821 11.593 26.0201 11.5815 26.2531 11.5815C26.4808 11.5771 26.7083 11.5961 26.9321 11.638C27.7486 11.803 28.5246 12.5395 28.9081 13.299L28.9111 13.305C29.2323 13.8749 29.509 14.4688 29.7386 15.0815C29.7621 15.1455 29.8186 15.1915 29.8856 15.2025C29.9526 15.2135 30.0206 15.1875 30.0631 15.1335C30.6747 14.3171 31.3628 13.561 32.1181 12.8755C32.5346 12.5005 32.9811 12.162 33.4531 11.8615C33.9039 11.564 34.427 11.3945 34.9666 11.371H34.9716C35.4483 11.371 35.9256 11.3713 36.4036 11.372C37.0849 11.3733 37.7671 11.3743 38.4501 11.375H38.4651C38.5881 11.375 38.7336 11.3685 38.8831 11.3685C39.0766 11.3605 39.2701 11.3835 39.4561 11.4355C39.5096 11.4516 39.5581 11.481 39.5971 11.521C39.6256 11.556 39.6401 11.6 39.6371 11.645C39.6356 11.701 39.6251 11.756 39.6071 11.809L39.5936 11.81ZM39.8696 11.277C39.7441 11.1465 39.5787 11.0615 39.3996 11.0355C39.2248 11.0037 39.0472 10.9895 38.8696 10.993C38.7096 10.993 38.5611 10.9995 38.4516 10.9995H38.4376C37.7549 10.9981 37.0726 10.9971 36.3906 10.9965C35.9131 10.9965 35.4356 10.9955 34.9586 10.9955H34.9596H34.9536C34.3457 11.0188 33.7556 11.2072 33.2466 11.5405C32.7561 11.8516 32.2924 12.203 31.8601 12.591C31.164 13.2163 30.5273 13.9048 29.9581 14.6475C29.7461 14.1245 29.5016 13.6155 29.2261 13.1235C28.7831 12.2135 27.9701 11.5385 27.0001 11.27C26.7511 11.2225 26.4981 11.2015 26.2451 11.206C26.0001 11.206 25.7611 11.217 25.5451 11.217L24.9701 11.2165L24.0001 11.217L23.0401 11.2165L22.4641 11.217C22.2441 11.217 22.0041 11.206 21.7606 11.206C21.5066 11.201 21.2531 11.223 21.0036 11.271C20.0266 11.541 19.2126 12.2175 18.7701 13.1295C18.4961 13.6201 18.2526 14.1273 18.0411 14.648C17.4721 13.905 16.8354 13.2166 16.1391 12.5915C15.7071 12.2035 15.2441 11.8515 14.7531 11.5415C14.2441 11.208 13.6531 11.02 13.0456 10.9915H13.0356L11.6081 10.9925C10.9261 10.9965 10.2444 10.999 9.5631 11H9.5501C9.4401 11 9.2911 10.9935 9.1321 10.9935C8.8951 10.9845 8.6586 11.0145 8.4321 11.0825C8.31672 11.1203 8.21316 11.1875 8.1316 11.2775C8.0446 11.3805 7.9986 11.5115 8.0016 11.646C8.0031 11.746 8.0196 11.835 8.0496 11.925C8.0996 12.055 8.1746 12.173 8.2696 12.2725C8.3546 12.3725 8.4396 12.451 8.4911 12.5175C8.63405 12.6967 8.76756 12.8833 8.8911 13.0765C9.08931 13.3929 9.28036 13.7139 9.4641 14.039C9.9066 14.818 10.2831 15.65 10.7321 16.453C11.6868 18.2261 12.7915 19.9142 14.0341 21.499C14.9341 22.6075 16.0191 23.735 17.3741 24.351C16.3534 26.2493 15.3368 28.1483 14.3241 30.048L11.4141 35.333C11.3516 35.45 11.2726 35.596 11.2071 35.754C11.1356 35.9125 11.0951 36.084 11.0881 36.258V36.266C11.0874 36.3495 11.1039 36.4322 11.1365 36.5091C11.1691 36.586 11.2171 36.6554 11.2776 36.713C11.4515 36.8575 11.6642 36.9476 11.8891 36.972C12.0791 36.999 12.2701 37.012 12.4616 37.009L12.6041 37.0095L15.8691 36.9715L16.0611 36.9705L16.3611 36.971C16.6251 36.971 16.8946 36.968 17.1646 36.941C18.2986 36.841 19.3336 36.256 20.0036 35.336C20.0361 35.291 20.0876 35.211 20.1636 35.093C20.6861 34.271 22.2536 31.7005 22.9386 30.578L23.6606 29.4295L24.0001 28.89L24.3421 29.428L25.0641 30.5765L26.7431 33.3235L27.5566 34.6415L27.8386 35.0915L27.9976 35.3345C28.3289 35.7891 28.7537 36.1676 29.2433 36.4446C29.733 36.7216 30.2762 36.8907 30.8366 36.9405C31.1066 36.9665 31.3766 36.9705 31.6406 36.9705H31.9406H32.1321L35.3971 37.0085L35.5396 37.008C35.8049 37.0144 36.0698 36.9858 36.3276 36.923C36.4747 36.8858 36.6105 36.8135 36.7236 36.7125C36.7849 36.6547 36.8335 36.5847 36.8662 36.507C36.899 36.4294 36.9151 36.3457 36.9136 36.2615V36.2575C36.9071 36.0835 36.8666 35.9125 36.7951 35.7535C36.7291 35.596 36.6451 35.4495 36.5866 35.3315C36.5406 35.2455 36.4926 35.1645 36.4476 35.085L36.4471 35.0845C35.4971 33.4225 34.5846 31.7405 33.6771 30.048C32.6624 28.1486 31.6456 26.2493 30.6266 24.35C31.9816 23.734 33.0666 22.6065 33.9666 21.4985C35.2096 19.9135 36.3148 18.2252 37.2701 16.452C37.7186 15.6495 38.0951 14.817 38.5376 14.038C38.7216 13.713 38.9126 13.391 39.1101 13.0765V13.075C39.2271 12.885 39.3671 12.702 39.5101 12.516V12.5175C39.5616 12.451 39.6471 12.3675 39.7321 12.2725C39.8286 12.1725 39.9036 12.055 39.9521 11.926C39.9826 11.8355 39.9987 11.7409 40.0001 11.6455C40.0033 11.5109 39.9571 11.3797 39.8701 11.277H39.8696Z" fill="#2A2D2C"/>
</g>
</g>
<defs>
<filter id="filter0_i_450_1966" x="0" y="0" width="48" height="48" filterUnits="userSpaceOnUse" color-interpolation-filters="sRGB">
<feFlood flood-opacity="0" result="BackgroundImageFix"/>
<feBlend mode="normal" in="SourceGraphic" in2="BackgroundImageFix" result="shape"/>
<feColorMatrix in="SourceAlpha" type="matrix" values="0 0 0 0 0 0 0 0 0 0 0 0 0 0 0 0 0 0 127 0" result="hardAlpha"/>
<feMorphology radius="2" operator="erode" in="SourceAlpha" result="effect1_innerShadow_450_1966"/>
<feOffset/>
<feGaussianBlur stdDeviation="15"/>
<feComposite in2="hardAlpha" operator="arithmetic" k2="-1" k3="1"/>
<feColorMatrix type="matrix" values="0 0 0 0 0 0 0 0 0 0 0 0 0 0 0 0 0 0 0.25 0"/>
<feBlend mode="normal" in2="shape" result="effect1_innerShadow_450_1966"/>
</filter>
<clipPath id="clip0_450_1966">
<rect width="32" height="32" fill="white" transform="translate(8 8)"/>
</clipPath>
</defs>
</svg>
